<?xml version="1.0" encoding="UTF-8"?>
<svg version="1.1" xmlns="http://www.w3.org/2000/svg" width="512" height="512">
<path d="M0 0 C1.85814934 -0.01064158 1.85814934 -0.01064158 3.75383705 -0.02149814 C7.18998725 -0.03606081 10.62476049 -0.02817862 14.06080997 -0.01077521 C17.76707469 0.00258671 21.47323454 -0.01283395 25.17948914 -0.02459717 C32.43871625 -0.04298648 39.69767439 -0.03445319 46.95689315 -0.01650894 C52.85540556 -0.00249037 58.75384489 0.00141147 64.65237236 -0.00195122 C65.49147447 -0.00242866 66.33057659 -0.0029061 67.19510604 -0.00339801 C68.89964646 -0.00442433 70.60418687 -0.00547968 72.30872726 -0.00656378 C87.38441513 -0.01513331 102.45997302 0.00155294 117.53562927 0.03126526 C132.17045043 0.06010843 146.80508436 0.06718412 161.43992615 0.05177307 C177.37084778 0.03502022 193.3016805 0.03096693 209.23260444 0.04848343 C210.9306122 0.05032785 212.62861996 0.05216258 214.32662773 0.0539875 C215.57985917 0.05535564 215.57985917 0.05535564 216.85840841 0.05675141 C222.75166537 0.06236212 228.644879 0.05904471 234.53813362 0.05244255 C241.71736277 0.04471913 248.89640747 0.05142618 256.07559938 0.07661759 C259.73992897 0.08913526 263.40397108 0.09523198 267.06831169 0.08407593 C271.03644217 0.07222287 275.00407411 0.09124898 278.97216797 0.11352539 C280.13606334 0.10528462 281.29995871 0.09704386 282.49912363 0.08855337 C284.08964797 0.1051249 284.08964797 0.1051249 285.71230412 0.12203121 C286.62851695 0.12322269 287.54472979 0.12441418 288.48870665 0.12564176 C291.71859645 0.79254761 292.9182422 2.05488448 294.92259216 4.62818909 C295.27218622 7.30991384 295.3918299 9.56756867 295.31321716 12.23756409 C295.30755737 12.96437378 295.30189758 13.69118347 295.29606628 14.4400177 C295.27373769 16.75342154 295.22355264 19.06525629 295.17259216 21.37818909 C295.1525224 22.94978124 295.13427245 24.52139777 295.11790466 26.09303284 C295.07388509 29.93868626 295.00488591 33.78317197 294.92259216 37.62818909 C295.84072693 37.60724182 296.75886169 37.58629456 297.70481873 37.56471252 C301.11914645 37.49644325 304.53274659 37.44634524 307.94749451 37.40846252 C309.42384807 37.38837608 310.90012235 37.36110107 312.37620544 37.32643127 C314.50124179 37.27777724 316.62522451 37.25519236 318.75071716 37.23756409 C320.02850037 37.21661682 321.30628357 37.19566956 322.62278748 37.17408752 C326.60216228 37.72170791 327.49612265 38.49789344 329.92259216 41.62818909 C330.41478348 44.43175125 330.41478348 44.43175125 330.40361023 47.7278595 C330.41185822 49.60404968 330.41185822 49.60404968 330.42027283 51.5181427 C330.40611717 52.90150836 330.39157795 54.28487014 330.37669373 55.66822815 C330.37556527 57.12692738 330.37619908 58.58562888 330.37846375 60.04432678 C330.37961191 64.00284034 330.3560865 67.96086956 330.32816792 71.91927052 C330.30317107 76.05657308 330.30081362 80.19388662 330.29606628 84.33125305 C330.28363143 92.16523895 330.25080301 99.9990017 330.21066833 107.83288932 C330.1659664 116.75176514 330.14396756 125.67065158 330.12388659 134.58961153 C330.08207076 152.93593059 330.01170888 171.2820419 329.92259216 189.62818909 C330.66517273 189.61296204 331.4077533 189.59773499 332.1728363 189.58204651 C333.1537323 189.57020325 334.1346283 189.55835999 335.14524841 189.54615784 C336.11470398 189.53093079 337.08415955 189.51570374 338.08299255 189.50001526 C343.91357963 189.76319626 348.36692372 192.05374154 352.92259216 195.62818909 C353.06182602 194.96135101 353.20105988 194.29451294 353.34451294 193.60746765 C354.8047104 186.62772305 356.28429705 179.65228603 357.77488708 172.67897034 C358.32921344 170.08094403 358.87555426 167.4816008 359.41844177 164.88111877 C360.2024668 161.12987161 361.00421494 157.38277573 361.80931091 153.63600159 C362.04598984 152.48455658 362.28266876 151.33311157 362.52651978 150.14677429 C364.80454371 139.69656605 368.24679586 130.36405578 376.92259216 123.62818909 C384.9563359 118.57342725 393.49022056 116.62393389 402.92259216 117.62818909 C412.83756355 119.90890565 420.82766147 124.89718579 426.36009216 133.50318909 C432.09368681 144.09441253 431.77709371 154.83499636 428.42193413 166.31460571 C427.34244636 169.78971226 426.19692638 173.24080887 425.03977966 176.69068909 C424.54104952 178.21322514 424.04361024 179.73618456 423.54737854 181.25953674 C422.24452906 185.24726463 420.92423583 189.22899539 419.60002136 193.20967102 C418.27745214 197.19588881 416.97191582 201.1876712 415.66477966 205.17897034 C412.77147363 214.00228985 409.85216619 222.81685363 406.92259216 231.62818909 C406.52640686 232.82024963 406.13022156 234.01231018 405.72203064 235.24049377 C403.79410316 241.03814313 401.86156422 246.83422435 399.92259216 252.62818909 C400.85071716 252.76321838 401.77884216 252.89824768 402.73509216 253.03736877 C413.28313848 254.99250604 422.84254138 263.56236604 429.11790466 271.90162659 C439.34852883 287.35828387 442.6863387 303.1298466 439.20774841 321.37818909 C437.25744054 330.2250255 434.77910181 338.94789634 432.31809998 347.66334534 C430.82462939 352.95440751 429.38398861 358.25931825 427.94602966 363.56568909 C426.04699906 370.55517295 424.14044645 377.54246269 422.20774841 384.52272034 C422.00600006 385.25559265 421.80425171 385.98846497 421.59638977 386.74354553 C420.48403924 390.74751564 419.27359817 394.69830462 417.92259216 398.62818909 C418.49106873 399.11545471 419.05954529 399.60272034 419.64524841 400.10475159 C427.30754329 407.14024772 434.16311108 416.94496331 435.09959412 427.65187073 C435.55964736 443.69141625 433.40247979 454.0023707 422.61009216 466.25318909 C412.29784152 475.36634082 402.57138922 478.77801818 388.98703003 478.77536011 C387.97850371 478.7790368 386.96997739 478.78271348 385.93088967 478.78650159 C382.54717792 478.79752572 379.1634969 478.80138014 375.7797699 478.80519104 C373.35518293 478.81145668 370.93059692 478.81810356 368.50601196 478.82510376 C361.22729545 478.84431955 353.9485815 478.85493045 346.66984734 478.86383155 C343.23800749 478.86821982 339.80616917 478.87358524 336.37433052 478.87882042 C324.95893264 478.89582973 313.5435357 478.91032239 302.1281271 478.91756916 C299.1679325 478.9194789 296.20773791 478.92139926 293.24754333 478.9233551 C292.5118461 478.92383884 291.77614887 478.92432258 291.01815779 478.92482098 C279.10872601 478.93311573 267.19939486 478.95844457 255.29000699 478.99093578 C243.04949442 479.02405678 230.8090329 479.04202248 218.56847531 479.0452134 C211.70129183 479.04737387 204.83425507 479.05605435 197.9671154 479.08167458 C191.50335089 479.10573489 185.03977832 479.10917568 178.57597542 479.09891319 C176.20893095 479.09841848 173.84187336 479.10471972 171.47486877 479.11846924 C154.5588777 479.21120086 141.00367179 478.70765465 127.92259216 466.62818909 C117.92259216 454.83373558 117.92259216 454.83373558 117.92259216 448.62818909 C117.16206039 448.63095447 116.40152863 448.63371984 115.61795044 448.63656902 C97.09716577 448.70287397 78.57640484 448.75249162 60.05552673 448.7836256 C51.09889966 448.79908265 42.14235191 448.82014991 33.18577576 448.85450745 C25.37758677 448.88444543 17.56945523 448.90377254 9.76121044 448.91045457 C5.6282763 448.91435939 1.4955065 448.92351193 -2.63737488 448.94537926 C-6.53122128 448.96581399 -10.42483637 448.97200885 -14.31873131 448.96751213 C-15.74410956 448.96833422 -17.16949593 448.97425825 -18.59482765 448.98580551 C-34.51349601 449.10839212 -34.51349601 449.10839212 -41.10084534 444.08522034 C-41.54686096 443.54252502 -41.99287659 442.99982971 -42.45240784 442.44068909 C-42.91389221 441.9108844 -43.37537659 441.38107971 -43.85084534 440.83522034 C-47.55523771 434.16967356 -47.3634861 426.80596321 -47.33137512 419.40054321 C-47.3344951 418.28933166 -47.33761508 417.17812012 -47.34082961 416.03323549 C-47.34878909 412.320122 -47.34249383 408.60717286 -47.3361969 404.89405823 C-47.33890768 402.22770714 -47.34239695 399.56136728 -47.34681702 396.89501953 C-47.3556969 390.4106502 -47.35379519 383.92632724 -47.34799173 377.44195611 C-47.34346933 372.17000421 -47.34286485 366.89806527 -47.34503937 361.62611198 C-47.34534583 360.87489615 -47.3456523 360.12368032 -47.34596805 359.34970037 C-47.34660752 357.82346022 -47.34725595 356.29722008 -47.34791324 354.77097993 C-47.35361252 340.46864073 -47.34706515 326.1663272 -47.3363125 311.86399221 C-47.32737918 299.60219146 -47.32892801 287.3404286 -47.33815002 275.07862854 C-47.34886291 260.82794157 -47.35306131 246.57727709 -47.3469255 232.32658666 C-47.34628842 230.80575176 -47.34565968 229.28491686 -47.34503937 227.76408195 C-47.34473082 227.01587027 -47.34442227 226.26765859 -47.34410436 225.49677383 C-47.34238034 220.23401988 -47.34528625 214.97128025 -47.34999847 209.70852852 C-47.3556187 203.29080509 -47.35406697 196.87313055 -47.34343699 190.45541269 C-47.33819532 187.18340463 -47.33718171 183.91149443 -47.34273529 180.63948441 C-47.34820828 177.08718153 -47.341335 173.53510698 -47.33137512 169.9828186 C-47.33583657 168.9561532 -47.34029801 167.92948779 -47.34489465 166.87171131 C-47.30690519 159.87568925 -47.01698432 152.98514839 -43.45240784 146.81568909 C-37.42282702 141.26212781 -32.78134017 140.36632229 -24.78053284 140.52272034 C-24.0388385 140.53033386 -23.29714417 140.53794739 -22.53297424 140.54579163 C-20.71435214 140.56555926 -18.89584933 140.59582157 -17.07740784 140.62818909 C-17.0820168 139.93704419 -17.08662577 139.2458993 -17.0913744 138.53381062 C-17.20179736 121.7165305 -17.28453684 104.8993652 -17.3364687 88.08180714 C-17.36225014 79.94894199 -17.39739923 71.81631883 -17.4546051 63.68360901 C-17.50444227 56.59509787 -17.5366993 49.50676198 -17.54785031 42.41808051 C-17.55436867 38.66459597 -17.56968643 34.91161279 -17.60605812 31.15828896 C-17.6463339 26.96809783 -17.64735709 22.7787782 -17.64503479 18.58839417 C-17.66301117 17.34402084 -17.68098755 16.09964752 -17.69950867 14.81756592 C-17.69263535 13.6747818 -17.68576202 12.53199768 -17.67868042 11.35458374 C-17.68328938 10.36365628 -17.68789835 9.37272882 -17.69264698 8.35177326 C-15.5996653 -0.91358613 -7.77061698 -0.07917165 0 0 Z " fill="#010100" transform="translate(59.07740783691406,16.371810913085938)"/>
<path d="M0 0 C0.88399947 0.00092179 1.76799894 0.00184359 2.67878628 0.00279331 C3.68985943 0.00141865 4.70093258 0.00004398 5.74264431 -0.00137234 C7.42038433 0.00402058 7.42038433 0.00402058 9.13201809 0.00952244 C10.30259258 0.00937641 11.47316708 0.00923038 12.67921352 0.00907993 C15.89807713 0.00965887 19.11689773 0.01468791 22.33575273 0.02165389 C25.6963417 0.02788826 29.05693143 0.02849129 32.41752529 0.0296793 C38.78529112 0.03279237 45.15303986 0.04100543 51.52079815 0.05102879 C58.76856499 0.06219068 66.01633263 0.06770057 73.26410592 0.07272422 C88.17703605 0.08318806 103.08995017 0.10078703 118.0028677 0.12304783 C118.80515063 2.04256682 119.60682735 3.96233918 120.40824795 5.88221836 C121.07799601 7.48578741 121.07799601 7.48578741 121.76127434 9.12175179 C123.14955967 12.47764543 124.46838254 15.84876474 125.75677395 19.24414158 C126.44996731 21.04721775 126.44996731 21.04721775 127.15716457 22.8867197 C127.86652574 24.73735543 128.57575821 26.58805716 129.27606106 28.44213963 C129.96967149 30.27513352 130.67558674 32.10345623 131.38177395 33.93164158 C131.7898428 35.00212742 132.19791164 36.07261326 132.61834621 37.17553806 C135.11063837 42.48138239 137.94142949 45.70834351 143.30312538 48.28047371 C149.39725588 50.18241694 155.98668121 49.68162379 162.31707668 49.65307713 C163.9717938 49.66018156 165.62650414 49.66904787 167.28120327 49.67953587 C171.75594239 49.70306985 176.23038917 49.70242414 180.70517516 49.69762111 C185.38926563 49.6970267 190.07324007 49.71973152 194.75727749 49.74018955 C203.62044283 49.77555594 212.48352623 49.79161053 221.34675413 49.79996473 C234.37791502 49.8129493 247.40900827 49.8511591 260.44010162 49.89406395 C261.87143965 49.89877198 261.87143965 49.89877198 263.33169359 49.90357512 C265.23333108 49.90985433 267.13496836 49.91619787 269.03660542 49.92260772 C274.61772905 49.94071054 280.19881213 49.95178887 285.77996242 49.95690477 C289.2402042 49.96072413 292.70043114 49.96833135 296.16066456 49.97671223 C297.77119375 49.9796834 299.38172721 49.9809059 300.99225903 49.98029995 C303.18104716 49.9796377 305.36974081 49.98494838 307.5585165 49.99174595 C308.78609393 49.99300323 310.01367136 49.9942605 311.2784481 49.99555588 C314.0028677 50.12304783 314.0028677 50.12304783 315.0028677 51.12304783 C315.12729932 52.6397259 315.1834823 54.16208081 315.21160793 55.6835947 C315.23089855 56.65550755 315.25018917 57.62742039 315.27006435 58.62878513 C315.32777489 63.10795669 315.37715205 67.58696241 315.407897 72.0664072 C315.42941473 74.42332765 315.4634426 76.78016955 315.51043606 79.1367197 C315.57768265 82.53877488 315.60494492 85.93917023 315.62396145 89.34179783 C315.65179211 90.38589817 315.67962276 91.42999851 315.70829678 92.50573826 C315.69008601 99.05050749 314.54013406 102.94024422 310.51135159 108.1400919 C306.18742001 113.82405435 304.6578455 120.30500253 303.28167629 127.17968845 C302.31148441 131.70137547 301.29979344 136.07472807 299.0028677 140.12304783 C294.1935808 143.1452151 289.51763263 143.48373536 284.0028677 144.12304783 C269.24010329 148.66404522 255.00123793 158.79243077 247.0028677 172.12304783 C246.4459927 171.92968845 245.8891177 171.73632908 245.3153677 171.53711033 C244.5522427 171.2767197 243.7891177 171.01632908 243.0028677 170.74804783 C242.2603677 170.49281345 241.5178677 170.23757908 240.7528677 169.97461033 C225.47550593 165.24383637 209.47758528 165.13557961 195.04583645 172.66601658 C182.03401031 180.4446322 173.82442492 191.01604564 169.6903677 205.62304783 C167.95944582 214.43501378 168.40319744 223.37854031 170.5653677 232.07226658 C171.0028677 234.12304783 171.0028677 234.12304783 171.0028677 238.12304783 C170.07667629 238.50783298 170.07667629 238.50783298 169.13177395 238.90039158 C156.68326753 244.52779859 149.87844794 253.58970028 145.0028677 266.12304783 C144.3428677 269.09304783 143.6828677 272.06304783 143.0028677 275.12304783 C94.8228677 275.12304783 46.6428677 275.12304783 -2.9971323 275.12304783 C-3.03746365 206.40291028 -3.03746365 206.40291028 -3.04596043 177.77343845 C-3.04791844 171.21980887 -3.04993896 164.66617931 -3.05206394 158.11254978 C-3.05232769 157.29110534 -3.05259144 156.46966091 -3.05286318 155.62332422 C-3.0572181 142.34405346 -3.065105 129.06478702 -3.0742851 115.78551883 C-3.08362103 102.16773484 -3.08918778 88.5499531 -3.0912208 74.93216604 C-3.09259615 66.52237655 -3.0969474 58.11259924 -3.10504877 49.7028135 C-3.11031548 43.9438831 -3.11193677 38.18495904 -3.11063368 32.42602641 C-3.10999018 29.09837654 -3.11154754 25.7707653 -3.11633778 22.44311619 C-3.12126758 18.8438607 -3.12013323 15.24465852 -3.11738682 11.64540195 C-3.12029966 10.58219496 -3.1232125 9.51898797 -3.12621361 8.42356259 C-3.12422256 7.46712115 -3.12223151 6.51067971 -3.12018013 5.5252552 C-3.12055985 4.69328796 -3.12093957 3.86132072 -3.1213308 3.00414234 C-2.94747262 0.37090869 -2.63109489 0.16210769 0 0 Z " fill="#F8D540" transform="translate(31.997132301330566,172.87695217132568)"/>
<path d="M0 0 C73.92 0 147.84 0 224 0 C224 61.38 224 122.76 224 186 C215 190 215 190 213 190 C212.9906543 188.794646 212.98130859 187.58929199 212.97167969 186.34741211 C212.93165484 181.85371636 212.86586151 177.36069625 212.79248047 172.86743164 C212.76434315 170.92676506 212.74309274 168.98598543 212.72900391 167.04516602 C212.70747382 164.24697288 212.66077282 161.45012871 212.609375 158.65234375 C212.60753204 157.36129982 212.60753204 157.36129982 212.60565186 156.04417419 C212.46573768 150.22355154 211.62938761 146.63895051 208 142 C200.46565254 136.79027833 192.38794208 137.4235338 183.578125 137.45410156 C181.91193175 137.44535853 180.24574688 137.4348702 178.57957458 137.42277527 C174.07392647 137.39498395 169.56855325 137.39150906 165.06283188 137.39249516 C160.34757118 137.38936014 155.63243322 137.36372967 150.91723633 137.34051514 C141.99622219 137.29999668 133.07528107 137.27962419 124.15418911 137.26654124 C113.99451842 137.25065713 103.83497174 137.21223554 93.67537308 137.17194796 C72.78362299 137.08960586 51.8918788 137.0354782 31 137 C30.05228728 134.81002113 29.10673761 132.61914835 28.16235352 130.42773438 C27.76574398 129.51214752 27.76574398 129.51214752 27.36112213 128.57806396 C24.18306431 121.19314761 21.43804778 113.64369278 18.70117188 106.0859375 C14.9969073 95.84873973 14.9969073 95.84873973 6.64624023 89.3815918 C0.88289416 87.33557108 -4.97911276 87.52095389 -11.03125 87.48828125 C-12.26290894 87.47033005 -13.49456787 87.45237885 -14.7635498 87.43388367 C-18.67566564 87.37994539 -22.58766058 87.34593674 -26.5 87.3125 C-29.16150393 87.28093107 -31.8229223 87.24482169 -34.484375 87.20898438 C-40.98959918 87.12178842 -47.49428158 87.06157501 -54 87 C-54 76.11 -54 65.22 -54 54 C-50.49761719 53.95101562 -46.99523437 53.90203125 -43.38671875 53.8515625 C-40.00101382 53.79757923 -36.61538067 53.74026126 -33.22973633 53.68261719 C-30.87367076 53.64429398 -28.517546 53.60944706 -26.16137695 53.578125 C-22.77794213 53.53254726 -19.39491592 53.47454048 -16.01171875 53.4140625 C-14.95538742 53.40251129 -13.89905609 53.39096008 -12.81071472 53.37905884 C-11.82992447 53.35918915 -10.84913422 53.33931946 -9.83862305 53.31884766 C-8.97480515 53.30552399 -8.11098724 53.29220032 -7.22099304 53.2784729 C-4.71415113 53.1321786 -4.71415113 53.1321786 -2 51 C3.38000413 34.85998761 -0.354362 17.009376 0 0 Z " fill="#E4E6E6" transform="translate(149,70)"/>
<path d="M0 0 C-1.38678624 7.31434138 -3.0362736 14.53653487 -4.875 21.75 C-5.11863281 22.75160156 -5.36226562 23.75320313 -5.61328125 24.78515625 C-8.71997054 36.9382672 -8.71997054 36.9382672 -14.1875 40.375 C-16.83434609 40.96318802 -18.87366702 41.01243469 -21.5625 40.9375 C-24.40665454 40.89009742 -25.89551059 40.95667512 -28.5625 42.0625 C-30.8195184 45.10456828 -30.51501365 47.33052778 -30 51 C-27.31313219 54.31523471 -25.06618515 55.61144256 -20.97216797 56.66552734 C-19.9527562 56.93537445 -18.93334442 57.20522156 -17.88304138 57.48324585 C-16.20456871 57.90532822 -16.20456871 57.90532822 -14.4921875 58.3359375 C-13.29928604 58.64818268 -12.10638458 58.96042786 -10.87733459 59.28213501 C-7.57382815 60.14462717 -4.26763499 60.99504594 -0.95975876 61.84051514 C4.77254308 63.31014732 10.49686404 64.81089402 16.223032 66.30420685 C18.53691908 66.90703825 20.85128986 67.50798736 23.16569519 68.10882568 C34.52220403 71.06232564 45.84962527 74.11564599 57.16798401 77.21190262 C59.95713338 77.97445449 62.7468313 78.73496337 65.53674316 79.49472046 C66.4537991 79.74447695 67.37085503 79.99423344 68.31570053 80.2515583 C70.16042554 80.7539135 72.00516478 81.25621648 73.84991837 81.75846672 C78.39154765 82.99591394 82.93169605 84.23837317 87.46905518 85.49139404 C91.78183027 86.68213588 96.09816984 87.85902706 100.41729927 89.0265007 C102.00517887 89.45836619 103.59172553 89.89517119 105.17671013 90.33754349 C114.14924292 92.83914528 122.49213607 94.49155038 131.82737732 94.6887207 C136.98670468 95.19492392 140.39792268 97.3753155 144 101 C150.65108018 109.19148186 153.06234633 116.45722121 152 127 C150.07444698 134.37936486 145.33434547 141.14889063 138.9453125 145.3515625 C132.16335289 148.90889226 125.83826345 149.14868455 118.30999756 149.14717102 C117.32793941 149.15084771 116.34588126 149.1545244 115.33406377 149.1583125 C112.04008669 149.1693343 108.74614118 149.17319061 105.45214844 149.17700195 C103.09165853 149.18326765 100.73116961 149.18991454 98.37068176 149.19691467 C91.2862732 149.21612646 84.20186821 149.22673952 77.1174401 149.23564246 C73.7783581 149.24003033 70.43927759 149.24539575 67.10019684 149.25063133 C55.99618738 149.26763807 44.89217889 149.2821322 33.78815842 149.28938007 C30.90906523 149.29128984 28.02997206 149.2932102 25.15087891 149.29516602 C24.07755412 149.29589163 24.07755412 149.29589163 22.982546 149.2966319 C11.39117935 149.30493223 -0.20008411 149.33027164 -11.79140571 149.36274669 C-23.70081022 149.39584012 -35.6101623 149.41383079 -47.51961303 149.41702431 C-54.20281236 149.41918703 -60.8858813 149.42834597 -67.56903839 149.45348549 C-73.85635523 149.47675454 -80.14340116 149.48100391 -86.43074989 149.47072411 C-88.73616499 149.47022839 -91.04159338 149.47655933 -93.3469677 149.49028015 C-96.49899029 149.50798797 -99.6500394 149.50089771 -102.80206299 149.48774719 C-103.71015536 149.49871644 -104.61824772 149.50968568 -105.55385804 149.52098733 C-114.71697416 149.42895343 -121.61224134 146.05068832 -128.2734375 139.8671875 C-134.44875959 133.188898 -135.43476623 126.20614782 -135.3359375 117.390625 C-134.62033218 110.1680039 -131.37224574 104.95244302 -126.125 100.0625 C-117.83079921 93.56205428 -110.47211961 92.8498195 -100 94 C-93.05565528 96.0451277 -87.88321649 99.90652506 -84 106 C-81.64224838 110.33295413 -80.00951857 114.62648982 -78.9375 119.4375 C-78.35791839 123.24057292 -78.35791839 123.24057292 -75 125 C-71.4227467 125.45667063 -69.66541695 125.43777431 -66.625 123.4375 C-64.42649098 120.13973648 -64.34192517 117.77884209 -65 114 C-68.07395568 101.10393742 -74.80810299 91.20803502 -85.79296875 83.7890625 C-90.16672556 81.30842431 -94.29701432 80.5969791 -99.25 79.8125 C-105.39532963 78.54922025 -105.39532963 78.54922025 -107.7890625 76.375 C-111.69403452 68.95836249 -111.17180643 58.00980163 -109.3046875 50.02734375 C-105.5013644 39.68805785 -98.17277974 31.32182013 -88.140625 26.67578125 C-78.04704622 22.94952483 -69.57223423 22.80632525 -59.56640625 26.77734375 C-57.12902171 27.93853303 -54.98323402 29.23966254 -52.75 30.75 C-49.07341928 33.18347453 -46.45772486 33.7715293 -42 33 C-38.84290717 30.30971467 -36.92727401 27.38593189 -34.875 23.8125 C-28.24267249 13.22899866 -13.48612857 0 0 0 Z " fill="#8DB8C3" transform="translate(326,330)"/>
<path d="M0 0 C92.4 0 184.8 0 280 0 C280 6.93 280 13.86 280 21 C277.52023651 21.00364563 275.04047302 21.00729126 272.48556519 21.01104736 C249.14754566 21.04725128 225.80965505 21.10542112 202.47173882 21.18390274 C190.47269336 21.22372373 178.47371379 21.2561007 166.47460938 21.27099609 C156.01702717 21.28399672 145.55958973 21.31092079 135.10208905 21.35461307 C129.56413958 21.37726354 124.02636889 21.39290853 118.48836899 21.39188385 C113.27625773 21.39113936 108.06454223 21.40900525 102.85253334 21.44116783 C100.93935386 21.44968926 99.0261301 21.45140159 97.11293983 21.44580269 C94.50027512 21.43917501 91.88887413 21.45705326 89.27633667 21.48101807 C88.51951501 21.47325765 87.76269335 21.46549723 86.98293769 21.45750165 C79.16534552 21.58441592 74.95537387 25.79532408 69.66894531 31.07226562 C69.17384964 31.56385666 68.67875397 32.05544769 68.1686554 32.56193542 C66.55011265 34.17174804 64.93891102 35.78867883 63.328125 37.40625 C62.1983509 38.53467538 61.06828017 39.66280385 59.93792725 40.79064941 C57.57791287 43.14772471 55.22153 45.50835545 52.86767578 47.87158203 C49.8526916 50.89798622 46.82878161 53.91528738 43.80211258 56.93000031 C41.47021302 59.25467077 39.14310042 61.58408619 36.8174057 63.91496277 C35.70411653 65.02958417 34.58934509 66.14272714 33.47306061 67.25434875 C31.9149716 68.80735245 30.36344756 70.36663402 28.81347656 71.92773438 C27.93000549 72.81279663 27.04653442 73.69785889 26.1362915 74.60974121 C22.96770679 78.15501462 21.76478659 80.66209312 21.68115234 85.40136719 C21.66128265 86.2619574 21.64141296 87.12254761 21.62094116 88.00921631 C21.60361435 89.38910736 21.60361435 89.38910736 21.5859375 90.796875 C21.56657135 91.74564514 21.5472052 92.69441528 21.5272522 93.67193604 C21.46754341 96.69786633 21.42110567 99.72383484 21.375 102.75 C21.33681223 104.80340187 21.29776003 106.85678786 21.2578125 108.91015625 C21.16022418 113.94002084 21.08058628 118.96971927 21 124 C14.07 124 7.14 124 0 124 C0 83.08 0 42.16 0 0 Z " fill="#D4D6D6" transform="translate(58,33)"/>
<path d="M0 0 C0.92108047 -0.0071553 1.84216095 -0.01431061 2.79115295 -0.02168274 C3.80468842 -0.02437164 4.81822388 -0.02706055 5.86247253 -0.02983093 C6.92762589 -0.03640213 7.99277924 -0.04297333 9.09020996 -0.04974365 C12.62652144 -0.06950704 16.16279042 -0.08114552 19.69914246 -0.09111023 C20.90464941 -0.09518576 22.11015636 -0.09926128 23.35219383 -0.10346031 C29.7315949 -0.12433318 36.11097437 -0.13863012 42.49040222 -0.147995 C49.08822721 -0.15906705 55.68571563 -0.19347308 62.28342152 -0.23316669 C67.34914794 -0.25927824 72.41479348 -0.26768195 77.48058128 -0.27127647 C79.91309064 -0.27615589 82.34559608 -0.28780811 84.77803993 -0.30631447 C88.18015548 -0.33059088 91.58139114 -0.32976161 94.98356628 -0.32279968 C95.99102905 -0.33560974 96.99849182 -0.3484198 98.03648376 -0.36161804 C102.38305086 -0.32914847 104.9219251 -0.26559648 108.71920776 1.98904419 C112.33399733 6.09946108 111.79341293 10.6081004 111.82023621 15.79560852 C111.82593628 16.64515106 111.83163635 17.4946936 111.83750916 18.36997986 C111.84695225 20.16711687 111.8534904 21.96427115 111.85734558 23.76142883 C111.86705012 26.50490139 111.89807906 29.24762429 111.92961121 31.99092102 C111.93614171 33.73831241 111.941392 35.48570915 111.94523621 37.23310852 C111.95758301 38.05096832 111.96992981 38.86882812 111.98265076 39.71147156 C111.96469778 44.3221949 111.69930631 47.46193774 108.61711121 51.14717102 C105.68164087 52.93842568 103.48601255 53.39894739 100.06964111 53.40786743 C99.16263962 53.41495224 98.25563812 53.42203705 97.32115173 53.42933655 C96.3335083 53.42685913 95.34586487 53.42438171 94.32829285 53.42182922 C93.28235458 53.42694016 92.23641632 53.43205109 91.15878296 53.43731689 C87.69821973 53.45122721 84.23785533 53.45025505 80.77726746 53.44795227 C78.37357509 53.45183832 75.96988341 53.4561728 73.56619263 53.4609375 C68.5265836 53.46840275 63.48704463 53.46810613 58.44743347 53.46284485 C51.9864689 53.45704898 45.52579088 53.47398283 39.0648737 53.49718952 C34.10036541 53.51191461 29.13592633 53.51280023 24.17140007 53.50967979 C21.78914764 53.51019359 19.4068914 53.51544225 17.02466011 53.52549171 C13.69469147 53.53781514 10.36528362 53.53108868 7.0353241 53.51948547 C6.0497049 53.52712921 5.06408569 53.53477295 4.04859924 53.54264832 C-0.90322399 53.50447199 -4.3836997 53.42063207 -8.38288879 50.14717102 C-11.25326094 46.49544993 -10.70668688 41.87393259 -10.71882629 37.43623352 C-10.72548309 36.5904776 -10.73213989 35.74472168 -10.73899841 34.87333679 C-10.74911003 33.08638174 -10.75381589 31.29938903 -10.75349426 29.5124054 C-10.75786267 26.78845999 -10.79418319 24.06614189 -10.83210754 21.34248352 C-10.83797712 19.6029057 -10.84194557 17.86332022 -10.84382629 16.12373352 C-10.86538284 14.90939133 -10.86538284 14.90939133 -10.88737488 13.67051697 C-10.84491423 8.3747493 -9.90210359 5.34678374 -6.38288879 1.14717102 C-4.03123037 -0.02865819 -2.62215328 0.0139576 0 0 Z " fill="#010000" transform="translate(67.38288879394531,366.8528289794922)"/>
<path d="M0 0 C2.49353634 0.47733772 4.92729428 1.02197954 7.38989258 1.62988281 C8.15140279 1.81381214 8.912913 1.99774147 9.69749928 2.18724442 C18.41691662 4.3118207 27.09046739 6.61012116 35.76171875 8.921875 C37.52637913 9.39044254 39.29109504 9.85880098 41.05586243 10.32696533 C45.66923604 11.55142839 50.28184314 12.77875428 54.89428711 14.00671387 C59.49219685 15.2302377 64.09086372 16.45090868 68.68945312 17.671875 C89.13008324 23.10037898 109.56621248 28.54579951 130 34 C129.41919508 40.4258839 128.30558192 46.41091323 126.63671875 52.63671875 C126.28683647 53.96132866 126.28683647 53.96132866 125.92988586 55.31269836 C125.43816903 57.1648526 124.94302029 59.01609886 124.44458008 60.86645508 C123.68763844 63.68698413 122.94981479 66.51207461 122.21289062 69.33789062 C121.73032128 71.14614186 121.24663534 72.95409556 120.76171875 74.76171875 C120.54488937 75.5993425 120.32806 76.43696625 120.10466003 77.29997253 C118.56966202 82.90554201 116.87775049 88.16143718 111.75 91.4375 C104.63648265 92.89253764 97.71668384 90.15811654 91 88 C91.57234375 86.82824219 92.1446875 85.65648437 92.734375 84.44921875 C95.40115661 78.44190515 97.0607649 72.17484142 98.71972656 65.83325195 C99.25249476 63.80299305 99.80124635 61.77751732 100.3515625 59.75195312 C100.69887565 58.44556708 101.04526279 57.13893441 101.390625 55.83203125 C101.70032227 54.66389893 102.01001953 53.4957666 102.32910156 52.29223633 C103.23707302 47.83663404 103.44291292 44.32873876 102 40 C100.39815374 39.8647597 98.79303374 39.76789153 97.1875 39.6875 C96.29417969 39.62949219 95.40085937 39.57148438 94.48046875 39.51171875 C91.82919292 39.74346403 91.82919292 39.74346403 90.4753418 42.07128906 C88.79368821 45.40955093 87.81673374 48.74336289 86.9140625 52.34765625 C86.53705987 53.77164377 86.15943689 55.19546717 85.78125 56.61914062 C85.19913117 58.84461434 84.62279825 61.07118669 84.05761719 63.30102539 C83.50508985 65.46699935 82.92996333 67.62596997 82.3515625 69.78515625 C82.10909286 70.78060204 82.10909286 70.78060204 81.86172485 71.79615784 C80.61852245 76.35769433 78.93935949 78.43805793 75 81 C70.91718808 83.04140596 65.63655019 81.46582528 61.40625 80.26171875 C59.25538874 79.54363058 57.12795808 78.7825228 55 78 C55.57105469 76.82695312 56.14210938 75.65390625 56.73046875 74.4453125 C59.38953596 68.45156152 61.09645315 62.21022068 62.7746582 55.88818359 C63.31447195 53.86761883 63.87637066 51.85403104 64.43945312 49.83984375 C64.79041883 48.5368229 65.14007447 47.23344833 65.48828125 45.9296875 C65.80321533 44.76679199 66.11814941 43.60389648 66.44262695 42.40576172 C67.0658963 38.59734848 66.91729273 35.74420393 66 32 C62.53001271 29.68667514 61.07490752 29.66042437 57 30 C53.08555734 32.60962844 52.80985836 35.34740739 51.73046875 39.67578125 C51.31240282 41.24168443 50.89376478 42.80743497 50.47460938 44.37304688 C49.8282236 46.83970599 49.18870798 49.30774944 48.56030273 51.77905273 C47.94838323 54.16671051 47.30985988 56.54603343 46.66796875 58.92578125 C46.48960983 59.65928299 46.31125092 60.39278473 46.12748718 61.14851379 C44.65443521 66.52618569 42.67158623 68.90980658 38 72 C31.29720928 72.90885298 25.38902356 70.97308081 19 69 C19.28230469 68.32195312 19.56460938 67.64390625 19.85546875 66.9453125 C23.52889661 57.49219097 26.18513882 47.59996519 28.8125 37.8125 C29.03139893 37.01118652 29.25029785 36.20987305 29.47583008 35.38427734 C30.82984933 30.24194888 31.7249732 26.17491961 30 21 C28.56359829 20.80426392 27.12580496 20.61872184 25.6875 20.4375 C24.88699219 20.33308594 24.08648437 20.22867187 23.26171875 20.12109375 C20.83182884 19.85244822 20.83182884 19.85244822 18 21 C17.07863936 23.12218629 17.07863936 23.12218629 16.51953125 25.7578125 C16.27154785 26.75458008 16.02356445 27.75134766 15.76806641 28.77832031 C15.38787354 30.37305176 15.38787354 30.37305176 15 32 C13.92046027 36.2982779 12.80815284 40.58728477 11.6875 44.875 C11.28241211 46.52628906 11.28241211 46.52628906 10.86914062 48.2109375 C9.14711194 54.67540964 7.89832025 58.54917862 2 62 C-4.52671032 63.78749544 -11.77020344 60.91152104 -18 59 C-17.71157227 58.33129883 -17.42314453 57.66259766 -17.12597656 56.97363281 C-12.58325048 45.8663982 -9.74759011 34.34738369 -6.75 22.75 C-5.94064916 19.63707517 -5.12916694 16.5247409 -4.31378174 13.41339111 C-3.81023026 11.49019716 -3.31039357 9.56602595 -2.81463623 7.64080811 C-2.5906012 6.78190979 -2.36656616 5.92301147 -2.13574219 5.03808594 C-1.93986511 4.28009705 -1.74398804 3.52210815 -1.54217529 2.7411499 C-1 1 -1 1 0 0 Z " fill="#658B96" transform="translate(346,318)"/>
<path d="M0 0 C3.76672795 1.0468156 7.54201098 2.05645781 11.32006836 3.06152344 C13.75620451 3.72342089 16.1917729 4.38741231 18.62670898 5.05371094 C19.73637527 5.35084991 20.84604156 5.64798889 21.98933411 5.95413208 C33.62186843 9.22816882 45.94007964 13.73435244 52.44799805 24.58300781 C56.88929396 32.59021378 59.59247934 39.0878397 59.63842773 48.29589844 C59.65260742 49.58238281 59.66678711 50.86886719 59.68139648 52.19433594 C59.45806914 55.80542555 58.76385805 58.5685151 57.45092773 61.92089844 C51.01452665 61.28244636 44.9971608 59.89177268 38.7590332 58.20874023 C37.19630424 57.79387863 37.19630424 57.79387863 35.602005 57.37063599 C32.17267043 56.45885901 28.74539519 55.53958437 25.31811523 54.62011719 C22.91939415 53.98051729 20.52055803 53.34134868 18.12161255 52.70259094 C13.09576397 51.36325429 8.07083843 50.02052807 3.04663086 48.67504883 C-3.36047027 46.95924302 -9.76904245 45.24901754 -16.17822456 43.54100323 C-22.32576319 41.90252485 -28.47262561 40.26151692 -34.61938477 38.62011719 C-35.77690372 38.31117712 -36.93442268 38.00223705 -38.12701797 37.68393517 C-49.96179252 34.52325466 -61.79167352 31.36024081 -73.54907227 27.92089844 C-71.68993233 16.39423081 -65.96344552 7.49687177 -56.64282227 0.48730469 C-38.80167588 -11.442192 -19.1288423 -5.32711435 0 0 Z " fill="#F2613F" transform="translate(423.549072265625,275.0791015625)"/>
<path d="M0 0 C5.01791684 2.41935276 8.49958655 5.9991731 11 11 C11.70300754 18.6872153 10.47595165 25.13129548 7.95703125 32.3515625 C7.63675964 33.31363113 7.31648804 34.27569977 6.98651123 35.266922 C5.94320735 38.39143596 4.87786275 41.50794681 3.8125 44.625 C2.71518874 47.89441312 1.62362538 51.16571238 0.53208923 54.4370575 C-0.21005127 56.65948061 -0.95415207 58.88125004 -1.70018005 61.10237122 C-5.41420022 72.17185524 -8.94069008 83.29785168 -12.4375 94.4375 C-13.25132559 97.02907879 -14.06555085 99.62052505 -14.8817749 102.21134949 C-15.36060954 103.73158919 -15.83788345 105.25232173 -16.31329346 106.77363586 C-17.88785638 111.77571277 -17.88785638 111.77571277 -19 114 C-21.52121432 113.37650642 -24.04196931 112.75124639 -26.5625 112.125 C-27.61920898 111.86396484 -27.61920898 111.86396484 -28.69726562 111.59765625 C-33.16024998 110.48705185 -37.58487052 109.28798784 -42 108 C-42.13619771 103.10312644 -41.70203826 98.79224448 -40.63671875 94.015625 C-40.41520897 93.00579811 -40.41520897 93.00579811 -40.18922424 91.97557068 C-39.69558906 89.73211579 -39.19172675 87.49109622 -38.6875 85.25 C-38.14679005 82.81538894 -37.60831611 80.38029088 -37.07015991 77.94511414 C-36.68168038 76.18737385 -36.29235364 74.42982062 -35.9022522 72.67243958 C-34.2690354 65.29112645 -32.70899051 57.89551266 -31.16015625 50.49609375 C-30.43091494 47.03469127 -29.7006059 43.57351593 -28.96987915 40.11242676 C-28.49213659 37.83949905 -28.01796099 35.56581853 -27.54745483 33.29138184 C-26.88033256 30.07093008 -26.19938916 26.85367221 -25.515625 23.63671875 C-25.32102188 22.67978622 -25.12641876 21.7228537 -24.92591858 20.73692322 C-23.40376685 13.6708915 -21.48868985 6.99271507 -16 2 C-11.10401499 -1.11947209 -5.57287669 -0.83709413 0 0 Z " fill="#C69A54" transform="translate(462,151)"/>
<path d="M0 0 C1.15624026 -0.00913666 1.15624026 -0.00913666 2.33583891 -0.01845789 C4.92689137 -0.03514877 7.51745566 -0.0303035 10.10855103 -0.0255127 C11.96293145 -0.03284956 13.81730729 -0.04143466 15.67167664 -0.05117798 C20.71510254 -0.07344431 25.75836532 -0.07632206 30.80183363 -0.07443047 C35.00918843 -0.07431099 39.21650838 -0.08286592 43.42385352 -0.09120798 C53.34888688 -0.1104609 63.27383613 -0.11331917 73.19888306 -0.10656738 C83.443542 -0.09992646 93.6878409 -0.12278875 103.93242681 -0.15988111 C112.72232276 -0.19055375 121.51210277 -0.20194074 130.30205119 -0.1980443 C135.55438675 -0.19597409 140.80644228 -0.20149774 146.05872726 -0.22593689 C150.9984061 -0.2481609 155.93749885 -0.24636242 160.8771801 -0.22600937 C162.69082657 -0.22259149 164.50451215 -0.22772181 166.3181057 -0.24199295 C168.79324281 -0.26012665 171.26637928 -0.24748218 173.74145508 -0.22705078 C174.46023374 -0.23956863 175.1790124 -0.25208648 175.91957223 -0.26498365 C179.75298494 -0.1970812 181.41268054 0.32845018 184.47857094 2.70668793 C186.49771118 5.39440918 186.49771118 5.39440918 186.56021118 9.01940918 C185.36346468 12.82083924 184.91341178 13.53280646 181.49771118 15.39440918 C178.87483591 15.6871378 176.4901767 15.80819179 173.86843872 15.78881836 C172.70985847 15.79795501 172.70985847 15.79795501 171.52787256 15.80727625 C168.93759154 15.82393645 166.34780047 15.81912625 163.75747681 15.81433105 C161.90132638 15.82166956 160.04518051 15.83025514 158.18904114 15.83999634 C153.14574153 15.86224197 148.10260516 15.86514156 143.05926323 15.86324883 C138.85176401 15.86312929 134.64429958 15.87168647 130.43681002 15.88002634 C120.51323922 15.89927069 110.58975256 15.90214017 100.66616821 15.89538574 C90.42090062 15.8887409 80.17599268 15.91162484 69.93079805 15.94869947 C61.14004832 15.97935926 52.34941451 15.99076064 43.55861235 15.98686266 C38.30576468 15.98479164 33.05319694 15.99032907 27.80039978 16.01475525 C22.86235217 16.03695894 17.92489109 16.0351979 12.9868412 16.01482773 C11.17277385 16.01140656 9.35866749 16.01655418 7.54465294 16.03081131 C5.07140583 16.04891119 2.6001684 16.03632616 0.12698364 16.01586914 C-0.95453043 16.03464591 -0.95453043 16.03464591 -2.05789328 16.05380201 C-5.7471021 15.98819719 -7.24513703 15.6340988 -9.9830246 13.08213043 C-11.50228882 10.39440918 -11.50228882 10.39440918 -11.43978882 6.76940918 C-9.58994689 0.10997823 -6.41546385 -0.04726109 0 0 Z " fill="#000000" transform="translate(146.50228881835938,133.6055908203125)"/>
<path d="M0 0 C1.74130692 -0.01258347 1.74130692 -0.01258347 3.51779175 -0.02542114 C5.4223967 -0.00856262 5.4223967 -0.00856262 7.36547852 0.00863647 C8.7191708 0.00649006 10.07286129 0.00261154 11.42654419 -0.00286865 C15.10019414 -0.01255976 18.77335785 0.00273797 22.44694901 0.02303743 C26.29144992 0.04061032 30.13593586 0.03708331 33.98046875 0.03631592 C40.43668753 0.03818879 46.89271827 0.05555057 53.34887695 0.08285522 C60.81293821 0.11430593 68.27679352 0.1248514 75.74091625 0.12338412 C82.92131088 0.12216324 90.10163846 0.13237705 97.28201294 0.14896774 C100.33774336 0.1560281 103.39345005 0.15969348 106.44918823 0.16075516 C110.04761154 0.16276488 113.64586209 0.17498125 117.24422836 0.19508743 C119.1947935 0.20371242 121.14539408 0.20259477 123.09597778 0.20120239 C124.8372847 0.21399734 124.8372847 0.21399734 126.61376953 0.22705078 C128.12693504 0.23207831 128.12693504 0.23207831 129.67066956 0.23720741 C132.39126865 0.50271136 134.01084881 1.0411268 136.30688477 2.49447632 C138.18090738 4.99317314 138.30994594 6.34753972 138.24438477 9.49447632 C137.04930312 13.31873757 135.62327407 14.31162488 132.30688477 16.49447632 C129.56603241 16.99784088 129.56603241 16.99784088 126.53820801 17.00241089 C125.38582138 17.01369019 124.23343475 17.02496948 123.04612732 17.03659058 C121.79090775 17.02849365 120.53568817 17.02039673 119.24243164 17.01205444 C117.90006247 17.01747775 116.55769926 17.02460158 115.21534729 17.03329468 C111.57684506 17.05150669 107.93879727 17.04446962 104.30028725 17.03177834 C100.4896079 17.02163951 96.67896703 17.03104646 92.86828613 17.037323 C86.4693301 17.04459686 80.07055883 17.03501867 73.67163086 17.01596069 C66.27733475 16.99419229 58.88347982 17.00124386 51.48919439 17.02326632 C45.13658803 17.04142787 38.78411436 17.04397499 32.43149042 17.03351164 C28.63910346 17.0272808 24.84692376 17.02642962 21.05455017 17.03965759 C17.48880841 17.05122665 13.92363454 17.04317198 10.35795403 17.02008057 C8.42785799 17.01228279 6.49771384 17.02414045 4.56764221 17.03659058 C3.41525558 17.02531128 2.26286896 17.01403198 1.07556152 17.00241089 C0.07637947 17.00090279 -0.92280258 16.99939468 -1.95226288 16.99784088 C-5.45106107 16.35527762 -7.15334667 14.93456625 -9.69311523 12.49447632 C-10.32202148 10.49447632 -10.32202148 10.49447632 -10.25561523 8.49447632 C-10.2569043 7.83447632 -10.25819336 7.17447632 -10.25952148 6.49447632 C-8.75971107 1.19859402 -5.06087221 -0.00546602 0 0 Z " fill="#020202" transform="translate(194.693115234375,169.50552368164063)"/>
<path d="M0 0 C29.7 0 59.4 0 90 0 C90 7.26 90 14.52 90 22 C60.3 22 30.6 22 0 22 C0 14.74 0 7.48 0 0 Z " fill="#E1E3E3" transform="translate(73,382)"/>
<path d="M0 0 C1.12411285 -0.0071553 2.24822571 -0.01431061 3.40640259 -0.02168274 C7.12160905 -0.03858918 10.83561224 -0.01915392 14.55078125 0.00219727 C17.13240662 0.00136876 19.71403193 -0.00108994 22.2956543 -0.00511169 C27.70606741 -0.00797107 33.11603521 0.00621599 38.52636719 0.03417969 C44.77554288 0.0662306 51.02409447 0.0662151 57.27331448 0.04896492 C63.29246104 0.03308393 69.31131775 0.03994109 75.33047485 0.05690193 C77.88855477 0.06208776 80.44665266 0.06159712 83.00473022 0.05535698 C86.57906846 0.04991105 90.15234517 0.07026227 93.7265625 0.09765625 C95.3148436 0.08786743 95.3148436 0.08786743 96.93521118 0.07788086 C101.38835951 0.13595661 104.10682091 0.18605911 108.00073242 2.47694397 C110.38445069 5.23387006 110.78779791 7.00790303 110.86328125 10.63110352 C110.05702213 13.26976972 109.43579826 14.27956609 107.08444881 15.72334385 C104.56218863 16.7541558 102.73171156 16.89029493 100.01210022 16.90525818 C98.55062813 16.92022087 98.55062813 16.92022087 97.05963135 16.93548584 C95.99718201 16.93615051 94.93473267 16.93681519 93.84008789 16.9375 C92.71612106 16.94582352 91.59215424 16.95414703 90.43412781 16.96272278 C86.71386262 16.98684432 82.99377262 16.99559696 79.2734375 17.00219727 C76.69038336 17.01116079 74.10732977 17.02028258 71.52427673 17.02955627 C66.10804633 17.04605391 60.69188662 17.0537811 55.27563477 17.05664062 C49.01907541 17.0602774 42.76300615 17.09018564 36.50659662 17.13204521 C30.48269583 17.17093341 24.45906675 17.18223338 18.43502617 17.18336678 C15.87412289 17.18757862 13.31321954 17.20005123 10.75239754 17.22088432 C7.17311809 17.24768852 3.59519713 17.24300499 0.01586914 17.23046875 C-1.04455597 17.24530304 -2.10498108 17.26013733 -3.19754028 17.27542114 C-10.36712993 17.20378177 -10.36712993 17.20378177 -14.29469299 14.28114319 C-16.13671875 11.63110352 -16.13671875 11.63110352 -16.76171875 8.63110352 C-14.87128616 -0.44297293 -7.6418934 -0.08438419 0 0 Z " fill="#010101" transform="translate(222.13671875,96.368896484375)"/>
<path d="M0 0 C1.875 2.8125 1.875 2.8125 1.875 6.4375 C0.89225902 9.75425082 0.52937047 10.79613374 -2.125 12.8125 C-4.15869141 13.08959961 -4.15869141 13.08959961 -6.4765625 12.96484375 C-7.32863281 12.93712891 -8.18070312 12.90941406 -9.05859375 12.88085938 C-10.82967899 12.7947471 -12.60053389 12.703734 -14.37109375 12.60742188 C-22.92213298 12.34460883 -30.02774725 15.00983338 -36.43359375 20.76171875 C-39.46092113 24.43226581 -41.40511274 28.71077866 -43.44921875 32.984375 C-45.17310699 35.89368755 -45.94123604 36.84734321 -49.125 37.8125 C-52.51478773 37.67414132 -54.41278346 37.42975434 -57 35.1875 C-58.58068674 31.85049465 -58.91585811 29.36819804 -58.125 25.8125 C-53.15489277 13.68479499 -46.2352741 5.3741537 -34.39453125 -0.5546875 C-23.81812171 -4.93885727 -9.91795575 -6.94256902 0 0 Z " fill="#020202" transform="translate(415.125,433.1875)"/>
<path d="M0 0 C7.08104036 5.05788597 13.10794587 10.89428982 16.25 19.1875 C16.25 22.54618755 15.87151362 24.1861725 14.125 27 C11.11176141 28.90838444 8.79595558 29.1875 5.25 29.1875 C2.57240683 27.16297833 0.80831923 24.9848697 -1.109375 22.24609375 C-5.3204011 16.28047344 -9.75412497 12.51945834 -16.75 10.1875 C-19.20612954 10.06610509 -21.66590196 10.01207808 -24.125 10 C-25.43210937 9.98582031 -26.73921875 9.97164063 -28.0859375 9.95703125 C-31.53411303 10.17392076 -33.63410261 10.83511398 -36.75 12.1875 C-40.12079485 12.01314854 -42.71112867 11.75720363 -45.6875 10.125 C-47.4525534 6.90637322 -47.48164529 3.69655606 -46.75 0.1875 C-35.83529976 -12.83972287 -12.2740927 -7.681605 0 0 Z " fill="#010202" transform="translate(320.75,403.8125)"/>
<path d="M0 0 C0 8.58 0 17.16 0 26 C-8.58 26 -17.16 26 -26 26 C-22.46166746 21.87194537 -19.10127913 17.97413195 -15.29296875 14.16015625 C-14.45958984 13.32548828 -13.62621094 12.49082031 -12.76757812 11.63085938 C-11.91615234 10.78330078 -11.06472656 9.93574219 -10.1875 9.0625 C-9.31673828 8.18787109 -8.44597656 7.31324219 -7.54882812 6.41210938 C-6.72189453 5.58646484 -5.89496094 4.76082031 -5.04296875 3.91015625 C-4.29039795 3.15871338 -3.53782715 2.40727051 -2.76245117 1.63305664 C-1 0 -1 0 0 0 Z " fill="#C2D0CF" transform="translate(133,82)"/>
<path d="M0 0 C3.3 0 6.6 0 10 0 C10 9.9 10 19.8 10 30 C6.7 30 3.4 30 0 30 C0 20.1 0 10.2 0 0 Z " fill="#E7B700" transform="translate(389,223)"/>
<path d="M0 0 C2.4375 1.5625 2.4375 1.5625 4 4 C4.56288002 7.94016013 4.60396028 10.05782196 2.4375 13.4375 C-0.91852406 15.58879747 -3.08421671 15.48947291 -7 15 C-9.4375 14 -9.4375 14 -11 12 C-11.56153595 7.57790439 -11.79893062 5.27828899 -9.4375 1.5 C-6.05111671 -0.58392818 -3.90614682 -0.55802097 0 0 Z " fill="#030201" transform="translate(460,160)"/>
</svg>
