<?xml version="1.0" encoding="UTF-8"?>
<svg version="1.1" xmlns="http://www.w3.org/2000/svg" width="512" height="512">
<path d="M0 0 C5.32831629 4.6721197 10.35434861 9.65468684 15.37890625 14.6484375 C16.0219873 15.28676514 16.66506836 15.92509277 17.32763672 16.58276367 C17.94010254 17.19740479 18.55256836 17.8120459 19.18359375 18.4453125 C19.72741699 18.99026367 20.27124023 19.53521484 20.83154297 20.09667969 C22.50390625 21.8984375 22.50390625 21.8984375 24.19961548 24.47380066 C26.30897986 27.15649732 26.30897986 27.15649732 29.50158691 27.51075745 C31.25553772 27.50265297 31.25553772 27.50265297 33.04492188 27.49438477 C33.69257004 27.4984433 34.3402182 27.50250183 35.00749207 27.50668335 C36.40922565 27.51219076 37.81104144 27.50621929 39.21269226 27.49002266 C41.43262587 27.46458629 43.65070424 27.46940299 45.87072754 27.48191833 C50.58199153 27.50265781 55.29268018 27.48298449 60.00390625 27.4609375 C65.4641264 27.4398293 70.92374945 27.43526461 76.38395691 27.46143913 C78.56910024 27.46479983 80.75310236 27.44358121 82.93811035 27.42103577 C84.2797063 27.42354724 85.62130083 27.42710749 86.96289062 27.43188477 C88.13219116 27.42568619 89.3014917 27.41948761 90.50622559 27.4131012 C94.1263984 27.99922143 95.28481037 29.03915535 97.50390625 31.8984375 C98.0703125 33.8984375 98.0703125 33.8984375 98.06640625 35.8984375 C98.08832031 36.5584375 98.11023438 37.2184375 98.1328125 37.8984375 C97.07250954 41.27033262 95.56026668 42.10085025 92.50390625 43.8984375 C88.40254109 44.46300487 84.33616968 44.3629148 80.203125 44.2890625 C79.01161331 44.28340271 77.82010162 44.27774292 76.59248352 44.27191162 C72.79171356 44.24954435 68.99189068 44.19934435 65.19140625 44.1484375 C62.61264383 44.12837309 60.03386662 44.11012222 57.45507812 44.09375 C51.1376984 44.04967821 44.82086999 43.9827612 38.50390625 43.8984375 C39.0197226 44.86646553 39.0197226 44.86646553 39.54595947 45.85404968 C41.12635708 48.82800567 42.69797601 51.8065188 44.26953125 54.78515625 C44.8104541 55.79993042 45.35137695 56.81470459 45.90869141 57.86022949 C56.50390625 77.99839469 56.50390625 77.99839469 56.50390625 85.8984375 C57.60379883 85.87749023 58.70369141 85.85654297 59.83691406 85.83496094 C63.92190506 85.76250115 68.00683939 85.71661635 72.09228516 85.67871094 C73.85963497 85.658609 75.62691838 85.63132278 77.39404297 85.59667969 C79.9360391 85.54809741 82.47715521 85.52545524 85.01953125 85.5078125 C86.20255829 85.47684479 86.20255829 85.47684479 87.40948486 85.44525146 C91.03394957 85.44377261 93.07249446 85.57094888 96.00317383 87.7956543 C98.52953499 91.33551906 97.97833141 93.62861107 97.50390625 97.8984375 C95.69227358 100.57275239 94.62629548 100.85764109 91.50390625 101.8984375 C89.14710412 101.98240907 86.78796544 102.00571937 84.4296875 101.99609375 C83.40393867 101.99397133 83.40393867 101.99397133 82.35746765 101.99180603 C80.17706903 101.98621626 77.99677374 101.97366572 75.81640625 101.9609375 C74.33659003 101.95592117 72.85677219 101.9513585 71.37695312 101.94726562 C67.75257068 101.93625021 64.12824855 101.91899262 60.50390625 101.8984375 C60.65754639 102.97834961 60.81118652 104.05826172 60.96948242 105.17089844 C62.15697469 113.73125843 62.69711545 122.12827546 62.69140625 130.7734375 C62.69205078 131.73008301 62.69269531 132.68672852 62.69335938 133.67236328 C62.63946067 140.49177424 62.63946067 140.49177424 61.50390625 143.8984375 C62.45233398 143.87749023 63.40076172 143.85654297 64.37792969 143.83496094 C67.9040705 143.7667019 71.42950724 143.71659821 74.95605469 143.67871094 C76.4809071 143.65862151 78.00568273 143.63134434 79.53027344 143.59667969 C81.72480223 143.54803954 83.91831094 143.52544354 86.11328125 143.5078125 C87.43295898 143.48686523 88.75263672 143.46591797 90.11230469 143.44433594 C93.50390625 143.8984375 93.50390625 143.8984375 95.93847656 145.70410156 C98.20771988 148.88500595 97.98057844 151.08505995 97.50390625 154.8984375 C96.22267412 157.33277854 95.45372715 158.55795937 92.84277344 159.49389648 C89.65000572 160.04613199 86.57189636 160.00937189 83.33203125 159.99609375 C82.30840485 159.99397133 82.30840485 159.99397133 81.26409912 159.99180603 C79.09398941 159.98622834 76.92398455 159.97368004 74.75390625 159.9609375 C73.27864733 159.95591961 71.80338678 159.95135721 70.328125 159.94726562 C66.72001827 159.93626625 63.1119725 159.91901703 59.50390625 159.8984375 C59.38015625 161.04957031 59.25640625 162.20070313 59.12890625 163.38671875 C57.65315467 175.0620659 53.61465865 186.26539489 49.12890625 197.0859375 C48.77828125 197.95822998 48.42765625 198.83052246 48.06640625 199.72924805 C45.00796135 206.83971988 41.03375807 211.47227213 34.66796875 215.84765625 C31.03563257 217.05395061 28.25598008 216.97602435 24.47265625 216.8059082 C16.61329216 216.44533019 16.61329216 216.44533019 9.46972656 219.2421875 C6.0168911 222.47606266 3.26971843 226.18786878 0.7421875 230.17504883 C-0.49609375 231.8984375 -0.49609375 231.8984375 -2.64819336 233.74487305 C-4.75290667 235.77557398 -4.75290667 235.77557398 -4.74047852 238.640625 C-4.61987061 239.67445313 -4.4992627 240.70828125 -4.375 241.7734375 C-4.18381592 243.50400391 -4.18381592 243.50400391 -3.98876953 245.26953125 C-3.02892503 252.33946618 -1.99289725 259.3916626 -0.86914062 266.4375 C1.66675797 283.19486654 1.66675797 283.19486654 0.50390625 289.8984375 C-1.54876776 291.91335815 -2.58798389 292.8984375 -5.49609375 292.8984375 C-5.03203125 294.8165625 -5.03203125 294.8165625 -4.55859375 296.7734375 C-3.43494542 301.78602472 -2.90186794 306.78354706 -2.49609375 311.8984375 C-1.73296875 312.0015625 -0.96984375 312.1046875 -0.18359375 312.2109375 C2.87401074 312.99311539 3.6352654 313.40520984 5.50390625 315.8984375 C6.15422747 318.3130561 6.62578745 320.56451424 7.00390625 323.0234375 C7.12137207 323.75119385 7.23883789 324.4789502 7.35986328 325.22875977 C7.75944313 327.7828594 8.13191111 330.34017895 8.50390625 332.8984375 C8.65956055 333.91631348 8.81521484 334.93418945 8.97558594 335.98291016 C9.46990078 339.26403595 9.92882229 342.54847358 10.37890625 345.8359375 C10.53552734 346.8770166 10.69214844 347.9180957 10.85351562 348.99072266 C11.88640961 357.04190001 11.28818863 364.54801364 6.31640625 371.2734375 C-0.642189 377.7681264 -7.19103616 378.48699932 -16.4765625 378.43188477 C-18.24394272 378.44480812 -18.24394272 378.44480812 -20.04702759 378.45799255 C-23.926109 378.4806204 -27.80446618 378.47391931 -31.68359375 378.46484375 C-33.70422348 378.46748854 -35.72483567 378.47267972 -37.74545956 378.47814316 C-44.09178177 378.49510308 -50.4378633 378.49161538 -56.78417969 378.47485352 C-63.31459051 378.45792768 -69.84433309 378.47378111 -76.37467098 378.5060764 C-81.99874001 378.5328281 -87.62260172 378.54003361 -93.24672794 378.53156132 C-96.59834911 378.52664908 -99.9492477 378.53087498 -103.3008728 378.54934883 C-107.03961693 378.56679914 -110.77693771 378.55224534 -114.515625 378.52954102 C-115.61508453 378.54123322 -116.71454407 378.55292542 -117.84732056 378.56497192 C-126.05814354 378.46370175 -131.01561652 376.37891473 -136.80859375 370.5859375 C-141.10621904 363.74157129 -141.95168198 357.61043392 -142.0078125 349.7109375 C-142.0257637 348.76782715 -142.0437149 347.8247168 -142.06221008 346.85302734 C-142.11599019 343.86820829 -142.15010464 340.88354615 -142.18359375 337.8984375 C-142.21679536 335.86325957 -142.25128762 333.82810225 -142.28710938 331.79296875 C-142.37169791 326.82823882 -142.43866239 321.86355282 -142.49609375 316.8984375 C-146.27330764 315.6393662 -149.38632538 316.19028574 -153.25 316.67578125 C-154.8443801 316.861508 -156.43878194 317.04704821 -158.03320312 317.23242188 C-160.52088741 317.52949133 -163.00812029 317.82975161 -165.49487305 318.13452148 C-174.46127869 319.22391483 -183.32667578 320.08423087 -192.3671875 320.09765625 C-193.10441544 320.09926254 -193.84164337 320.10086884 -194.60121155 320.1025238 C-204.85424841 319.99669358 -212.09573652 316.51373005 -220.49609375 310.8984375 C-221.38296875 310.3209375 -222.26984375 309.7434375 -223.18359375 309.1484375 C-241.11953429 291.69725211 -239.03577549 266.05692515 -240.49609375 242.8984375 C-241.37346191 242.68227783 -242.25083008 242.46611816 -243.15478516 242.2434082 C-246.43469971 241.42700742 -249.71020134 240.59601477 -252.98388672 239.75512695 C-254.39647476 239.39544467 -255.81053634 239.04149551 -257.22607422 238.69360352 C-259.27083101 238.18997949 -261.30924742 237.66537727 -263.34765625 237.13671875 C-265.18577881 236.6732605 -265.18577881 236.6732605 -267.06103516 236.20043945 C-272.31528307 234.20890398 -275.5573016 231.55697031 -278.37109375 226.5859375 C-281.00210712 217.96206034 -278.94614299 212.66811538 -274.99609375 204.9609375 C-274.28296021 203.51243408 -274.28296021 203.51243408 -273.55541992 202.03466797 C-271.55119077 197.96803358 -269.51449476 193.91804235 -267.47320557 189.86993408 C-265.26724562 185.49392956 -263.07678902 181.11071487 -260.90283203 176.71871948 C-259.82567166 174.55769953 -258.72777789 172.40809721 -257.62890625 170.25805664 C-254.19400323 163.41429947 -251.40080197 157.71108605 -252.49609375 149.8984375 C-252.57895629 148.29345135 -252.65156346 146.68790869 -252.71484375 145.08203125 C-252.80599832 143.49984833 -252.89974908 141.91781286 -252.99609375 140.3359375 C-253.06763672 139.10907227 -253.06763672 139.10907227 -253.140625 137.85742188 C-253.25679256 135.8709566 -253.37610525 133.88467564 -253.49609375 131.8984375 C-254.73875 131.61484375 -255.98140625 131.33125 -257.26171875 131.0390625 C-263.14229888 129.56244106 -266.76978962 126.8113691 -270.80859375 122.3359375 C-278.63362267 106.39606378 -271.21096417 87.65585584 -265.90600586 71.91113281 C-258.46374275 50.99687863 -246.73163995 31.99963973 -231.49609375 15.8984375 C-230.24026548 14.4451201 -228.98990133 12.9870559 -227.74609375 11.5234375 C-221.14153044 4.04028549 -221.14153044 4.04028549 -215.87109375 3.5859375 C-212.49609375 3.8984375 -212.49609375 3.8984375 -209.49609375 4.8984375 C-207.0392245 3.34087434 -207.0392245 3.34087434 -204.55859375 1.1484375 C-203.27662109 0.07335937 -203.27662109 0.07335937 -201.96875 -1.0234375 C-200.74478516 -2.05210937 -200.74478516 -2.05210937 -199.49609375 -3.1015625 C-198.72910156 -3.61460937 -197.96210938 -4.12765625 -197.171875 -4.65625 C-196.61886719 -5.13320312 -196.06585938 -5.61015625 -195.49609375 -6.1015625 C-195.53734375 -7.2153125 -195.57859375 -8.3290625 -195.62109375 -9.4765625 C-195.49609375 -13.1015625 -195.49609375 -13.1015625 -193.09375 -15.51953125 C-189.00551866 -18.67851024 -184.46962724 -20.85464424 -179.80859375 -23.0390625 C-178.88377197 -23.4736377 -177.9589502 -23.90821289 -177.00610352 -24.35595703 C-118.10254906 -51.36284225 -49.26456055 -41.47783033 0 0 Z " fill="#020202" transform="translate(414.49609375,134.1015625)"/>
<path d="M0 0 C9.28659122 1.22406584 18.40147708 2.79493099 27.5625 4.75 C30.09112142 5.28136618 32.61976804 5.81261249 35.1484375 6.34375 C37.07961426 6.75173828 37.07961426 6.75173828 39.04980469 7.16796875 C45.59158995 8.54843103 52.13996792 9.89711013 58.6875 11.25 C59.87351807 11.49588867 61.05953613 11.74177734 62.28149414 11.99511719 C63.40934326 12.22875977 64.53719238 12.46240234 65.69921875 12.703125 C66.767771 12.92669678 67.83632324 13.15026855 68.93725586 13.38061523 C70.92788296 13.78318366 72.92357804 14.1617052 74.92407227 14.51196289 C75.81022217 14.66914795 76.69637207 14.82633301 77.609375 14.98828125 C78.37604492 15.11501221 79.14271484 15.24174316 79.93261719 15.37231445 C84.02956214 16.61620268 86.37959629 19.77221794 89 23 C89.69738281 23.84304688 90.39476562 24.68609375 91.11328125 25.5546875 C92.6441079 27.42129133 94.16601712 29.29523822 95.6796875 31.17578125 C97.88328406 33.85793666 100.16043825 36.43626421 102.5 39 C106.41768842 43.29857479 110.08967142 47.75609805 113.74609375 52.27734375 C116.65602028 55.79245431 119.72395792 59.14653156 122.8046875 62.51171875 C125.04887824 65.05540113 127.118127 67.68796243 129.1875 70.375 C133.73732845 76.1231001 137.84391694 79.01508052 145 81 C147.79910335 81.20128309 150.50206383 81.31083655 153.30029297 81.31884766 C154.11071548 81.32889328 154.921138 81.3389389 155.75611877 81.34928894 C158.41813488 81.38002517 161.08005086 81.39712933 163.7421875 81.4140625 C165.5945013 81.43278185 167.44680664 81.45235583 169.29910278 81.4727478 C174.16189581 81.52399397 179.02471645 81.56365988 183.88763428 81.60089111 C188.8548461 81.64097792 193.82194376 81.69204891 198.7890625 81.7421875 C208.52596138 81.83885779 218.26292483 81.923291 228 82 C226.11362369 85.95460916 223.67116187 88.64925008 220.65625 91.8046875 C213.88375017 100.78144435 217.970015 114.64747319 219.39727783 125.04556274 C219.61212568 126.5723612 219.82866667 128.09892233 220.046875 129.62524414 C220.37787986 131.957794 220.69303152 134.29216512 221.0078125 136.62695312 C221.22039656 138.13555192 221.43390473 139.64402084 221.6484375 141.15234375 C221.78455948 142.18064552 221.78455948 142.18064552 221.9234314 143.22972107 C222.62139344 147.95992843 223.7933272 151.792168 226 156 C227.010625 156.28875 228.02125 156.5775 229.0625 156.875 C232 158 232 158 232.796875 159.7578125 C233.35226536 162.17291907 233.7149275 164.53801026 234 167 C234.10957031 167.92941406 234.21914063 168.85882813 234.33203125 169.81640625 C234.58734348 172.20953287 234.80967838 174.60094588 235 177 C234.195625 177.45375 233.39125 177.9075 232.5625 178.375 C229.91143428 179.74725665 229.91143428 179.74725665 229 182 C228.53394182 191.11191292 230.22089939 199.90108424 231.66601562 208.87109375 C233.50311073 220.87344843 233.50311073 220.87344843 232 226 C228.80609305 228.1292713 227.99670724 228.25269617 224.33154297 228.26742554 C222.89303986 228.28022049 222.89303986 228.28022049 221.42547607 228.29327393 C220.37499084 228.29236755 219.32450562 228.29146118 218.2421875 228.29052734 C217.13466125 228.29724457 216.02713501 228.30396179 214.88604736 228.31088257 C211.21565295 228.32992087 207.54544075 228.33378947 203.875 228.3359375 C201.33056563 228.34236043 198.78613201 228.34908841 196.24169922 228.35610962 C190.90525297 228.36809635 185.568875 228.3718744 180.23242188 228.37060547 C174.06168465 228.36940303 167.89129663 228.39052494 161.72064781 228.4220928 C155.7859435 228.45137314 149.85134619 228.4585823 143.91656494 228.45738602 C141.3903053 228.45975231 138.8640433 228.46863317 136.33782959 228.48405075 C132.81085892 228.5035632 129.28479661 228.49793064 125.7578125 228.48583984 C124.70732727 228.49707886 123.65684204 228.50831787 122.57452393 228.51989746 C121.61552185 228.51150848 120.65651978 228.50311951 119.66845703 228.49447632 C118.83444366 228.49556585 118.0004303 228.49665539 117.1411438 228.49777794 C115 228 115 228 113.23145962 226.10019493 C111.8331692 223.71547812 111.62757856 222.37764607 111.63110352 219.63378906 C111.62422012 218.77899963 111.61733673 217.92421021 111.61024475 217.04351807 C111.61640305 216.12681335 111.62256134 215.21010864 111.62890625 214.265625 C111.61151715 212.30989414 111.59393284 210.35416501 111.57617188 208.3984375 C111.56612153 205.32646398 111.56249743 202.25460643 111.56420898 199.18261719 C111.5606211 196.20993906 111.5332055 193.23814477 111.50390625 190.265625 C111.51208878 189.35701721 111.5202713 188.44840942 111.52870178 187.51226807 C111.45949657 181.53068754 110.39419453 176.9954373 107 172 C101.69032745 166.95581107 97.61478069 165.67175375 90.46484375 165.8046875 C83.11382532 166.21906283 75.80952825 167.13750171 68.5 168 C37.86135182 171.6152513 37.86135182 171.6152513 27.83984375 164.45703125 C21.04469329 158.90659994 15.8470665 151.79813733 14.73617554 142.88267517 C14.54921743 140.40177462 14.41132146 137.92242424 14.2890625 135.4375 C14.17764371 133.57027898 14.06564691 131.70309237 13.953125 129.8359375 C13.78601037 126.91339748 13.62452552 123.99080729 13.47363281 121.06738281 C13.32386077 118.23125353 13.15167301 115.39716214 12.9765625 112.5625 C12.91850937 111.25913696 12.91850937 111.25913696 12.85928345 109.92944336 C12.45258328 103.66504671 10.84301251 99.63198478 6.10546875 95.24609375 C-3.09030914 89.80369459 -15.65169646 88.32991744 -26 86 C-25.48737096 79.9823425 -22.89865365 75.22920088 -20.23046875 69.921875 C-19.7530574 68.9552594 -19.27564606 67.9886438 -18.7837677 66.99273682 C-17.25906158 63.90810018 -15.72399833 60.82877751 -14.1875 57.75 C-12.66312884 54.68483802 -11.14111395 51.61855768 -9.62336731 48.55010986 C-8.68034945 46.64467614 -7.73339858 44.74118181 -6.78178406 42.84002686 C-0.73841596 31.54358659 -0.73841596 31.54358659 1.3125 19.1875 C1.28800781 18.31480469 1.26351562 17.44210937 1.23828125 16.54296875 C1.04517372 13.98967594 1.04517372 13.98967594 0.484375 11.4765625 C-0.26381037 7.65116312 -0.05791836 3.8805303 0 0 Z " fill="#FEDECE" transform="translate(177,269)"/>
<path d="M0 0 C1.67304606 1.50126008 3.33343572 3.01683233 4.9765625 4.55078125 C6.76458185 6.20486656 8.58614362 7.7273913 10.5 9.23046875 C13.07668541 11.49292423 14.38589587 13.5280813 16.0625 16.48046875 C11.33048827 16.67900402 6.60092283 16.82373662 1.86572266 16.91992188 C0.25722005 16.96002932 -1.35099308 17.01453448 -2.95849609 17.08398438 C-16.37608307 17.64893541 -16.37608307 17.64893541 -20.25024414 14.74975586 C-21.82421875 12.6015625 -21.82421875 12.6015625 -22.92456055 10.45092773 C-24.96478898 6.48209579 -28.82569346 4.85107093 -32.9375 3.48046875 C-41.01326075 2.66043649 -47.58331906 2.54803986 -54.16015625 7.6796875 C-56.82475849 10.37942735 -58.35465158 13.03949391 -59.9375 16.48046875 C-74.29997335 17.70861374 -74.29997335 17.70861374 -78.125 14.83984375 C-79.5625 12.73046875 -79.5625 12.73046875 -80.77734375 10.5234375 C-83.02254814 6.56976108 -86.70769341 4.89040428 -90.9375 3.48046875 C-99.01326075 2.66043649 -105.58331906 2.54803986 -112.16015625 7.6796875 C-114.82475849 10.37942735 -116.35465158 13.03949391 -117.9375 16.48046875 C-132.37495721 17.54928168 -132.37495721 17.54928168 -136.11328125 14.9921875 C-137.79255876 12.59958858 -138.9375 10.45262684 -138.9375 7.48046875 C-146.82167449 3.39237828 -154.30526058 1.99112376 -163.1640625 3.98046875 C-168.35112335 5.99131172 -171.55943402 9.57968809 -174.75 13.98046875 C-176.99697542 20.60313314 -177.26135319 28.40428072 -174.4375 34.91796875 C-171.42512436 40.01417414 -166.49974999 43.62638542 -160.9375 45.48046875 C-153.62942704 46.14090201 -146.85911005 46.25468442 -140.9375 41.48046875 C-138.16208276 38.40746848 -135.79105786 35.18758447 -133.9375 31.48046875 C-119.43343694 30.25333298 -119.43343694 30.25333298 -115.9375 33.12109375 C-114.76972663 35.19542802 -113.86105056 37.28913514 -112.9375 39.48046875 C-108.0503808 44.24227721 -103.26004537 45.57794615 -96.5625 45.85546875 C-91.21907722 45.72496453 -87.17425127 44.82916735 -82.9375 41.48046875 C-80.15921271 38.41100725 -77.7906469 35.18676255 -75.9375 31.48046875 C-61.43343694 30.25333298 -61.43343694 30.25333298 -57.9375 33.12109375 C-56.76972663 35.19542802 -55.86105056 37.28913514 -54.9375 39.48046875 C-50.083227 44.21027321 -45.27727452 45.57468541 -38.625 45.91796875 C-32.72602247 45.80545419 -28.6000757 44.03568272 -23.9375 40.48046875 C-21.2603988 37.66608031 -19.62574416 34.93734965 -17.9375 31.48046875 C-11.39149074 31.20046477 -4.84703364 31.00850356 1.70361328 30.8762207 C3.929135 30.82105986 6.15426083 30.74610551 8.37841797 30.65063477 C26.82241586 29.87904022 26.82241586 29.87904022 32.20263672 33.7253418 C34.29891257 36.56639208 35.70787405 39.2285371 37.0625 42.48046875 C37.81940681 43.75475682 38.59035886 45.02094589 39.3828125 46.2734375 C51.0625 68.24237351 51.0625 68.24237351 51.0625 74.48046875 C45.47595844 74.67876238 39.89147838 74.8236388 34.30224609 74.91992188 C32.4027945 74.96006709 30.50358882 75.01459893 28.60498047 75.08398438 C25.86884942 75.1814474 23.13599196 75.22647921 20.3984375 75.26171875 C19.55445404 75.30300903 18.71047058 75.34429932 17.84091187 75.38684082 C14.1644253 75.3896164 11.96454152 75.34585418 9.23760986 72.72973633 C7.63525391 70.58007813 7.63525391 70.58007813 6.29092407 68.43493652 C3.37095355 63.78915628 -0.72149838 61.68416143 -5.9375 60.48046875 C-13.28640166 59.42053101 -18.79502505 61.42975554 -24.9375 65.48046875 C-27.66901203 68.28026858 -29.23410611 71.00760103 -30.9375 74.48046875 C-45.27638821 75.70659696 -45.27638821 75.70659696 -49.16015625 72.83984375 C-50.5893038 70.78187128 -51.76414903 68.69162112 -52.9375 66.48046875 C-57.48295223 62.16228913 -61.97549585 60.44762395 -68.1875 60.04296875 C-73.78833166 60.21297713 -78.48853483 62.09151789 -82.9375 65.48046875 C-84.37575601 67.80389611 -84.37575601 67.80389611 -85.5625 70.29296875 C-86.91015625 72.625 -86.91015625 72.625 -88.9375 74.48046875 C-94.5118707 75.70694656 -99.35765457 75.65205878 -104.9375 74.48046875 C-107.96603767 72.33685769 -108.4758922 71.01268761 -109.9375 67.48046875 C-109.9375 66.82046875 -109.9375 66.16046875 -109.9375 65.48046875 C-116.62850926 61.85617207 -123.23882912 59.16978594 -130.9375 60.48046875 C-135.57281574 61.93207292 -139.76556972 63.52833976 -142.33984375 67.81640625 C-142.94505859 69.04230469 -142.94505859 69.04230469 -143.5625 70.29296875 C-144.9140625 72.6171875 -144.9140625 72.6171875 -146.9375 74.48046875 C-152.55809571 75.83532814 -157.31690429 75.83532814 -162.9375 74.48046875 C-165.1829212 72.41277394 -166.19046012 70.54016774 -167.53515625 67.81640625 C-170.10943028 63.52833976 -174.30218426 61.93207292 -178.9375 60.48046875 C-186.27911392 59.23057415 -192.4664506 61.35050662 -198.6875 65.16796875 C-203.79178054 70.41403486 -205.21778361 75.15852119 -205.5 82.48046875 C-205.29977134 88.72092874 -204.32269739 92.95310785 -199.9375 97.48046875 C-193.88482516 102.75172605 -188.85840734 103.8541177 -181.01171875 103.75 C-175.53733005 103.27003454 -171.84417528 101.59157967 -168.15234375 97.50390625 C-166.17187338 94.92882657 -164.39116743 92.38780362 -162.9375 89.48046875 C-148.41438858 88.25172137 -148.41438858 88.25172137 -145.0078125 91.0859375 C-143.875 93.16796875 -143.875 93.16796875 -142.94140625 95.37109375 C-141.21087989 99.00721917 -138.31478686 100.41657123 -134.9375 102.48046875 C-127.89268577 104.82874016 -120.92702609 103.83651324 -114.20703125 100.89453125 C-109.82177048 98.16223452 -107.21297984 94.03142843 -104.9375 89.48046875 C-90.43343694 88.25333298 -90.43343694 88.25333298 -86.9375 91.12109375 C-85.76987283 93.19516832 -84.86446653 95.29098218 -83.9375 97.48046875 C-78.47862252 102.66640235 -73.23332324 104.00278838 -65.859375 103.86328125 C-59.72559508 103.05965768 -54.72589346 100.31357205 -50.4375 95.91796875 C-49.1400661 93.80963866 -48.02613039 91.69996088 -46.9375 89.48046875 C-32.43343694 88.25333298 -32.43343694 88.25333298 -28.9375 91.12109375 C-27.76987283 93.19516832 -26.86446653 95.29098218 -25.9375 97.48046875 C-20.48346214 102.66180472 -15.22553904 104.02653978 -7.8515625 103.84765625 C-2.92606687 103.22701739 1.22965044 101.64837223 5.0625 98.48046875 C5.90800805 96.9623923 6.74399504 95.43899646 7.57348633 93.91210938 C10.31963351 89.74529749 10.31963351 89.74529749 13.29750061 88.68370056 C15.99722872 88.43932255 18.56600005 88.46654628 21.2734375 88.6015625 C22.24157379 88.61429703 23.20971008 88.62703156 24.20718384 88.64015198 C27.28655093 88.69036767 30.35992872 88.80322735 33.4375 88.91796875 C35.52986252 88.96313115 37.62231785 89.00419267 39.71484375 89.04101562 C44.83302181 89.14002053 49.94674726 89.29520718 55.0625 89.48046875 C57.16200017 98.75300664 57.29932102 107.72331252 57.1875 117.16796875 C57.17744292 118.65949915 57.16832192 120.15103617 57.16015625 121.64257812 C57.13837544 125.25534849 57.1039985 128.86786468 57.0625 132.48046875 C50.62180656 132.68370989 44.18194228 132.82356816 37.73876953 132.91992188 C35.54835106 132.96009521 33.35814635 133.01464694 31.16845703 133.08398438 C28.01541433 133.18130934 24.86521068 133.22645549 21.7109375 133.26171875 C20.73571136 133.30300903 19.76048523 133.34429932 18.75570679 133.38684082 C12.05376251 133.3912402 12.05376251 133.3912402 9.15704346 130.72973633 C7.64859396 128.70790768 6.36675163 126.6365693 5.0625 124.48046875 C-0.07368696 119.60109113 -5.50180436 117.93197088 -12.49609375 118.09765625 C-18.32984277 119.0123881 -23.35074486 121.85404473 -27.4375 126.04296875 C-28.7349339 128.15129884 -29.84886961 130.26097662 -30.9375 132.48046875 C-45.46543952 133.70962462 -45.46543952 133.70962462 -48.90234375 130.83984375 C-50.0625 128.73046875 -50.0625 128.73046875 -51.0078125 126.51953125 C-52.47470375 123.30223196 -54.90928042 122.12075435 -57.9375 120.48046875 C-58.68 120.06796875 -59.4225 119.65546875 -60.1875 119.23046875 C-67.83049199 117.14601639 -73.92733398 118.2348202 -80.8046875 122.05078125 C-83.50320489 123.85967752 -85.23619971 125.71585578 -86.9375 128.48046875 C-87.29070312 129.05152344 -87.64390625 129.62257813 -88.0078125 130.2109375 C-90.29586901 135.7964872 -89.75552849 143.18764519 -88.3203125 148.96484375 C-85.98516687 154.29641518 -81.86969923 157.55355791 -76.9375 160.48046875 C-69.72326906 162.8852124 -62.90576249 161.72330764 -56.06640625 158.68359375 C-52.26682073 156.53630505 -50.50168478 153.81218406 -48.83203125 149.87109375 C-46.9375 147.48046875 -46.9375 147.48046875 -43.3203125 146.7109375 C-41.90194873 146.65822073 -40.48166545 146.6455131 -39.0625 146.66796875 C-38.33232666 146.67352783 -37.60215332 146.67908691 -36.84985352 146.68481445 C-33.675963 146.84442775 -31.48727884 147.01466835 -29.01953125 149.10546875 C-27.875 151.16796875 -27.875 151.16796875 -26.94140625 153.37109375 C-25.21087989 157.00721917 -22.31478686 158.41657123 -18.9375 160.48046875 C-12.95597906 162.47430906 -6.94767059 162.21176658 -1.125 159.79296875 C3.49155306 157.48062119 7.16161434 154.78806433 9.08911133 149.85083008 C11.0625 147.48046875 11.0625 147.48046875 12.99154663 147.04354858 C15.59533929 146.89926587 18.15485544 146.91946601 20.76171875 146.9921875 C22.18699638 147.00279961 22.18699638 147.00279961 23.6410675 147.0136261 C26.67817676 147.04163205 29.71344735 147.10438231 32.75 147.16796875 C34.8079161 147.19304359 36.86586107 147.21585817 38.92382812 147.23632812 C43.97076134 147.2914792 49.01631888 147.37779493 54.0625 147.48046875 C53.18153838 158.05072539 53.18153838 158.05072539 51.609375 162.48046875 C51.17878784 163.71035522 51.17878784 163.71035522 50.73950195 164.96508789 C50.28063599 166.21020142 50.28063599 166.21020142 49.8125 167.48046875 C49.49821045 168.3511499 49.1839209 169.22183105 48.86010742 170.11889648 C42.69565225 186.90261959 42.69565225 186.90261959 37.0625 190.48046875 C34.76542282 190.86916542 34.76542282 190.86916542 32.19354248 190.88833618 C31.21514908 190.90257629 30.23675568 190.91681641 29.22871399 190.93148804 C27.62808357 190.93180527 27.62808357 190.93180527 25.99511719 190.93212891 C24.86621567 190.94381104 23.73731415 190.95549316 22.57420349 190.9675293 C18.83584137 191.00116982 15.09787525 191.01185855 11.359375 191.01953125 C8.76108661 191.03170902 6.16279965 191.04419493 3.56451416 191.05697632 C-1.88622947 191.07946934 -7.33681425 191.08908395 -12.78759766 191.09130859 C-19.07498189 191.09434005 -25.3613805 191.13474403 -31.64847875 191.19245684 C-37.70872435 191.24611568 -43.76842987 191.26089 -49.82894135 191.26142502 C-52.40134365 191.26680744 -54.9737488 191.2836642 -57.54599762 191.31227493 C-61.14903333 191.34900409 -64.74942073 191.34128181 -68.35253906 191.32275391 C-69.41152908 191.3432077 -70.4705191 191.3636615 -71.56159973 191.38473511 C-78.15965303 191.29167759 -81.59157534 190.01941565 -86.28197861 185.32123375 C-86.82830067 184.7137813 -87.37462273 184.10632885 -87.9375 183.48046875 C-88.50652668 182.86828302 -89.07555336 182.2560973 -89.66182327 181.62536049 C-91.21634641 179.92498665 -92.70507797 178.18145442 -94.1875 176.41796875 C-94.73978271 175.77093994 -95.29206543 175.12391113 -95.86108398 174.45727539 C-97.00138712 173.12066526 -98.13933755 171.78204433 -99.27490234 170.44140625 C-101.34526642 167.99953191 -103.43120499 165.57129392 -105.51782227 163.14331055 C-107.99532191 160.25935568 -110.46596549 157.36953551 -112.9375 154.48046875 C-114.52205567 152.62838432 -116.10679089 150.77645529 -117.69213867 148.92504883 C-118.71633858 147.72878462 -119.73995618 146.53202157 -120.76293945 145.3347168 C-124.06034493 141.48140151 -127.40825589 137.67916468 -130.828125 133.93359375 C-131.9375 132.48046875 -131.9375 132.48046875 -131.9375 130.48046875 C-138.86770092 126.72660992 -146.04565941 124.85954229 -153.71875 123.39453125 C-154.64190002 123.21245621 -155.56505005 123.03038116 -156.51617432 122.8427887 C-158.47809346 122.45661113 -160.44061537 122.07348495 -162.40368652 121.69320679 C-165.46469794 121.10019972 -168.5240349 120.4991805 -171.58300781 119.89575195 C-175.5842196 119.10658748 -179.58586781 118.31970853 -183.58789062 117.53466797 C-197.14197982 114.87015587 -210.67872966 112.11500571 -224.10498047 108.86035156 C-227.3874726 108.06592511 -230.67025227 107.3194898 -233.984375 106.671875 C-235.24765625 106.42308594 -236.5109375 106.17429688 -237.8125 105.91796875 C-238.92367187 105.71042969 -240.03484375 105.50289062 -241.1796875 105.2890625 C-244.03269417 104.45255771 -245.1517827 103.80426643 -246.9375 101.48046875 C-250.88791501 93.57963872 -245.09910117 78.93014363 -242.53515625 71.09765625 C-235.42077384 50.33527494 -224.88638549 31.68547782 -209.90625 15.59765625 C-208.24389587 13.8099659 -206.66745893 11.99592146 -205.125 10.10546875 C-202.9375 7.48046875 -202.9375 7.48046875 -200.625 5.48046875 C-198.65091149 3.52221671 -198.65091149 3.52221671 -198.625 0.41796875 C-198.83756069 -2.57653986 -198.83756069 -2.57653986 -199.9375 -5.51953125 C-190.54445876 -14.00664465 -190.54445876 -14.00664465 -185.9375 -16.51953125 C-183.63778762 -16.33306808 -182.56292316 -16.14495441 -180.9375 -14.51953125 C-173.94510461 -13.57897807 -169.03858914 -16.56416757 -162.9375 -19.70703125 C-109.95987414 -45.96172588 -45.02442764 -38.61802636 0 0 Z " fill="#B1CCE9" transform="translate(403.9375,145.51953125)"/>
<path d="M0 0 C1.09828125 0.01160156 1.09828125 0.01160156 2.21875 0.0234375 C6.29325662 1.09787931 8.60229252 3.18410845 10.82666016 6.75439453 C12.30064861 9.47507663 13.69049929 12.22649565 15.0625 15 C16.11261518 17.07001004 17.16475531 19.13899386 18.21875 21.20703125 C18.75628906 22.26615723 19.29382813 23.3252832 19.84765625 24.41650391 C22.97439874 30.48796516 26.28497332 36.45880844 29.57836914 42.44091797 C31.97241703 46.79768333 34.32079962 51.15653862 36.5 55.625 C36.82613281 55.05910156 37.15226562 54.49320313 37.48828125 53.91015625 C37.92527344 53.17667969 38.36226563 52.44320312 38.8125 51.6875 C39.24175781 50.95660156 39.67101562 50.22570313 40.11328125 49.47265625 C41.5 47.625 41.5 47.625 44.5 46.625 C45.86592183 46.53932754 47.23564858 46.50726353 48.60424805 46.51147461 C49.8351844 46.51158791 49.8351844 46.51158791 51.09098816 46.51170349 C51.97232925 46.51686478 52.85367035 46.52202606 53.76171875 46.52734375 C55.12040825 46.52946617 55.12040825 46.52946617 56.50654602 46.53163147 C59.40023091 46.53722999 62.29383849 46.54978219 65.1875 46.5625 C67.14908742 46.56751519 69.11067606 46.57207807 71.07226562 46.57617188 C75.88154021 46.58719893 80.690757 46.60446253 85.5 46.625 C85.47905273 45.92415283 85.45810547 45.22330566 85.43652344 44.5012207 C85.35316952 41.31346081 85.30127861 38.12593048 85.25 34.9375 C85.21648437 33.83470703 85.18296875 32.73191406 85.1484375 31.59570312 C85.04926967 23.38956529 85.04926967 23.38956529 87.390625 19.41796875 C90.70428532 16.60135748 93.00785309 16.4417742 97.33203125 16.19921875 C101.35621935 16.98955479 103.92519623 19.85923716 106.32104492 23.05102539 C106.86865479 23.93266357 107.41626465 24.81430176 107.98046875 25.72265625 C108.89022461 27.17188477 108.89022461 27.17188477 109.81835938 28.65039062 C110.74358398 30.15375977 110.74358398 30.15375977 111.6875 31.6875 C112.31591797 32.69361328 112.94433594 33.69972656 113.59179688 34.73632812 C114.7544072 36.59774808 115.91327328 38.46151572 117.06713867 40.32836914 C118.18080529 42.11338565 119.33294753 43.8744213 120.5 45.625 C123.53910922 46.07095685 123.53910922 46.07095685 127.1171875 45.99609375 C128.45963791 46.01348022 129.80208577 46.03106456 131.14453125 46.04882812 C133.259977 46.05889233 135.37525398 46.06249979 137.49072266 46.06079102 C139.53338838 46.06436795 141.57475369 46.09173771 143.6171875 46.12109375 C145.45192627 46.12387329 145.45192627 46.12387329 147.32373047 46.12670898 C151.06531283 46.71368589 152.22631956 47.65970574 154.5 50.625 C155.06640625 52.625 155.06640625 52.625 155.0625 54.625 C155.08441406 55.285 155.10632813 55.945 155.12890625 56.625 C154.12172987 59.827946 152.28868041 60.83136 149.5 62.625 C146.64928826 63.02761167 144.19379142 63.21040994 141.34765625 63.19140625 C140.18102699 63.20070412 140.18102699 63.20070412 138.99082947 63.21018982 C137.35107673 63.21727194 135.71125185 63.214142 134.0715332 63.20141602 C131.57302425 63.18755837 129.07827057 63.22162716 126.58007812 63.25976562 C124.98176992 63.26071704 123.38345707 63.25885679 121.78515625 63.25390625 C120.67395164 63.27379356 120.67395164 63.27379356 119.54029846 63.29408264 C113.73749513 63.19079979 111.43371126 61.5791278 107.5 57.625 C105.8203125 55.38671875 105.8203125 55.38671875 104.625 53.3125 C104.01011719 52.26642578 104.01011719 52.26642578 103.3828125 51.19921875 C103.09148437 50.67972656 102.80015625 50.16023438 102.5 49.625 C102.2525 50.8625 102.005 52.1 101.75 53.375 C100.81484681 57.14901107 99.62965347 59.17995822 96.5 61.625 C93.06395235 63.34302382 89.11561104 62.7446618 85.3359375 62.72265625 C84.42872955 62.7212413 83.52152161 62.71982635 82.58682251 62.71836853 C79.68284845 62.71276096 76.77895085 62.70020718 73.875 62.6875 C71.90885528 62.68248598 69.94270935 62.6779229 67.9765625 62.67382812 C63.1510121 62.66278906 58.32551903 62.64551935 53.5 62.625 C53.51571045 63.2955542 53.5314209 63.9661084 53.54760742 64.65698242 C53.61014658 67.7087351 53.64905063 70.76035268 53.6875 73.8125 C53.72520508 75.39514648 53.72520508 75.39514648 53.76367188 77.00976562 C53.77333984 78.03134766 53.78300781 79.05292969 53.79296875 80.10546875 C53.8086792 81.04285889 53.82438965 81.98024902 53.84057617 82.94604492 C53.43276193 86.15389125 52.36530088 88.00878203 50.5 90.625 C47.28477863 92.95326375 44.39169575 93.02211181 40.5 92.625 C35.79787522 90.50141448 33.91314934 87.49293632 31.6796875 83.03515625 C31.3387355 82.38236191 30.99778351 81.72956757 30.64649963 81.05699158 C29.54377743 78.93991591 28.45956424 76.81392558 27.375 74.6875 C26.62139694 73.2342348 25.86626308 71.78176241 25.10961914 70.33007812 C23.97561345 68.15410569 22.84247715 65.97774254 21.71430969 63.79873657 C18.5493897 57.68838113 15.27514542 51.64280742 11.9375 45.625 C11.24986572 44.38182007 11.24986572 44.38182007 10.54833984 43.11352539 C9.53443749 41.28279072 8.51763353 39.45366328 7.5 37.625 C7.49589111 38.35090332 7.49178223 39.07680664 7.48754883 39.82470703 C7.4545251 43.13394916 7.38386974 46.44137184 7.3125 49.75 C7.30379883 51.46316406 7.30379883 51.46316406 7.29492188 53.2109375 C7.04621807 62.7169495 7.04621807 62.7169495 4.13671875 66.3671875 C0.51821038 69.46570282 -2.0227859 69.75195793 -6.62646484 69.78613281 C-7.67119965 69.79574036 -8.71593445 69.8053479 -9.79232788 69.81524658 C-10.92046906 69.81949646 -12.04861023 69.82374634 -13.2109375 69.828125 C-14.37122467 69.83382507 -15.53151184 69.83952515 -16.72695923 69.84539795 C-19.18319791 69.85484923 -21.63944928 69.86138243 -24.09570312 69.86523438 C-27.85308941 69.87494338 -31.60992955 69.90596781 -35.3671875 69.9375 C-37.75260092 69.94402973 -40.13801825 69.94928032 -42.5234375 69.953125 C-44.20957657 69.9716452 -44.20957657 69.9716452 -45.92977905 69.99053955 C-46.98081818 69.98753845 -48.0318573 69.98453735 -49.11474609 69.98144531 C-50.03613373 69.98509094 -50.95752136 69.98873657 -51.90682983 69.99249268 C-62.55797292 68.4830595 -70.25904021 54.27767398 -76.27880859 46.27636719 C-78.3911858 43.41988589 -80.44509705 40.52303364 -82.5 37.625 C-82.51401855 38.76714966 -82.51401855 38.76714966 -82.52832031 39.93237305 C-82.58210937 43.3930662 -82.66574184 46.85242018 -82.75 50.3125 C-82.76417969 51.51068359 -82.77835937 52.70886719 -82.79296875 53.94335938 C-82.82519531 55.10029297 -82.85742188 56.25722656 -82.890625 57.44921875 C-82.9220459 59.04382935 -82.9220459 59.04382935 -82.95410156 60.6706543 C-83.62351231 64.29343579 -84.97390711 65.99045179 -87.5 68.625 C-90.19667201 69.973336 -92.31971833 69.77452852 -95.33911133 69.80200195 C-97.17660698 69.82125481 -97.17660698 69.82125481 -99.05122375 69.84089661 C-100.39482215 69.84906433 -101.73842511 69.856508 -103.08203125 69.86328125 C-103.75797522 69.86735678 -104.43391918 69.8714323 -105.1303463 69.87563133 C-108.7087206 69.89649129 -112.28705657 69.91079273 -115.86547852 69.92016602 C-119.55778425 69.93122477 -123.24948636 69.96561761 -126.94157887 70.00533772 C-129.78379927 70.03151139 -132.62587609 70.03985849 -135.46820641 70.04344749 C-136.8289567 70.04831236 -138.18970063 70.05992371 -139.55033302 70.07848549 C-141.45764222 70.10288561 -143.36524517 70.09949125 -145.27270508 70.0949707 C-146.35699295 70.10083694 -147.44128082 70.10670319 -148.5584259 70.11274719 C-152.25594263 69.49965592 -153.86294706 68.25079278 -156.5 65.625 C-157.71020508 63.61035156 -157.71020508 63.61035156 -158.51953125 61.515625 C-158.9690918 60.38447266 -158.9690918 60.38447266 -159.42773438 59.23046875 C-159.71970703 58.45316406 -160.01167969 57.67585938 -160.3125 56.875 C-160.62380859 56.08222656 -160.93511719 55.28945313 -161.25585938 54.47265625 C-162.01710428 52.52855387 -162.76037816 50.57743115 -163.5 48.625 C-163.50586624 49.22333145 -163.51173248 49.8216629 -163.51777649 50.43812561 C-163.58187467 56.68423604 -163.6663365 62.92983905 -163.76245117 69.17553711 C-163.79563748 71.50424495 -163.82368888 73.83303202 -163.84643555 76.16186523 C-163.88009669 79.51580457 -163.93241999 82.86902206 -163.98828125 86.22265625 C-163.99467117 87.25834244 -164.0010611 88.29402863 -164.00764465 89.36109924 C-164.12522824 95.18550977 -164.61476483 99.51316719 -167.5 104.625 C-170.71856197 106.91375518 -172.61858134 107.625 -176.5625 107.625 C-180.73395687 106.20492958 -183.34384019 103.73666677 -185.47891235 99.83706665 C-186.40330896 97.76284786 -187.2398478 95.6719115 -188.05078125 93.55078125 C-188.35445114 92.78573776 -188.65812103 92.02069427 -188.97099304 91.23246765 C-189.60626909 89.62537813 -190.2353947 88.01584504 -190.85864258 86.40405273 C-191.81535949 83.93010574 -192.7896982 81.463696 -193.76757812 78.99804688 C-194.38383731 77.43269473 -194.99910714 75.86695265 -195.61328125 74.30078125 C-195.90382889 73.56120682 -196.19437653 72.82163239 -196.49372864 72.05964661 C-198.5 66.86125482 -198.5 66.86125482 -198.5 64.625 C-199.16 64.625 -199.82 64.625 -200.5 64.625 C-200.83 65.615 -201.16 66.605 -201.5 67.625 C-204.61738353 69.7470815 -207.30634278 69.88640275 -211.01538086 69.91552734 C-212.67246315 69.9346669 -212.67246315 69.9346669 -214.36302185 69.95419312 C-215.55162308 69.95641876 -216.7402243 69.95864441 -217.96484375 69.9609375 C-219.80303429 69.9709227 -219.80303429 69.9709227 -221.67835999 69.98110962 C-224.26985167 69.99123428 -226.86136942 69.9959267 -229.45288086 69.99560547 C-233.41889326 69.99997948 -237.38379381 70.03630606 -241.34960938 70.07421875 C-243.86718369 70.08008668 -246.3847633 70.08405623 -248.90234375 70.0859375 C-250.08892075 70.10030853 -251.27549774 70.11467957 -252.49803162 70.12948608 C-260.63639423 70.08428467 -260.63639423 70.08428467 -264.58032227 67.98681641 C-266.80583913 65.24872024 -268.31838879 62.57170306 -269.8125 59.375 C-270.32425781 58.29734375 -270.83601563 57.2196875 -271.36328125 56.109375 C-271.73839844 55.28953125 -272.11351562 54.4696875 -272.5 53.625 C-272.50879936 54.46612083 -272.50879936 54.46612083 -272.51777649 55.32423401 C-272.58190378 61.1810818 -272.66637255 67.0373899 -272.76245117 72.89379883 C-272.79562552 75.0769945 -272.8236806 77.26027439 -272.84643555 79.44360352 C-272.88011904 82.58906817 -272.93244276 85.73376624 -272.98828125 88.87890625 C-272.99467117 89.8489711 -273.0010611 90.81903595 -273.00764465 91.8184967 C-273.12973458 97.49566296 -273.78586949 101.60379554 -276.5 106.625 C-278.87245374 108.57380129 -280.70080372 108.65975449 -283.75 109.1875 C-293.25586037 107.76162094 -298.75861741 97.67279354 -304.13964844 90.43359375 C-306.51994209 87.26898223 -308.98167902 84.16862008 -311.4375 81.0625 C-316.45563233 74.70666718 -316.45563233 74.70666718 -317.67236328 72.46704102 C-319.98869796 70.13245043 -321.71391092 70.15465544 -324.92112732 70.12194824 C-325.63680374 70.13326782 -326.35248016 70.1445874 -327.08984375 70.15625 C-327.83077774 70.14920044 -328.57171173 70.14215088 -329.33509827 70.1348877 C-332.50247025 70.10537938 -335.66922904 70.12202918 -338.83666992 70.13427734 C-341.15060181 70.13665867 -343.46353573 70.11573616 -345.77734375 70.09375 C-346.84782204 70.11072937 -346.84782204 70.11072937 -347.93992615 70.12805176 C-351.39586395 70.09297373 -353.18270534 69.87189728 -355.94726562 67.72070312 C-357.62064021 65.46217365 -358.06792631 64.40327057 -358.0625 61.625 C-358.08441406 60.965 -358.10632813 60.305 -358.12890625 59.625 C-357.11331149 56.39528251 -355.33117824 55.41573228 -352.5 53.625 C-349.54713533 53.05665054 -346.65591742 53.08738482 -343.65625 53.12890625 C-342.80953735 53.12745102 -341.96282471 53.12599579 -341.0904541 53.12449646 C-339.30522206 53.12615204 -337.51997524 53.13767517 -335.73486328 53.15844727 C-333.00882074 53.1874063 -330.28472409 53.17904872 -327.55859375 53.16601562 C-325.82030309 53.17225356 -324.08201854 53.18064493 -322.34375 53.19140625 C-321.53216431 53.18847061 -320.72057861 53.18553497 -319.88439941 53.18251038 C-315.26434718 53.25918454 -312.26420857 53.6685032 -308.5 56.625 C-306.785821 58.61881669 -305.22520778 60.56849396 -303.6875 62.6875 C-302.89068822 63.76273187 -302.09246191 64.83691664 -301.29296875 65.91015625 C-300.89305222 66.44898941 -300.49313568 66.98782257 -300.08110046 67.54298401 C-298.20370518 70.01516531 -296.26808695 72.43596623 -294.32543945 74.85717773 C-293.60814163 75.75178207 -292.89084381 76.64638641 -292.15180969 77.56809998 C-291.60671249 78.24687698 -291.0616153 78.92565399 -290.5 79.625 C-290.49857498 78.87189041 -290.49714996 78.11878082 -290.49568176 77.34284973 C-290.47783247 70.23618701 -290.43616274 63.13015301 -290.36790943 56.02382374 C-290.33365666 52.37053575 -290.30853229 48.71766514 -290.30444336 45.06420898 C-290.30015645 41.53655715 -290.27166394 38.00984653 -290.22656822 34.48248863 C-290.20730794 32.48571622 -290.21294686 30.48875386 -290.21894836 28.49189758 C-290.05644573 18.39178162 -290.05644573 18.39178162 -287.09838867 15.30200195 C-284.44806183 13.59147907 -283.12130879 12.94504738 -280 13 C-279.2678125 12.98710937 -278.535625 12.97421875 -277.78125 12.9609375 C-273.4620836 14.21822909 -271.34025267 17.19175334 -269.15429688 20.92041016 C-267.71168039 23.67174451 -266.34540832 26.44989249 -265 29.25 C-264.53980469 30.18457031 -264.07960938 31.11914062 -263.60546875 32.08203125 C-254.5 50.67770687 -254.5 50.67770687 -254.5 53.625 C-241.3 53.625 -228.1 53.625 -214.5 53.625 C-214.65776309 45.95120455 -214.65776309 45.95120455 -214.86035156 38.27856445 C-214.94242038 30.37546929 -214.94242038 30.37546929 -212.609375 26.41796875 C-209.29571468 23.60135748 -206.99214691 23.4417742 -202.66796875 23.19921875 C-199.39230125 23.84254804 -197.90984801 25.31774228 -195.5 27.625 C-194.02532845 30.19991756 -192.99311341 32.89882771 -191.94921875 35.671875 C-191.64554886 36.44307678 -191.34187897 37.21427856 -191.02900696 38.0088501 C-190.0678695 40.45904994 -189.1274962 42.91662242 -188.1875 45.375 C-187.53716447 47.04349838 -186.8854859 48.71147394 -186.23242188 50.37890625 C-184.63933366 54.45504807 -183.06481149 58.53792403 -181.5 62.625 C-181.49635437 61.94705887 -181.49270874 61.26911774 -181.48895264 60.57063293 C-181.44713863 53.51378107 -181.37780005 46.45758025 -181.29248047 39.40112305 C-181.26425681 36.76772575 -181.2430493 34.13424351 -181.22900391 31.50073242 C-181.2075948 27.71488923 -181.16095135 23.93006879 -181.109375 20.14453125 C-181.10814636 18.96727982 -181.10691772 17.79002838 -181.10565186 16.57710266 C-180.95916629 8.39975897 -180.95916629 8.39975897 -178.5847168 4.39331055 C-175.34882376 1.64854263 -172.65131752 1.38422358 -168.5 1.625 C-165.46167733 2.54356267 -164.11010042 3.62588929 -162.45507812 6.33618164 C-157.89050681 15.36805638 -154.35793585 24.83075151 -150.6875 34.25 C-148.315625 40.31375 -145.94375 46.3775 -143.5 52.625 C-121.72 53.12 -121.72 53.12 -99.5 53.625 C-99.61851764 41.67325598 -99.61851764 41.67325598 -99.77026367 29.72192383 C-99.77903042 28.21696614 -99.78667391 26.71200131 -99.79296875 25.20703125 C-99.8159906 24.04705627 -99.8159906 24.04705627 -99.83947754 22.86364746 C-99.84171051 18.2406541 -99.33507148 15.31671178 -96.5 11.625 C-94.16836758 9.29336758 -92.90413889 8.6864994 -89.625 8.1875 C-82.95424947 9.12140507 -79.44166724 13.57776991 -75.55273438 18.66650391 C-74.69131836 19.82158447 -74.69131836 19.82158447 -73.8125 21 C-72.57982596 22.62009524 -71.3467482 24.23988337 -70.11328125 25.859375 C-69.50564941 26.66310547 -68.89801758 27.46683594 -68.27197266 28.29492188 C-65.72312251 31.646565 -63.11453402 34.9495131 -60.5 38.25 C-59.66564115 39.30387641 -58.83227253 40.3585377 -58 41.4140625 C-57.61524002 41.89063293 -57.23048004 42.36720337 -56.83406067 42.85821533 C-55.5 44.625 -55.5 44.625 -54.27157593 46.65341187 C-51.61020532 50.894085 -51.61020532 50.894085 -47.42071533 53.36636353 C-44.9708767 53.64503078 -42.62898479 53.68170748 -40.1640625 53.625 C-39.28471039 53.63587646 -38.40535828 53.64675293 -37.49935913 53.65795898 C-34.70664522 53.68403503 -31.91761402 53.65532834 -29.125 53.625 C-27.22524152 53.6330951 -25.32549471 53.64477528 -23.42578125 53.66015625 C-18.78296278 53.68994808 -14.142665 53.67063439 -9.5 53.625 C-9.51110306 53.04950409 -9.52220612 52.47400818 -9.53364563 51.881073 C-9.64446022 45.87888139 -9.71975846 39.87698141 -9.7746582 33.87402344 C-9.79976693 31.63529655 -9.83386086 29.39665136 -9.87719727 27.15820312 C-9.93800719 23.93599266 -9.96624677 20.71486806 -9.98828125 17.4921875 C-10.01408768 16.49508759 -10.0398941 15.49798767 -10.06648254 14.47067261 C-10.0683142 9.90905725 -10.03410171 6.64458885 -7.11206055 2.99121094 C-4.42570542 0.5576981 -3.54274885 -0.16216808 0 0 Z " fill="#000000" transform="translate(357.5,-0.625)"/>
<path d="M0 0 C-0.95777344 0.40089844 -1.91554688 0.80179687 -2.90234375 1.21484375 C-25.44525874 10.77668231 -44.57534114 22.67236675 -62 40 C-62.71663818 40.7105957 -62.71663818 40.7105957 -63.44775391 41.43554688 C-88.81265017 66.9491852 -104.97269736 102.30493907 -108 138 C-112.18718168 138.10225108 -115.82101979 138.06418262 -119.8125 136.75 C-120.93591797 136.40195312 -120.93591797 136.40195312 -122.08203125 136.046875 C-124.56214641 134.69316652 -125.11899436 133.66669988 -126 131 C-127.04641589 101.15223251 -107.59896548 68.198933 -87.96875 47.1171875 C-86.30639587 45.32949715 -84.72995893 43.51545271 -83.1875 41.625 C-81 39 -81 39 -78.6875 37 C-76.71341149 35.04174796 -76.71341149 35.04174796 -76.6875 31.9375 C-76.90006069 28.94299139 -76.90006069 28.94299139 -78 26 C-68.60695876 17.5128866 -68.60695876 17.5128866 -64 15 C-61.70028762 15.18646317 -60.62542316 15.37457684 -59 17 C-52.00796429 17.9405048 -47.10060206 14.9559036 -41 11.8125 C-10.57914731 -3.29553573 -10.57914731 -3.29553573 0 0 Z " fill="#81ACE0" transform="translate(282,114)"/>
<path d="M0 0 C2.22941405 0.31073024 4.45852212 0.62365625 6.6875 0.9375 C7.92886719 1.11152344 9.17023438 1.28554688 10.44921875 1.46484375 C13.32474548 1.89822897 16.15644813 2.39649282 19 3 C21.49277884 21.70405929 15.83589237 34.57068012 6.88623047 50.55078125 C3.94633595 55.92676232 1.34818279 61.45294856 -1.25 67 C-2.12928019 68.85460699 -3.00941045 70.70881134 -3.890625 72.5625 C-4.25188477 73.32691406 -4.61314453 74.09132813 -4.98535156 74.87890625 C-5.6639542 76.29750581 -6.37615591 77.7004961 -7.12011719 79.0859375 C-8.81803236 82.77951546 -8.24965304 86.25104087 -7 90 C-13.27 88.68 -19.54 87.36 -26 86 C-25.24759025 81.48554148 -24.83609224 79.17244831 -22.93041992 75.34667969 C-22.50294968 74.47847595 -22.07547943 73.61027222 -21.63505554 72.71575928 C-20.93978508 71.33278656 -20.93978508 71.33278656 -20.23046875 69.921875 C-19.7530574 68.9552594 -19.27564606 67.9886438 -18.7837677 66.99273682 C-17.25906158 63.90810018 -15.72399833 60.82877751 -14.1875 57.75 C-12.66312884 54.68483802 -11.14111395 51.61855768 -9.62336731 48.55010986 C-8.68034945 46.64467614 -7.73339858 44.74118181 -6.78178406 42.84002686 C-0.73841596 31.54358659 -0.73841596 31.54358659 1.3125 19.1875 C1.28800781 18.31480469 1.26351562 17.44210937 1.23828125 16.54296875 C1.04517372 13.98967594 1.04517372 13.98967594 0.484375 11.4765625 C-0.00479007 8.97550886 -0.10046281 6.73100837 -0.0625 4.1875 C-0.05347656 3.39730469 -0.04445312 2.60710937 -0.03515625 1.79296875 C-0.02355469 1.20128906 -0.01195312 0.60960937 0 0 Z " fill="#FCCCBD" transform="translate(177,269)"/>
<path d="M0 0 C2.73191981 0.59337178 5.4600447 1.19921283 8.1875 1.8125 C9.34088867 2.0609668 9.34088867 2.0609668 10.51757812 2.31445312 C18.90883976 4.22319504 18.90883976 4.22319504 22 7 C24.68272662 14.07569146 24.58691008 21.76083267 25 29.25 C25.87157068 51.83049567 25.87157068 51.83049567 36.625 71.125 C38.72074418 72.77953488 40.60970354 73.86032278 43 75 C33.11420507 75.66521237 26.46650532 74.05301462 18.75 67.75 C10.45907468 60.03712724 7.83269408 51.48685984 7.2890625 40.4375 C7.17764371 38.57027898 7.06564691 36.70309237 6.953125 34.8359375 C6.78601037 31.91339748 6.62452552 28.99080729 6.47363281 26.06738281 C6.32386077 23.23125353 6.15167301 20.39716214 5.9765625 17.5625 C5.93786041 16.69359131 5.89915833 15.82468262 5.85928345 14.92944336 C5.49987515 9.39348273 4.45044866 6.35704373 1 2 C0.67 1.34 0.34 0.68 0 0 Z " fill="#FBCBBC" transform="translate(184,364)"/>
<path d="M0 0 C2.64233769 2.19257809 4.46669809 3.93339618 6 7 C6.11239379 8.39779018 6.16649579 9.80052306 6.18945312 11.20263672 C6.20617065 12.07048798 6.22288818 12.93833923 6.2401123 13.83248901 C6.25368774 14.77206451 6.26726318 15.71164001 6.28125 16.6796875 C6.30886414 18.12615158 6.30886414 18.12615158 6.33703613 19.60183716 C6.39589728 22.69282829 6.44864923 25.78387552 6.5 28.875 C6.56767741 32.93501221 6.64139799 36.99484944 6.71875 41.0546875 C6.73232544 41.99021454 6.74590088 42.92574158 6.7598877 43.88961792 C6.77660522 44.7637735 6.79332275 45.63792908 6.81054688 46.53857422 C6.82307495 47.30531464 6.83560303 48.07205505 6.84851074 48.86203003 C7.00091876 51.01296644 7.41265789 52.92913806 8 55 C5.39472895 55.10792837 2.79391689 55.18724878 0.1875 55.25 C-0.55048828 55.28351563 -1.28847656 55.31703125 -2.04882812 55.3515625 C-7.45657388 55.44944025 -7.45657388 55.44944025 -9.70947266 53.58618164 C-11.71395139 49.56926086 -11.44084846 45.66063995 -11.44140625 41.23046875 C-11.45461411 40.27610428 -11.46782196 39.32173981 -11.48143005 38.3384552 C-11.52230858 35.28810743 -11.54397969 32.23805952 -11.5625 29.1875 C-11.5863516 26.14774548 -11.61461152 23.10827079 -11.65428162 20.06867981 C-11.6784682 18.17887592 -11.69346497 16.28892503 -11.69789124 14.39897156 C-11.75872216 9.21872104 -12.31956818 4.9082665 -14 0 C-9.21461441 -1.07671176 -4.72277051 -1.44792758 0 0 Z " fill="#FECDBE" transform="translate(300,442)"/>
<path d="M0 0 C1.9375 1.125 1.9375 1.125 3 3 C3.49573337 6.89504791 3.58016848 9.09493717 1.4375 12.4375 C-1.96719488 14.61999672 -4.03430012 14.63734462 -8 14 C-10.5 11.9375 -10.5 11.9375 -12 9 C-12 5.19715329 -11.7968187 2.98069994 -9.375 0 C-5.91616747 -1.45635054 -3.58701629 -0.91305869 0 0 Z " fill="#F07980" transform="translate(398,221)"/>
<path d="M0 0 C4.93731454 1.46290801 4.93731454 1.46290801 6.375 4 C6.87073337 7.89504791 6.95516848 10.09493717 4.8125 13.4375 C1.40780512 15.61999672 -0.65930012 15.63734462 -4.625 15 C-7.28606976 12.61186047 -8.40349624 10.98446115 -9.1875 7.5 C-8.02254303 2.32241345 -5.23369904 0 0 0 Z " fill="#F07980" transform="translate(365.625,162)"/>
<path d="M0 0 C1.9375 1.125 1.9375 1.125 3 3 C3.50030235 6.93094707 3.5996142 9.1005787 1.375 12.4375 C-1.75683492 14.49791771 -3.31544773 14.6767545 -7 14 C-9.9375 11.9375 -9.9375 11.9375 -12 9 C-12.06625411 5.1572617 -11.81899419 3.00799284 -9.375 0 C-5.91616747 -1.45635054 -3.58701629 -0.91305869 0 0 Z " fill="#F17A81" transform="translate(398,279)"/>
<path d="M0 0 C1.9375 1.125 1.9375 1.125 3 3 C3.50030235 6.93094707 3.5996142 9.1005787 1.375 12.4375 C-1.75683492 14.49791771 -3.31544773 14.6767545 -7 14 C-9.9375 11.9375 -9.9375 11.9375 -12 9 C-12.06625411 5.1572617 -11.81899419 3.00799284 -9.375 0 C-5.91616747 -1.45635054 -3.58701629 -0.91305869 0 0 Z " fill="#F17A80" transform="translate(340,279)"/>
<path d="M0 0 C4.93731454 1.46290801 4.93731454 1.46290801 6.375 4 C6.87530235 7.93094707 6.9746142 10.1005787 4.75 13.4375 C1.61816508 15.49791771 0.05955227 15.6767545 -3.625 15 C-6.6349077 12.70985284 -8.32283903 11.20864386 -9.25 7.5 C-7.96253044 2.35012176 -5.27054522 0 0 0 Z " fill="#F07980" transform="translate(336.625,220)"/>
<path d="M0 0 C3.4375 0.9375 3.4375 0.9375 5.375 2.0625 C7.1087306 5.12202459 6.85895216 7.50567525 6.4375 10.9375 C4.875 13.375 4.875 13.375 2.4375 14.9375 C-0.99987531 15.35963381 -3.38340489 15.54606522 -6.5 13.9375 C-8.22410604 10.69212393 -8.18663468 7.46953487 -7.5625 3.9375 C-5.3173484 0.25545138 -4.33137369 -0.07598901 0 0 Z " fill="#F47B82" transform="translate(307.5625,162.0625)"/>
<path d="M0 0 C3.4375 0.9375 3.4375 0.9375 5.375 2.0625 C7.1087306 5.12202459 6.85895216 7.50567525 6.4375 10.9375 C4.8125 13.375 4.8125 13.375 2.4375 14.9375 C-0.87373632 15.42038863 -2.859049 15.23368989 -5.9375 13.9375 C-8.04380516 11.34512442 -8.12924997 9.16704793 -7.94140625 5.8828125 C-7.5625 3.9375 -7.5625 3.9375 -6 1.375 C-3.5625 -0.0625 -3.5625 -0.0625 0 0 Z " fill="#F57C82" transform="translate(278.5625,220.0625)"/>
<path d="M0 0 C3.4375 0.9375 3.4375 0.9375 5.375 2.0625 C7.1087306 5.12202459 6.85895216 7.50567525 6.4375 10.9375 C4.8125 13.375 4.8125 13.375 2.4375 14.9375 C-1.19882575 15.54355429 -2.84564769 15.40911336 -5.9375 13.375 C-8.18590519 10.00239221 -8.13033945 7.91237617 -7.5625 3.9375 C-5.29401339 0.30792142 -4.30870043 -0.07559124 0 0 Z " fill="#F67C83" transform="translate(220.5625,220.0625)"/>
<path d="M0 0 C4.36689189 1.42398649 4.36689189 1.42398649 5.875 3.9375 C6.37530235 7.86844707 6.4746142 10.0380787 4.25 13.375 C1.15814769 15.40911336 -0.48867425 15.54355429 -4.125 14.9375 C-6.5 13.375 -6.5 13.375 -8.125 10.9375 C-8.6875 7.4375 -8.6875 7.4375 -8.125 3.9375 C-5.45043116 0.79094842 -4.15592269 -0.08311845 0 0 Z " fill="#F67C83" transform="translate(250.125,162.0625)"/>
</svg>
