<?xml version="1.0" encoding="UTF-8"?>
<svg version="1.1" xmlns="http://www.w3.org/2000/svg" width="512" height="512">
<path d="M0 0 C2.58455285 1.89533875 2.96275506 2.88826517 4 6 C4.08961953 8.19275019 4.11758191 10.38818658 4.11352539 12.58276367 C4.11367142 13.24644455 4.11381744 13.91012543 4.1139679 14.59391785 C4.11327182 16.78530152 4.1054937 18.97659995 4.09765625 21.16796875 C4.09579099 22.68825738 4.09436759 24.20854661 4.09336853 25.72883606 C4.08955188 29.72864443 4.07972885 33.72841644 4.06866455 37.72821045 C4.05843213 41.81033842 4.05386698 45.89247227 4.04882812 49.97460938 C4.03810583 57.98308959 4.02103961 65.99154027 4 74 C4.79482788 73.99401794 5.58965576 73.98803589 6.40856934 73.98187256 C16.95204609 73.93551482 16.95204609 73.93551482 22.15625 74.515625 C23.18806396 74.63019043 24.21987793 74.74475586 25.28295898 74.86279297 C26.34458252 74.99057129 27.40620605 75.11834961 28.5 75.25 C29.62929932 75.38422363 30.75859863 75.51844727 31.92211914 75.65673828 C67.75423674 80.10570097 102.10256385 91.14177498 134 108 C134.7204248 108.37882324 135.44084961 108.75764648 136.18310547 109.14794922 C160.70106779 122.13305358 183.74071548 138.96517383 203 159 C205.51850803 161.53502283 208.05226408 164.05085787 210.61328125 166.54296875 C216.56077733 172.36996564 221.99098665 178.33844037 227 185 C227.50934082 185.67063477 228.01868164 186.34126953 228.54345703 187.03222656 C234.92276933 195.44934945 241.17861512 203.95573221 246.9375 212.8125 C247.58404541 213.7708374 247.58404541 213.7708374 248.24365234 214.74853516 C250.01143011 217.54584048 250.98810853 219.59514933 251.0859375 222.92578125 C249.5721246 227.21128754 247.26816903 230.65486695 244.6875 234.375 C244.15133057 235.16156982 243.61516113 235.94813965 243.06274414 236.75854492 C232.26282075 252.47196828 220.76985139 267.75305436 207 281 C204.47675401 283.50686128 201.97226566 286.02851194 199.4921875 288.578125 C193.33114078 294.86791001 186.96696168 300.59413729 180 306 C179.42685059 306.44956055 178.85370117 306.89912109 178.26318359 307.36230469 C151.35403608 328.39686985 121.41023344 344.60100302 88.98681641 355.34130859 C87.68493589 355.77292246 86.38502647 356.21053855 85.08740234 356.65478516 C65.93515739 363.20725996 46.0686311 366.69918837 26 369 C25.19643066 369.09861328 24.39286133 369.19722656 23.56494141 369.29882812 C18.91740482 369.8282826 14.35994764 370.04808847 9.68041992 370.02636719 C8.6128093 370.02256042 7.54519867 370.01875366 6.44523621 370.01483154 C5.63830826 370.00993713 4.83138031 370.00504272 4 370 C4.00999275 371.26120918 4.00999275 371.26120918 4.02018738 372.54789734 C4.08034108 380.47831064 4.12599605 388.40864711 4.15543652 396.33923626 C4.1710811 400.41627944 4.19229708 404.49313383 4.22631836 408.57006836 C4.25895524 412.50581018 4.2768621 416.4413706 4.28463173 420.37723732 C4.2901675 421.87752957 4.30097761 423.37781209 4.31719017 424.87802696 C4.33902272 426.98229672 4.3419646 429.08582044 4.34057617 431.19018555 C4.35056892 432.98555 4.35056892 432.98555 4.36076355 434.81718445 C3.96352562 438.32179308 3.07345844 440.17941359 1 443 C-1.71437679 445.13272462 -3.04826833 444.99745956 -6.5625 444.8125 C-11.10367893 443.73913043 -11.10367893 443.73913043 -13 441 C-14.13502438 437.59492687 -14.12016228 435.00779288 -14.11352539 431.41723633 C-14.11367142 430.75355545 -14.11381744 430.08987457 -14.1139679 429.40608215 C-14.11327182 427.21469848 -14.1054937 425.02340005 -14.09765625 422.83203125 C-14.09579099 421.31174262 -14.09436759 419.79145339 -14.09336853 418.27116394 C-14.08955188 414.27135557 -14.07972885 410.27158356 -14.06866455 406.27178955 C-14.05843213 402.18966158 -14.05386698 398.10752773 -14.04882812 394.02539062 C-14.03810583 386.01691041 -14.02103961 378.00845973 -14 370 C-15.19224182 370.00897308 -15.19224182 370.00897308 -16.40856934 370.01812744 C-26.95204609 370.06448518 -26.95204609 370.06448518 -32.15625 369.484375 C-33.18806396 369.36980957 -34.21987793 369.25524414 -35.28295898 369.13720703 C-36.34458252 369.00942871 -37.40620605 368.88165039 -38.5 368.75 C-40.19394897 368.54866455 -40.19394897 368.54866455 -41.92211914 368.34326172 C-77.75423674 363.89429903 -112.10256385 352.85822502 -144 336 C-144.7204248 335.62117676 -145.44084961 335.24235352 -146.18310547 334.85205078 C-170.70106779 321.86694642 -193.74071548 305.03482617 -213 285 C-215.51850803 282.46497717 -218.05226408 279.94914213 -220.61328125 277.45703125 C-226.56077733 271.63003436 -231.99098665 265.66155963 -237 259 C-237.50934082 258.32936523 -238.01868164 257.65873047 -238.54345703 256.96777344 C-244.92276933 248.55065055 -251.17861512 240.04426779 -256.9375 231.1875 C-257.58404541 230.2291626 -257.58404541 230.2291626 -258.24365234 229.25146484 C-260.01143011 226.45415952 -260.98810853 224.40485067 -261.0859375 221.07421875 C-259.5721246 216.78871246 -257.26816903 213.34513305 -254.6875 209.625 C-254.15133057 208.83843018 -253.61516113 208.05186035 -253.06274414 207.24145508 C-242.26282075 191.52803172 -230.76985139 176.24694564 -217 163 C-214.47675401 160.49313872 -211.97226566 157.97148806 -209.4921875 155.421875 C-203.33114078 149.13208999 -196.96696168 143.40586271 -190 138 C-189.42685059 137.55043945 -188.85370117 137.10087891 -188.26318359 136.63769531 C-161.35403608 115.60313015 -131.41023344 99.39899698 -98.98681641 88.65869141 C-97.68493589 88.22707754 -96.38502647 87.78946145 -95.08740234 87.34521484 C-75.93515739 80.79274004 -56.0686311 77.30081163 -36 75 C-35.19643066 74.90138672 -34.39286133 74.80277344 -33.56494141 74.70117188 C-28.91740482 74.1717174 -24.35994764 73.95191153 -19.68041992 73.97363281 C-18.6128093 73.97743958 -17.54519867 73.98124634 -16.44523621 73.98516846 C-15.63830826 73.99006287 -14.83138031 73.99495728 -14 74 C-14.00999275 72.73879082 -14.00999275 72.73879082 -14.02018738 71.45210266 C-14.08034108 63.52168936 -14.12599605 55.59135289 -14.15543652 47.66076374 C-14.1710811 43.58372056 -14.19229708 39.50686617 -14.22631836 35.42993164 C-14.25895524 31.49418982 -14.2768621 27.5586294 -14.28463173 23.62276268 C-14.2901675 22.12247043 -14.30097761 20.62218791 -14.31719017 19.12197304 C-14.33902272 17.01770328 -14.3419646 14.91417956 -14.34057617 12.80981445 C-14.35056892 11.01445 -14.35056892 11.01445 -14.36076355 9.18281555 C-13.96352562 5.67820692 -13.07345844 3.82058641 -11 1 C-7.44857238 -1.79040742 -4.21638428 -0.99659992 0 0 Z " fill="#14858A" transform="translate(261,34)"/>
<path d="M0 0 C8.26590762 -0.16620458 16.29432491 0.26235481 24.5 1.25 C26.19394897 1.45133545 26.19394897 1.45133545 27.92211914 1.65673828 C63.75423674 6.10570097 98.10256385 17.14177498 130 34 C131.08063721 34.56823486 131.08063721 34.56823486 132.18310547 35.14794922 C156.70106779 48.13305358 179.74071548 64.96517383 199 85 C201.51850803 87.53502283 204.05226408 90.05085787 206.61328125 92.54296875 C212.56077733 98.36996564 217.99098665 104.33844037 223 111 C223.50934082 111.67063477 224.01868164 112.34126953 224.54345703 113.03222656 C230.92276933 121.44934945 237.17861512 129.95573221 242.9375 138.8125 C243.58404541 139.7708374 243.58404541 139.7708374 244.24365234 140.74853516 C246.01143011 143.54584048 246.98810853 145.59514933 247.0859375 148.92578125 C245.5721246 153.21128754 243.26816903 156.65486695 240.6875 160.375 C240.15133057 161.16156982 239.61516113 161.94813965 239.06274414 162.75854492 C228.26282075 178.47196828 216.76985139 193.75305436 203 207 C200.47675401 209.50686128 197.97226566 212.02851194 195.4921875 214.578125 C189.33114078 220.86791001 182.96696168 226.59413729 176 232 C175.42685059 232.44956055 174.85370117 232.89912109 174.26318359 233.36230469 C147.35403608 254.39686985 117.41023344 270.60100302 84.98681641 281.34130859 C83.68493589 281.77292246 82.38502647 282.21053855 81.08740234 282.65478516 C57.36198347 290.77186019 30.53996731 296.3551159 5.375 296.0625 C4.35148437 296.05347656 3.32796875 296.04445313 2.2734375 296.03515625 C1.52320313 296.02355469 0.77296875 296.01195312 0 296 C0 295.34 0 294.68 0 294 C0.62342285 293.89977539 1.2468457 293.79955078 1.88916016 293.69628906 C19.67009818 290.81489684 19.67009818 290.81489684 37 286 C37.63454102 285.78617676 38.26908203 285.57235352 38.92285156 285.35205078 C75.42535323 272.86435284 105.04351051 246.55140102 122 212 C130.070604 194.51805853 134.31282941 175.98608572 137 157 C137.8533342 156.99413376 138.7066684 156.98826752 139.58586121 156.98222351 C147.63421881 156.92428024 155.68229939 156.85219416 163.73038769 156.76428509 C167.86784601 156.71958889 172.00520603 156.68033125 176.14282227 156.65356445 C180.13710423 156.62752376 184.13100779 156.58711632 188.12505531 156.53681374 C189.64759928 156.52015012 191.1702087 156.50863267 192.69283104 156.50238609 C194.82841886 156.49273912 196.96303975 156.46467507 199.09838867 156.43237305 C200.3130632 156.42126999 201.52773773 156.41016693 202.77922058 156.39872742 C206.28578458 155.96462032 208.1906904 155.10647431 211 153 C212.52491998 149.95016004 212.23562548 147.3576631 212 144 C210.16884793 141.38406847 209.09031634 141.03010545 206 140 C203.77722418 139.88199594 201.55116449 139.82305674 199.32543945 139.79467773 C198.652005 139.78477814 197.97857056 139.77487854 197.284729 139.76467896 C195.06094873 139.73311611 192.8371471 139.70832725 190.61328125 139.68359375 C189.07056628 139.66301971 187.5278569 139.64202312 185.9851532 139.62062073 C181.92622398 139.5654465 177.86724427 139.51601675 173.80822754 139.46777344 C169.66572582 139.41752446 165.52329734 139.36185613 161.38085938 139.30664062 C153.25396819 139.19911591 145.1270157 139.09765834 137 139 C136.88822922 138.13708847 136.88822922 138.13708847 136.77420044 137.25674438 C134.76820095 121.62158689 134.76820095 121.62158689 130.875 106.375 C130.5756958 105.42753906 130.2763916 104.48007813 129.96801758 103.50390625 C117.79235644 66.35213145 91.71963066 35.82951299 56.98193359 17.97265625 C39.11308858 9.20331915 19.64510042 4.62111178 0 2 C0 1.34 0 0.68 0 0 Z " fill="#CFEDEE" transform="translate(265,108)"/>
<path d="M0 0 C1.53527344 0.01353516 1.53527344 0.01353516 3.1015625 0.02734375 C3.85179687 0.03894531 4.60203125 0.05054687 5.375 0.0625 C5.375 0.7225 5.375 1.3825 5.375 2.0625 C3.50134766 2.26552734 3.50134766 2.26552734 1.58984375 2.47265625 C-37.78842438 7.16437216 -74.53759301 25.3504528 -99.578125 56.66796875 C-112.15873201 73.03773219 -121.00473544 91.21274744 -126.625 111.0625 C-126.93920898 112.05451416 -127.25341797 113.04652832 -127.57714844 114.06860352 C-128.97555473 118.96105357 -129.57565154 123.96647039 -130.25 129 C-130.3840625 129.97001953 -130.518125 130.94003906 -130.65625 131.93945312 C-130.98366662 134.3132236 -131.30646409 136.68752437 -131.625 139.0625 C-132.4783342 139.06836624 -133.3316684 139.07423248 -134.21086121 139.08027649 C-142.25921881 139.13821976 -150.30729939 139.21030584 -158.35538769 139.29821491 C-162.49284601 139.34291111 -166.63020603 139.38216875 -170.76782227 139.40893555 C-174.76210423 139.43497624 -178.75600779 139.47538368 -182.75005531 139.52568626 C-184.27259928 139.54234988 -185.7952087 139.55386733 -187.31783104 139.56011391 C-189.45341886 139.56976088 -191.58803975 139.59782493 -193.72338867 139.63012695 C-194.9380632 139.64123001 -196.15273773 139.65233307 -197.40422058 139.66377258 C-201.20295175 140.13404952 -203.89769084 141.33519084 -206.625 144.0625 C-206.99866889 148.94986371 -206.99866889 148.94986371 -205.3125 153.4375 C-201.99840205 156.62885358 -198.31646815 156.21215341 -193.95043945 156.26782227 C-193.277005 156.27772186 -192.60357056 156.28762146 -191.909729 156.29782104 C-189.68594873 156.32938389 -187.4621471 156.35417275 -185.23828125 156.37890625 C-183.69556628 156.39948029 -182.1528569 156.42047688 -180.6101532 156.44187927 C-176.55122398 156.4970535 -172.49224427 156.54648325 -168.43322754 156.59472656 C-164.29072582 156.64497554 -160.14829734 156.70064387 -156.00585938 156.75585938 C-147.87896819 156.86338409 -139.7520157 156.96484166 -131.625 157.0625 C-131.45797073 158.04918419 -131.45797073 158.04918419 -131.28756714 159.05580139 C-130.77548737 162.07027962 -130.25887263 165.08396411 -129.7421875 168.09765625 C-129.5671167 169.13233032 -129.3920459 170.16700439 -129.21166992 171.23303223 C-127.86556378 179.05630266 -126.16835151 186.52992584 -123.625 194.0625 C-123.41117676 194.69704102 -123.19735352 195.33158203 -122.97705078 195.98535156 C-110.39402757 232.76649632 -84.13546616 261.71145291 -49.625 279.0625 C-40.90769942 283.29963084 -31.93908663 286.42530687 -22.625 289.0625 C-21.57054687 289.39507812 -20.51609375 289.72765625 -19.4296875 290.0703125 C-14.5543986 291.34169174 -9.67598807 292.01918581 -4.6875 292.6875 C-3.71748047 292.8215625 -2.74746094 292.955625 -1.74804688 293.09375 C0.6257236 293.42116662 3.00002437 293.74396409 5.375 294.0625 C5.375 294.7225 5.375 295.3825 5.375 296.0625 C-2.89090762 296.22870458 -10.91932491 295.80014519 -19.125 294.8125 C-20.81894897 294.61116455 -20.81894897 294.61116455 -22.54711914 294.40576172 C-58.37923674 289.95679903 -92.72756385 278.92072502 -124.625 262.0625 C-125.3454248 261.68367676 -126.06584961 261.30485352 -126.80810547 260.91455078 C-151.32606779 247.92944642 -174.36571548 231.09732617 -193.625 211.0625 C-196.14350803 208.52747717 -198.67726408 206.01164213 -201.23828125 203.51953125 C-207.18577733 197.69253436 -212.61598665 191.72405963 -217.625 185.0625 C-218.13434082 184.39186523 -218.64368164 183.72123047 -219.16845703 183.03027344 C-225.54776933 174.61315055 -231.80361512 166.10676779 -237.5625 157.25 C-238.20904541 156.2916626 -238.20904541 156.2916626 -238.86865234 155.31396484 C-240.63643011 152.51665952 -241.61310853 150.46735067 -241.7109375 147.13671875 C-240.1971246 142.85121246 -237.89316903 139.40763305 -235.3125 135.6875 C-234.77633057 134.90093018 -234.24016113 134.11436035 -233.68774414 133.30395508 C-222.88782075 117.59053172 -211.39485139 102.30944564 -197.625 89.0625 C-195.10175401 86.55563872 -192.59726566 84.03398806 -190.1171875 81.484375 C-183.95614078 75.19458999 -177.59196168 69.46836271 -170.625 64.0625 C-170.05185059 63.61293945 -169.47870117 63.16337891 -168.88818359 62.70019531 C-141.97903608 41.66563015 -112.03523344 25.46149698 -79.61181641 14.72119141 C-78.30993589 14.28957754 -77.01002647 13.85196145 -75.71240234 13.40771484 C-51.98698347 5.29063981 -25.16496731 -0.2926159 0 0 Z " fill="#CFEDEE" transform="translate(241.625,107.9375)"/>
<path d="M0 0 C0.33 0 0.66 0 1 0 C1 22.77 1 45.54 1 69 C-3.37009101 70.456697 -7.47931686 71.5891138 -11.9375 72.625 C-32.56064902 77.87840555 -48.39450119 91.57533178 -59.14453125 109.64453125 C-63.90204901 118.24812652 -66.60689457 126.60644495 -68.421875 136.26171875 C-69 139 -69 139 -70 140 C-71.7589343 140.09632045 -73.52177159 140.1218751 -75.28334045 140.12025452 C-76.42904007 140.12162918 -77.57473969 140.12300385 -78.75515747 140.12442017 C-80.65731522 140.11902725 -80.65731522 140.11902725 -82.59790039 140.11352539 C-83.93793231 140.11324352 -85.27796439 140.11340125 -86.61799622 140.1139679 C-90.26659438 140.11425587 -93.91515995 140.1083592 -97.56375051 140.10139394 C-101.37277516 140.09516034 -105.1818005 140.0945566 -108.99082947 140.09336853 C-116.20857754 140.09025523 -123.42631054 140.08204186 -130.64405197 140.07201904 C-138.85915257 140.06085786 -147.07425388 140.05534744 -155.28936017 140.05032361 C-172.19291551 140.03985925 -189.09645616 140.02225983 -206 140 C-206 139.67 -206 139.34 -206 139 C-183.23 139 -160.46 139 -137 139 C-137 136.36 -137 133.72 -137 131 C-134.50926469 94.35060894 -112.70828673 59.98024595 -86 36 C-69.0659394 21.72482086 -49.20885903 12.05967401 -28 6 C-26.2675 5.443125 -26.2675 5.443125 -24.5 4.875 C-16.43290103 2.85822526 -8.31613608 1.67387702 0 2 C0 1.34 0 0.68 0 0 Z " fill="#41BABD" transform="translate(247,108)"/>
<path d="M0 0 C44.88 0 89.76 0 136 0 C137.79071849 3.58143697 138.54121322 6.13883429 139.3125 10 C143.51925825 28.7106561 153.97431553 45.13256171 169.87109375 56.0546875 C180.41559144 62.61044262 190.54995049 66.88147188 202.74609375 69.30859375 C206 70 206 70 207 71 C207.09425595 73.14743549 207.11742648 75.29801026 207.11352539 77.44750977 C207.11367142 78.12065216 207.11381744 78.79379456 207.1139679 79.48733521 C207.11326878 81.72205784 207.10547652 83.9566981 207.09765625 86.19140625 C207.09579206 87.73697362 207.09436816 89.28254157 207.09336853 90.82810974 C207.0895434 94.90357077 207.07971317 98.97899637 207.06866455 103.05444336 C207.05845032 107.21011882 207.05387089 111.36579999 207.04882812 115.52148438 C207.03809089 123.68100587 207.02101454 131.84049853 207 140 C206.67 139.34 206.34 138.68 206 138 C204.948125 138.04125 203.89625 138.0825 202.8125 138.125 C166.96370135 137.81488928 132.78265 117.23808847 108.20214844 92.57080078 C88.16359742 71.85475065 76.50124361 45.60946126 70.75 17.625 C70.48678955 16.35813354 70.48678955 16.35813354 70.21826172 15.06567383 C70.0585791 14.25251709 69.89889648 13.43936035 69.734375 12.6015625 C69.52119629 11.52382568 69.52119629 11.52382568 69.30371094 10.42431641 C68.91301075 7.30562437 69 4.14306963 69 1 C46.23 1 23.46 1 0 1 C0 0.67 0 0.34 0 0 Z " fill="#41BABD" transform="translate(41,264)"/>
<path d="M0 0 C0.33 0.66 0.66 1.32 1 2 C2.44052734 1.94779297 2.44052734 1.94779297 3.91015625 1.89453125 C8.53832409 1.90033824 12.91735021 2.75592948 17.4375 3.6875 C18.31567383 3.86756592 19.19384766 4.04763184 20.09863281 4.2331543 C46.6756686 9.87078032 71.05070155 21.34887973 91 40 C91.53963379 40.49725586 92.07926758 40.99451172 92.63525391 41.50683594 C113.03772996 60.4678002 126.37658022 84.31803079 134 111 C134.37125 112.155 134.7425 113.31 135.125 114.5 C137.17807019 122.71228076 138 130.52610474 138 139 C160.77 139 183.54 139 207 139 C207 139.33 207 139.66 207 140 C162.12 140 117.24 140 71 140 C69.543303 135.62990899 68.4108862 131.52068314 67.375 127.0625 C62.12159445 106.43935098 48.42466822 90.60549881 30.35546875 79.85546875 C21.75187348 75.09795099 13.39355505 72.39310543 3.73828125 70.578125 C1 70 1 70 0 69 C-0.09425595 66.85256451 -0.11742648 64.70198974 -0.11352539 62.55249023 C-0.11367142 61.87934784 -0.11381744 61.20620544 -0.1139679 60.51266479 C-0.11326878 58.27794216 -0.10547652 56.0433019 -0.09765625 53.80859375 C-0.09579206 52.26302638 -0.09436816 50.71745843 -0.09336853 49.17189026 C-0.0895434 45.09642923 -0.07971317 41.02100363 -0.06866455 36.94555664 C-0.05845032 32.78988118 -0.05387089 28.63420001 -0.04882812 24.47851562 C-0.03809089 16.31899413 -0.02101454 8.15950147 0 0 Z " fill="#41BABD" transform="translate(264,108)"/>
<path d="M0 0 C1.50298346 0.00138269 1.50298346 0.00138269 3.03633022 0.00279331 C4.18202984 0.00141865 5.32772945 0.00004398 6.50814724 -0.00137234 C8.41030499 0.00402058 8.41030499 0.00402058 10.35089016 0.00952244 C11.69092208 0.00980431 13.03095415 0.00964657 14.37098598 0.00907993 C18.01958415 0.00879196 21.66814971 0.01468863 25.31674027 0.02165389 C29.12576493 0.02788749 32.93479026 0.02849123 36.74381924 0.0296793 C43.96156731 0.0327926 51.17930031 0.04100597 58.39704174 0.05102879 C66.61214234 0.06218997 74.82724364 0.06770039 83.04234993 0.07272422 C99.94590528 0.08318858 116.84944593 0.10078799 133.75298977 0.12304783 C133.75298977 0.45304783 133.75298977 0.78304783 133.75298977 1.12304783 C110.98298977 1.12304783 88.21298977 1.12304783 64.75298977 1.12304783 C64.75298977 3.43304783 64.75298977 5.74304783 64.75298977 8.12304783 C64.57063405 9.62875856 64.34277429 11.13021729 64.05377102 12.61914158 C63.89932522 13.416749 63.74487942 14.21435642 63.58575344 15.03613377 C63.41406643 15.86919041 63.24237942 16.70224705 63.06548977 17.56054783 C62.88542385 18.43872166 62.70535793 19.31689548 62.51983547 20.22168064 C56.88220945 46.79871643 45.40411004 71.17374938 26.75298977 91.12304783 C26.25573391 91.66268162 25.75847805 92.20231541 25.24615383 92.75830173 C3.45143867 116.20996528 -24.46573775 129.9699475 -55.62201023 136.37304783 C-56.88887669 136.63625828 -56.88887669 136.63625828 -58.1813364 136.90478611 C-62.96451785 137.84407727 -67.37363392 138.30694882 -72.24701023 138.12304783 C-72.74201023 139.11304783 -72.74201023 139.11304783 -73.24701023 140.12304783 C-73.24701023 117.35304783 -73.24701023 94.58304783 -73.24701023 71.12304783 C-69.66557326 69.33232934 -67.10817594 68.58183461 -63.24701023 67.81054783 C-44.6446087 63.62812869 -27.43254373 53.03410385 -16.87201023 36.88867283 C-10.46310588 25.98121062 -6.16477695 15.25646244 -3.67669773 2.83789158 C-3.02600083 0.24101939 -2.72148049 0.14903015 0 0 Z " fill="#41BABD" transform="translate(337.24701023101807,263.8769521713257)"/>
<path d="M0 0 C0 23.1 0 46.2 0 70 C-23.1 70 -46.2 70 -70 70 C-68.08434911 48.92784018 -58.81519744 30.78451071 -42.5390625 16.94140625 C-30.07784822 7.4133701 -15.90313245 0 0 0 Z " fill="#06494B" transform="translate(248,178)"/>
<path d="M0 0 C21.12030596 2.1120306 39.17619494 11.13860192 53.05859375 27.4609375 C62.5866299 39.92215178 70 54.09686755 70 70 C46.9 70 23.8 70 0 70 C0 46.9 0 23.8 0 0 Z " fill="#06494B" transform="translate(264,178)"/>
<path d="M0 0 C23.1 0 46.2 0 70 0 C70 23.1 70 46.2 70 70 C48.44886093 68.04080554 31.20435512 58.62559883 16.8125 42.4375 C6.74007311 29.87904418 1.59568936 15.95689356 0 0 Z " fill="#06494B" transform="translate(178,264)"/>
<path d="M0 0 C23.1 0 46.2 0 70 0 C67.8879694 21.12030596 58.86139808 39.17619494 42.5390625 53.05859375 C30.13932266 62.53962559 15.89931833 70 0 70 C0 46.9 0 23.8 0 0 Z " fill="#06494B" transform="translate(264,264)"/>
<path d="M0 0 C2.43119623 1.87015094 3.64069173 3.28138345 5 6 C5.11104916 7.76026442 5.15920049 9.52465611 5.17700195 11.28833008 C5.19625481 12.94563896 5.19625481 12.94563896 5.21589661 14.63642883 C5.22328354 15.83535263 5.23067047 17.03427643 5.23828125 18.26953125 C5.246353 19.4978215 5.25442474 20.72611176 5.26274109 21.99162292 C5.27659134 24.5950682 5.28730927 27.1985317 5.29516602 29.80200195 C5.30839491 33.78559721 5.35626517 37.7685828 5.40039062 41.75195312 C5.41051672 44.27863972 5.41903308 46.80533338 5.42578125 49.33203125 C5.44328934 50.52488235 5.46079742 51.71773346 5.47883606 52.94673157 C5.45710549 61.22375988 5.45710549 61.22375988 3.09838867 65.22924805 C-0.1865578 68.00129188 -2.05696082 68.13150967 -6.28833008 68.16113281 C-7.39320267 68.17074036 -8.49807526 68.1803479 -9.63642883 68.19024658 C-11.43481453 68.1966214 -11.43481453 68.1966214 -13.26953125 68.203125 C-14.4978215 68.20882507 -15.72611176 68.21452515 -16.99162292 68.22039795 C-19.59507381 68.2298587 -22.19853672 68.23638618 -24.80200195 68.24023438 C-28.78548148 68.24678795 -32.76859436 68.28094669 -36.75195312 68.3125 C-39.27864276 68.31903039 -41.8053361 68.32428072 -44.33203125 68.328125 C-46.12130791 68.3466452 -46.12130791 68.3466452 -47.94673157 68.36553955 C-49.06106064 68.36253845 -50.17538971 68.35953735 -51.32348633 68.35644531 C-52.7900341 68.36191376 -52.7900341 68.36191376 -54.28620911 68.36749268 C-57.50350569 67.93181691 -59.38705853 66.89689961 -62 65 C-63.59616743 61.80766515 -63.51466114 58.46538503 -63 55 C-61.12984906 52.56880377 -59.71861655 51.35930827 -57 50 C-55.58026727 49.91065594 -54.15642209 49.88241022 -52.73388672 49.88647461 C-51.41274368 49.88658791 -51.41274368 49.88658791 -50.06491089 49.88670349 C-49.11278717 49.89186478 -48.16066345 49.89702606 -47.1796875 49.90234375 C-45.71899338 49.90446617 -45.71899338 49.90446617 -44.22879028 49.90663147 C-41.11082927 49.91224027 -37.9929394 49.92479427 -34.875 49.9375 C-32.76432395 49.94251387 -30.65364678 49.94707697 -28.54296875 49.95117188 C-23.36195479 49.96221255 -18.18098248 49.97895927 -13 50 C-13.01571045 48.69329346 -13.0314209 47.38658691 -13.04760742 46.0402832 C-13.1019672 41.18552836 -13.13637226 36.33080036 -13.16479492 31.47583008 C-13.17986772 29.37584914 -13.20032941 27.2758996 -13.22631836 25.17602539 C-13.26276754 22.15503176 -13.27974159 19.13445489 -13.29296875 16.11328125 C-13.30845261 15.17664139 -13.32393646 14.24000153 -13.33988953 13.27497864 C-13.3411485 8.38262927 -13.27295624 4.93242137 -10 1 C-6.80766515 -0.59616743 -3.46538503 -0.51466114 0 0 Z " fill="#20AAB0" transform="translate(440,377)"/>
<path d="M0 0 C2.43119623 1.87015094 3.64069173 3.28138345 5 6 C5.08934406 7.41973273 5.11758978 8.84357791 5.11352539 10.26611328 C5.11344986 11.14687531 5.11337433 12.02763733 5.11329651 12.93508911 C5.10813522 13.88721283 5.10297394 14.83933655 5.09765625 15.8203125 C5.0962413 16.79410858 5.09482635 17.76790466 5.09336853 18.77120972 C5.08775973 21.88917073 5.07520573 25.0070606 5.0625 28.125 C5.05748613 30.23567605 5.05292303 32.34635322 5.04882812 34.45703125 C5.03778745 39.63804521 5.02104073 44.81901752 5 50 C6.30670654 49.98428955 7.61341309 49.9685791 8.9597168 49.95239258 C13.81447164 49.8980328 18.66919964 49.86362774 23.52416992 49.83520508 C25.62415086 49.82013228 27.7241004 49.79967059 29.82397461 49.77368164 C32.84496824 49.73723246 35.86554511 49.72025841 38.88671875 49.70703125 C39.82335861 49.69154739 40.75999847 49.67606354 41.72502136 49.66011047 C46.61737073 49.6588515 50.06757863 49.72704376 54 53 C55.59616743 56.19233485 55.51466114 59.53461497 55 63 C53.12984906 65.43119623 51.71861655 66.64069173 49 68 C47.23973558 68.11104916 45.47534389 68.15920049 43.71166992 68.17700195 C42.60679733 68.18983719 41.50192474 68.20267242 40.36357117 68.21589661 C39.16464737 68.22328354 37.96572357 68.23067047 36.73046875 68.23828125 C34.88803337 68.25038887 34.88803337 68.25038887 33.00837708 68.26274109 C30.4049318 68.27659134 27.8014683 68.28730927 25.19799805 68.29516602 C21.21440279 68.30839491 17.2314172 68.35626517 13.24804688 68.40039062 C10.72136028 68.41051672 8.19466662 68.41903308 5.66796875 68.42578125 C3.87869209 68.45204338 3.87869209 68.45204338 2.05326843 68.47883606 C-6.22375988 68.45710549 -6.22375988 68.45710549 -10.22924805 66.09838867 C-13.00129188 62.8134422 -13.13150967 60.94303918 -13.16113281 56.71166992 C-13.17074036 55.60679733 -13.1803479 54.50192474 -13.19024658 53.36357117 C-13.19449646 52.16464737 -13.19874634 50.96572357 -13.203125 49.73046875 C-13.20882507 48.5021785 -13.21452515 47.27388824 -13.22039795 46.00837708 C-13.2298587 43.40492619 -13.23638618 40.80146328 -13.24023438 38.19799805 C-13.24678795 34.21451852 -13.28094669 30.23140564 -13.3125 26.24804688 C-13.31903039 23.72135724 -13.32428072 21.1946639 -13.328125 18.66796875 C-13.3404718 17.47511765 -13.3528186 16.28226654 -13.36553955 15.05326843 C-13.36253845 13.93893936 -13.35953735 12.82461029 -13.35644531 11.67651367 C-13.36009094 10.69881516 -13.36373657 9.72111664 -13.36749268 8.71379089 C-12.93181691 5.49649431 -11.89689961 3.61294147 -10 1 C-6.80766515 -0.59616743 -3.46538503 -0.51466114 0 0 Z " fill="#20AAB0" transform="translate(80,377)"/>
<path d="M0 0 C1.65730888 -0.01925285 1.65730888 -0.01925285 3.34809875 -0.03889465 C5.14648445 -0.04997505 5.14648445 -0.04997505 6.98120117 -0.0612793 C8.20949142 -0.06935104 9.43778168 -0.07742279 10.70329285 -0.08573914 C13.30673812 -0.09958939 15.91020162 -0.11030731 18.51367188 -0.11816406 C22.49726713 -0.13139295 26.48025272 -0.17926321 30.46362305 -0.22338867 C32.99030964 -0.23351477 35.5170033 -0.24203113 38.04370117 -0.2487793 C39.83297783 -0.27504143 39.83297783 -0.27504143 41.65840149 -0.30183411 C49.9354298 -0.28010354 49.9354298 -0.28010354 53.94091797 2.07861328 C56.7129618 5.36355975 56.84317959 7.23396277 56.87280273 11.46533203 C56.88241028 12.57020462 56.89201782 13.67507721 56.9019165 14.81343079 C56.90616638 16.01235458 56.91041626 17.21127838 56.91479492 18.4465332 C56.920495 19.67482346 56.92619507 20.90311371 56.93206787 22.16862488 C56.94152862 24.77207576 56.9480561 27.37553868 56.9519043 29.97900391 C56.95845787 33.96248343 56.99261661 37.94559631 57.02416992 41.92895508 C57.03070031 44.45564472 57.03595064 46.98233805 57.03979492 49.5090332 C57.05214172 50.70188431 57.06448853 51.89473541 57.07720947 53.12373352 C57.07420837 54.23806259 57.07120728 55.35239166 57.06811523 56.50048828 C57.07358368 57.96703606 57.07358368 57.96703606 57.0791626 59.46321106 C56.64348683 62.68050764 55.60856953 64.56406049 53.71166992 67.17700195 C50.51933507 68.77316938 47.17705495 68.6916631 43.71166992 68.17700195 C41.2804737 66.30685101 40.0709782 64.8956185 38.71166992 62.17700195 C38.62232586 60.75726922 38.59408014 59.33342404 38.59814453 57.91088867 C38.59822006 57.03012665 38.59829559 56.14936462 38.59837341 55.24191284 C38.6035347 54.28978912 38.60869598 53.33766541 38.61401367 52.35668945 C38.61542862 51.38289337 38.61684357 50.40909729 38.61830139 49.40579224 C38.62391019 46.28783122 38.63646419 43.16994136 38.64916992 40.05200195 C38.65418379 37.9413259 38.65874689 35.83064873 38.6628418 33.7199707 C38.67388248 28.53895674 38.69062919 23.35798443 38.71166992 18.17700195 C37.40496338 18.1927124 36.09825684 18.20842285 34.75195312 18.22460938 C29.89719829 18.27896915 25.04247029 18.31337421 20.1875 18.34179688 C18.08751906 18.35686967 15.98756953 18.37733137 13.88769531 18.40332031 C10.86670168 18.43976949 7.84612481 18.45674355 4.82495117 18.4699707 C3.88831131 18.48545456 2.95167145 18.50093842 1.98664856 18.51689148 C-2.90570081 18.51815045 -6.35590871 18.4499582 -10.28833008 15.17700195 C-11.88449751 11.9846671 -11.80299122 8.64238699 -11.28833008 5.17700195 C-7.9202934 0.79855427 -5.34494952 0.05394869 0 0 Z " fill="#20AAB0" transform="translate(388.288330078125,66.822998046875)"/>
<path d="M0 0 C1.10487259 -0.00960754 2.20974518 -0.01921509 3.34809875 -0.02911377 C5.14648445 -0.03548859 5.14648445 -0.03548859 6.98120117 -0.04199219 C8.20949142 -0.04769226 9.43778168 -0.05339233 10.70329285 -0.05926514 C13.30674373 -0.06872588 15.91020665 -0.07525337 18.51367188 -0.07910156 C22.4971514 -0.08565513 26.48026428 -0.11981388 30.46362305 -0.15136719 C32.99031268 -0.15789758 35.51700602 -0.16314791 38.04370117 -0.16699219 C39.23655228 -0.17933899 40.42940338 -0.19168579 41.65840149 -0.20440674 C42.77273056 -0.20140564 43.88705963 -0.19840454 45.03515625 -0.1953125 C46.01285477 -0.19895813 46.99055328 -0.20260376 47.99787903 -0.20635986 C51.21517561 0.2293159 53.09872846 1.2642332 55.71166992 3.16113281 C57.30783735 6.35346767 57.22633107 9.69574778 56.71166992 13.16113281 C54.84151898 15.59232904 53.43028647 16.80182454 50.71166992 18.16113281 C49.29193719 18.25047687 47.86809201 18.27872259 46.44555664 18.2746582 C45.1244136 18.27454491 45.1244136 18.27454491 43.77658081 18.27442932 C42.82445709 18.26926804 41.87233337 18.26410675 40.89135742 18.25878906 C39.91756134 18.25737411 38.94376526 18.25595917 37.94046021 18.25450134 C34.82249919 18.24889254 31.70460933 18.23633855 28.58666992 18.22363281 C26.47599387 18.21861895 24.3653167 18.21405584 22.25463867 18.20996094 C17.07362471 18.19892026 11.8926524 18.18217355 6.71166992 18.16113281 C6.72738037 19.46783936 6.74309082 20.7745459 6.75927734 22.12084961 C6.81363712 26.97560445 6.84804218 31.83033245 6.87646484 36.68530273 C6.89153764 38.78528367 6.91199933 40.88523321 6.93798828 42.98510742 C6.97443746 46.00610105 6.99141151 49.02667792 7.00463867 52.04785156 C7.02012253 52.98449142 7.03560638 53.92113129 7.05155945 54.88615417 C7.05281842 59.77850354 6.98462617 63.22871145 3.71166992 67.16113281 C0.51933507 68.75730024 -2.82294505 68.67579396 -6.28833008 68.16113281 C-8.7195263 66.29098187 -9.9290218 64.87974936 -11.28833008 62.16113281 C-11.39937923 60.40086839 -11.44753057 58.6364767 -11.46533203 56.87280273 C-11.47816727 55.76793015 -11.4910025 54.66305756 -11.50422668 53.52470398 C-11.51161362 52.32578018 -11.51900055 51.12685638 -11.52661133 49.89160156 C-11.53468307 48.66331131 -11.54275482 47.43502106 -11.55107117 46.16950989 C-11.56492142 43.56606462 -11.57563934 40.96260112 -11.58349609 38.35913086 C-11.59672498 34.37553561 -11.64459524 30.39255001 -11.6887207 26.40917969 C-11.6988468 23.8824931 -11.70736316 21.35579943 -11.71411133 18.82910156 C-11.73161942 17.63625046 -11.7491275 16.44339935 -11.76716614 15.21440125 C-11.74543557 6.93737293 -11.74543557 6.93737293 -9.38671875 2.93188477 C-6.10177228 0.15984093 -4.23136926 0.02962315 0 0 Z " fill="#20AAB0" transform="translate(78.288330078125,66.8388671875)"/>
</svg>
