<?xml version="1.0" encoding="UTF-8"?>
<svg version="1.1" xmlns="http://www.w3.org/2000/svg" width="512" height="512">
<path d="M0 0 C1.10130498 -0.0113502 1.10130498 -0.0113502 2.22485855 -0.0229297 C4.68687691 -0.04219121 7.14735429 -0.02584007 9.60937595 -0.00964832 C11.39148813 -0.01612532 13.17359351 -0.02477883 14.95568568 -0.03542262 C19.85424778 -0.05826594 24.75233571 -0.04984119 29.65091407 -0.03628337 C34.93324091 -0.02704244 40.21547257 -0.04650957 45.49777317 -0.06226063 C55.84664202 -0.0883744 66.1953373 -0.08725208 76.54422658 -0.07622244 C84.95412857 -0.06767051 93.36398028 -0.06848968 101.77388287 -0.07601833 C102.97000492 -0.07707322 104.16612698 -0.07812811 105.39849516 -0.07921496 C107.82826985 -0.08138585 110.25804453 -0.08357262 112.68781919 -0.08577511 C135.48262475 -0.10521438 158.27733285 -0.09319809 181.07213045 -0.07098917 C200.63674415 -0.0527386 220.20116915 -0.06363978 239.76576328 -0.09529591 C262.47644756 -0.13204034 285.18701395 -0.14908659 307.89772803 -0.13588363 C310.31896053 -0.1345425 312.74019305 -0.13323353 315.16142559 -0.13195705 C316.35276631 -0.13132639 317.54410704 -0.13069572 318.771549 -0.13004595 C327.17213671 -0.1270161 335.57263566 -0.13829053 343.97320461 -0.15520763 C354.20972369 -0.17551106 364.44597639 -0.17469581 374.68248146 -0.14657523 C379.90671354 -0.13278172 385.1304803 -0.12866367 390.35469532 -0.15052509 C395.13601071 -0.17026908 399.9164495 -0.16237819 404.69770391 -0.13233075 C406.42845394 -0.12631626 408.15927478 -0.13045246 409.88996815 -0.14569398 C424.44174255 -0.26451738 424.44174255 -0.26451738 429.02066994 3.52796745 C437.16062166 13.57878321 433.54722301 29.76260778 432.30940342 41.97437572 C431.94580845 45.56188437 431.60609708 49.15166485 431.26503086 52.74137402 C431.19866428 53.43438107 431.13229771 54.12738811 431.06392002 54.84139538 C430.44546002 61.38453501 430.03912169 67.92291692 429.74549961 74.48746777 C429.53456211 77.63199902 429.53456211 77.63199902 429.05043125 80.41862011 C428.52538573 83.68915924 428.26385794 86.88451698 428.06971836 90.19059277 C427.99293858 91.45234325 427.91615879 92.71409374 427.83705235 94.01407909 C427.77842518 95.00645077 427.77842518 95.00645077 427.71861362 96.01887035 C427.05164744 107.2708896 426.24746823 118.50028185 425.21669102 129.72550488 C424.61288269 136.40777085 424.17420669 143.08657487 423.87611485 149.78946972 C423.73425221 152.80631835 423.51643863 155.75169677 423.06410313 158.73917675 C422.43039322 163.39777722 422.11207538 168.03943616 421.81581211 172.72965527 C421.68690609 174.68473341 421.55799983 176.63981153 421.42909336 178.59488964 C421.2308733 181.65156108 421.0336735 184.70829669 420.8368082 187.76505566 C420.64477033 190.73258879 420.44915359 193.6998711 420.25331211 196.66715527 C420.19598911 197.57667446 420.13866611 198.48619366 420.07960606 199.42327404 C419.78375064 203.8948851 419.27525671 208.20999053 418.53456211 212.63199902 C418.24425116 215.79993591 418.04823994 218.97270256 417.85096836 222.14762402 C417.79117298 223.06867931 417.7313776 223.98973461 417.66977024 224.93870068 C417.54231205 226.90450251 417.41612125 228.87038685 417.29109287 230.83634472 C416.96657961 235.93015148 416.63107622 241.02323441 416.29628086 246.11637402 C416.19799992 247.61575512 416.19799992 247.61575512 416.0977335 249.14542675 C415.57162422 257.14387247 415.0155987 265.13918796 414.40956211 273.13199902 C414.29656773 274.66582226 414.29656773 274.66582226 414.18129063 276.23063183 C414.10966709 277.1571455 414.03804356 278.08365917 413.96424961 279.03824902 C413.8750626 280.20323925 413.8750626 280.20323925 413.78407383 281.39176464 C413.53456211 283.63199902 413.53456211 283.63199902 413.04609776 285.8985548 C412.49948116 288.81945776 412.27263858 291.64083662 412.10048008 294.60734081 C412.02838322 295.79938625 411.95628635 296.99143169 411.88200474 298.21959972 C411.80602055 299.51455868 411.73003635 300.80951763 411.65174961 302.14371777 C410.93044188 313.94699221 410.09980028 325.73809297 409.16737461 337.52653027 C409.07733599 338.66706639 409.07733599 338.66706639 408.9854784 339.83064365 C408.54753604 345.36891952 408.10429958 350.90676518 407.65956211 356.44449902 C407.52628026 358.10484843 407.39299984 359.76519796 407.2597208 361.4255476 C407.19308043 362.25560409 407.12644005 363.08566057 407.05778027 363.94087029 C406.78848477 367.29605116 406.51945681 370.65125341 406.25061512 374.00647068 C406.11729516 375.66976289 405.98382973 377.33304344 405.85021687 378.99631214 C404.98229767 389.80925212 404.16282395 400.62406603 403.39393711 411.44449902 C403.14349057 414.87975887 402.89160088 418.31490893 402.63899326 421.75001049 C402.48752566 423.85897224 402.3420979 425.96837754 402.20308018 428.07819653 C402.01372147 430.94772044 401.80380882 433.81504798 401.58924961 436.68278027 C401.54145359 437.49895824 401.49365757 438.31513622 401.44441319 439.15604687 C400.92142617 445.69416622 398.9789654 450.28345468 394.14393711 454.92887402 C391.38409723 456.73020664 388.90394462 457.82109227 385.78456211 458.88199902 C383.94764805 459.50848339 383.94764805 459.50848339 382.07362461 460.14762402 C380.56144709 460.64498703 379.0483269 461.13948812 377.53456211 461.63199902 C376.59838047 461.9368623 375.66219883 462.24172558 374.69764805 462.55582714 C364.8019867 465.76540058 354.88373687 468.90152231 344.95253086 471.99918652 C335.6987294 474.88599274 326.46066614 477.82199597 317.22206211 480.75699902 C306.83018389 484.05770047 296.4378545 487.35642882 286.03065586 490.60856152 C271.4736253 495.15889046 256.94164321 499.75137686 242.49403477 504.64078808 C236.10747892 506.79895356 229.69497621 508.84115265 223.24501133 510.80216503 C221.33376065 511.38731555 219.430809 511.99991672 217.53456211 512.63199902 C203.51065917 514.32815685 191.86853686 510.40402036 178.77626133 505.77408886 C173.55060761 503.93302785 168.29167073 502.19323322 163.03456211 500.44449902 C161.52478794 499.9377766 161.52478794 499.9377766 159.98451328 499.42081738 C153.79906366 497.35187181 147.59289746 495.428057 141.32338047 493.63297558 C125.64674571 489.10346754 110.15915762 483.8748691 94.70008945 478.65738964 C89.21904116 476.82313531 83.69198314 475.19089747 78.13734531 473.5958662 C71.47855842 471.66249704 64.922627 469.44904998 58.35633945 467.22477245 C52.7211449 465.32736564 47.06342717 463.57958108 41.34706211 461.94449902 C22.9961587 456.6030412 22.9961587 456.6030412 18.64784336 450.77262402 C14.59377108 442.97742538 15.21565329 432.91488587 14.87513828 424.3068037 C14.84395908 423.52982128 14.81277988 422.75283886 14.78065586 421.95231152 C14.75672764 421.26411327 14.73279942 420.57591503 14.7081461 419.8668623 C14.56515164 417.5527138 14.56515164 417.5527138 14.06410313 414.98258495 C13.36625082 410.56703627 13.09780907 406.16120257 12.81581211 401.70231152 C12.7530106 400.75314861 12.69020908 399.80398571 12.62550449 398.8260603 C12.42569331 395.80321767 12.22974363 392.78014386 12.03456211 389.75699902 C11.83915742 386.74101202 11.64282628 383.72509947 11.44361973 380.70936108 C11.32000889 378.83737843 11.19854764 376.96525215 11.07960606 375.09296703 C10.73756734 369.90479311 10.20113983 364.78799143 9.53456211 359.63199902 C9.4180932 358.06972471 9.320135 356.50577669 9.25331211 354.94059277 C9.2159293 354.14072948 9.17854649 353.3408662 9.14003086 352.51676464 C9.06955033 350.88135521 8.99923863 349.24593849 8.92909336 347.61051464 C8.70803049 342.88815436 8.20886824 338.31526579 7.53456211 333.63199902 C7.25249517 329.8602243 7.10025031 326.08200513 6.92909336 322.30387402 C6.75980353 318.87137672 6.52116481 315.53821788 6.03456211 312.13199902 C5.33023512 307.20171005 5.15430307 302.27516973 4.92909336 297.30387402 C4.87301914 296.16692089 4.87301914 296.16692089 4.81581211 295.00699902 C4.78551914 294.33410839 4.75522617 293.66121777 4.72401524 292.96793652 C4.57605449 291.14359583 4.33649001 289.32662611 4.06190586 287.51700878 C3.41029701 282.71652188 3.1071003 277.93060439 2.81581211 273.09684277 C2.7530106 272.09995937 2.69020908 271.10307598 2.62550449 270.075984 C2.35836241 265.83539402 2.09758391 261.59442016 1.8368082 257.35343456 C1.64483847 254.24690693 1.44918928 251.14062608 1.25331211 248.03434277 C1.19598911 247.08107601 1.13866611 246.12780926 1.07960606 245.14565563 C0.79060816 240.57381246 0.34976747 236.14594606 -0.46543789 231.63199902 C-0.58680321 230.20830253 -0.68292216 228.78209184 -0.74668789 227.35465527 C-0.7840707 226.59346386 -0.82145351 225.83227245 -0.85996914 225.04801464 C-0.91217617 223.88302441 -0.91217617 223.88302441 -0.96543789 222.69449902 C-1.03528761 221.1435766 -1.10816367 219.59278728 -1.18418789 218.04215527 C-1.21448086 217.36289989 -1.24477383 216.68364452 -1.27598476 215.98380566 C-1.42427698 214.14295649 -1.66395712 212.30942619 -1.93809414 210.48307323 C-2.57087157 205.86204024 -2.88824068 201.25747885 -3.18418789 196.60465527 C-3.2469894 195.65690731 -3.30979092 194.70915936 -3.37449551 193.73269176 C-3.57399555 190.72012019 -3.77009621 187.70734289 -3.96543789 184.69449902 C-4.16089171 181.68523406 -4.35718308 178.67603755 -4.55638027 175.66701794 C-4.67993201 173.80059619 -4.80139234 171.93403439 -4.92039394 170.06731701 C-5.18095554 166.12983654 -5.48738509 162.22032301 -5.99278164 158.30607128 C-6.36520225 155.41115507 -6.63028311 152.59866348 -6.74668789 149.68668652 C-6.7840707 148.83719433 -6.82145351 147.98770214 -6.85996914 147.11246777 C-6.93059737 145.36768885 -7.00090706 143.62289701 -7.07090664 141.87809277 C-7.26983783 137.37127243 -7.70871258 133.08367212 -8.46543789 128.63199902 C-8.69723485 125.65584048 -8.83180498 122.67649274 -8.96543789 119.69449902 C-9.03528761 118.1435766 -9.10816367 116.59278728 -9.18418789 115.04215527 C-9.21448086 114.36289989 -9.24477383 113.68364452 -9.27598476 112.98380566 C-9.42385529 111.14819123 -9.66338283 109.31989809 -9.93809414 107.49894238 C-10.58046186 102.78854313 -10.89065312 98.09371813 -11.18418789 93.35074902 C-11.2469894 92.37843334 -11.30979092 91.40611767 -11.37449551 90.40433788 C-11.64142351 86.2703547 -11.90201387 82.13597771 -12.1631918 78.00162792 C-12.35549463 74.97202322 -12.55102076 71.94263799 -12.74668789 68.91324902 C-12.80401089 67.98701733 -12.86133389 67.06078564 -12.92039394 66.10648632 C-13.2353811 61.23502773 -13.74335243 56.46355636 -14.46543789 51.63199902 C-14.58616904 50.00617357 -14.68254978 48.37822632 -14.74668789 46.74918652 C-14.7840707 45.89195995 -14.82145351 45.03473339 -14.85996914 44.15153027 C-14.93059272 42.38070931 -15.0009025 40.60987582 -15.07090664 38.83903027 C-15.2542884 34.64654376 -15.61662878 30.74598511 -16.46543789 26.63199902 C-16.60679887 24.15546336 -16.68546344 21.67488474 -16.71543789 19.19449902 C-16.74121914 17.91703808 -16.76700039 16.63957714 -16.79356289 15.32340527 C-16.30481491 9.8249905 -14.71236318 6.8734508 -10.81581682 2.99400872 C-7.32028517 0.17740742 -4.50336354 0.00466745 0 0 Z M67.53456211 95.63199902 C68.17585561 109.74045592 68.88024093 123.80286045 69.90956211 137.88199902 C69.9739246 138.77565166 70.03828709 139.66930431 70.10459995 140.59003735 C71.09582485 154.33495171 72.23439587 168.06228057 73.47938633 181.78629589 C74.23668147 190.14699694 74.9300367 198.5088141 75.53456211 206.88199902 C76.29244684 217.37740698 77.07777173 227.87026605 77.89613438 238.36112499 C78.02897878 240.06913605 78.16083172 241.77722454 78.29164219 243.48539257 C78.47552557 245.88472847 78.66283128 248.28377464 78.85096836 250.68278027 C78.90507374 251.39724819 78.95917912 252.11171612 79.01492405 252.84783459 C79.33296548 256.84771265 79.87196885 260.65643942 80.53456211 264.63199902 C180.02956211 265.12699902 180.02956211 265.12699902 281.53456211 265.63199902 C278.53456211 312.63199902 278.53456211 312.63199902 277.53456211 325.63199902 C277.47763595 327.90221431 277.44470351 330.17373492 277.47206211 332.44449902 C277.48108555 333.44094433 277.49010899 334.43738964 277.49940586 335.46403027 C277.51100742 336.17945995 277.52260899 336.89488964 277.53456211 337.63199902 C276.40792149 337.75059277 275.28128086 337.86918652 274.12049961 337.99137402 C269.36307019 338.58892554 264.79748367 339.68580956 260.15956211 340.88199902 C259.29178135 341.10234814 258.42400059 341.32269726 257.52992344 341.54972363 C251.74187458 343.03131687 245.97683874 344.58896575 240.22206211 346.19449902 C239.48399326 346.39937939 238.74592442 346.60425976 237.98548985 346.81534863 C234.49123377 347.78939915 231.00718244 348.78646144 227.53456211 349.83512402 C214.42985644 353.64837854 204.53019943 353.30384298 191.66346836 349.19449902 C184.18878056 346.84379679 176.55282618 345.08625631 168.94642735 343.2196455 C160.441805 341.12673244 152.00226262 338.89005249 143.53456211 336.63199902 C143.20456211 322.44199902 142.87456211 308.25199902 142.53456211 293.63199902 C122.73456211 293.63199902 102.93456211 293.63199902 82.53456211 293.63199902 C83.57434026 307.68001618 83.57434026 307.68001618 84.61854649 321.72770214 C85.04561639 327.45977924 85.47217518 333.19189109 85.8956461 338.92423534 C86.23721125 343.54741283 86.58110533 348.1704118 86.92659283 352.79329777 C87.05778562 354.55420786 87.18814898 356.31517995 87.31765652 358.07621479 C87.49963922 360.54883781 87.68460971 363.02122095 87.87025547 365.49357128 C87.9490192 366.57790951 87.9490192 366.57790951 88.02937412 367.68415356 C88.36013162 372.03872581 88.87343963 376.31851975 89.53456211 380.63199902 C90.6200333 380.99382275 90.6200333 380.99382275 91.7274332 381.36295605 C93.8918375 382.08442415 96.05622394 382.80594582 98.22059727 383.52750683 C100.69670431 384.35276659 103.1729431 385.17763115 105.6493082 386.0021162 C111.01514756 387.78909674 116.3807787 389.57620758 121.73768711 391.38981152 C129.26493476 393.93374243 136.80643243 396.33081383 144.44154453 398.52970409 C160.37337908 403.16300625 176.16264766 408.39283986 191.85463047 413.78019238 C212.2744977 420.71151887 229.80236415 412.23989013 249.47474766 405.85343456 C259.90270361 402.46938465 270.35044844 399.1507237 280.8048563 395.84937572 C296.42905391 390.91482583 312.02170366 385.90866403 327.53456211 380.63199902 C329.32840573 370.73956132 330.08865563 360.92526393 330.68180943 350.90403271 C331.87832538 330.83305766 333.43735353 310.79393956 335.09706211 290.75699902 C335.20297672 289.47478466 335.30889133 288.1925703 335.41801548 286.87150097 C335.72776507 283.12750066 336.03901462 279.38362877 336.35096836 275.63981152 C336.50110134 273.83271709 336.50110134 273.83271709 336.65426731 271.98911572 C337.11011745 266.54033401 337.57896213 261.09383979 338.09657383 255.6505537 C339.47252807 240.91855155 339.98401272 226.49683255 340.53456211 211.63199902 C273.21456211 211.30199902 205.89456211 210.97199902 136.53456211 210.63199902 C130.53456211 159.03199902 130.53456211 159.03199902 130.53456211 148.63199902 C201.48456211 148.30199902 272.43456211 147.97199902 345.53456211 147.63199902 C347.10935384 137.05500597 347.10935384 137.05500597 348.16737461 126.49137402 C348.25116367 125.31832714 348.33495274 124.14528027 348.42128086 122.93668652 C348.49991367 121.76363964 348.57854649 120.59059277 348.65956211 119.38199902 C348.78911289 117.59922558 348.78911289 117.59922558 348.92128086 115.78043652 C349.39190741 109.01237854 349.53456211 102.44909213 349.53456211 95.63199902 C256.47456211 95.63199902 163.41456211 95.63199902 67.53456211 95.63199902 Z " fill="#FC490A" transform="translate(47.46543788909912,-0.6319990158081055)"/>
</svg>
