<?xml version="1.0" encoding="UTF-8"?>
<svg version="1.1" xmlns="http://www.w3.org/2000/svg" width="512" height="512">
<path d="M0 0 C132 0 264 0 400 0 C400 105.6 400 211.2 400 320 C378.88 320 357.76 320 336 320 C336.04640625 329.075 336.0928125 338.15 336.140625 347.5 C336.1610646 353.25130664 336.18048619 359.00258693 336.1953125 364.75390625 C336.21903153 373.88143928 336.24688985 383.00882442 336.30175781 392.13623047 C336.34170183 398.78419039 336.36745082 405.43203014 336.37635398 412.08010674 C336.38155603 415.59831499 336.39373018 419.11617955 336.42292023 422.63427734 C336.45528765 426.56744697 336.45595455 430.50028431 336.45410156 434.43359375 C336.46848267 435.59237534 336.48286377 436.75115692 336.49768066 437.9450531 C336.45774029 445.78686238 335.34741283 451.18008954 330.03515625 457.2421875 C329.38417969 457.78101563 328.73320312 458.31984375 328.0625 458.875 C327.41410156 459.42929687 326.76570313 459.98359375 326.09765625 460.5546875 C321.12861906 463.9784189 316.53204609 464.29080788 310.63200378 464.26742554 C309.7921644 464.27195665 308.95232502 464.27648776 308.08703595 464.28115618 C305.27435793 464.29381104 302.46187326 464.29217911 299.64916992 464.29052734 C297.63187918 464.29651193 295.61459073 464.30331731 293.5973053 464.31088257 C288.1178879 464.32855726 282.63853295 464.33323858 277.1590898 464.33451414 C272.58409697 464.33641341 268.00911868 464.34377129 263.43413144 464.35085833 C252.63926698 464.36714562 241.84443588 464.37202699 231.04956055 464.37060547 C219.91657272 464.36940405 208.78377876 464.39050518 197.65083998 464.4220928 C188.09059906 464.44825091 178.53042148 464.45897295 168.97014505 464.45769465 C163.26115214 464.45718486 157.55233149 464.46287729 151.84337425 464.48405075 C146.47283854 464.50342506 141.10263954 464.50356294 135.7320919 464.48901749 C133.7632854 464.48692728 131.79445787 464.4916429 129.82568741 464.5037384 C127.13304628 464.51920695 124.44156386 464.50987228 121.74894714 464.49447632 C120.97412512 464.50476344 120.19930311 464.51505057 119.40100163 464.52564943 C112.84965474 464.44315408 107.69691772 462.36332685 102.7578125 458.03515625 C102.21898437 457.38417969 101.68015625 456.73320312 101.125 456.0625 C100.57070312 455.41410156 100.01640625 454.76570313 99.4453125 454.09765625 C96.64981863 450.04041244 95.74981216 446.46995333 95.75949097 441.57731628 C95.75536697 439.96410995 95.75536697 439.96410995 95.75115967 438.3183136 C95.7619455 436.56396248 95.7619455 436.56396248 95.77294922 434.77416992 C95.77265717 433.53473633 95.77236511 432.29530273 95.77206421 431.01831055 C95.77321728 427.62812286 95.7832349 424.23817995 95.79721212 420.84803557 C95.80973037 417.30196211 95.81089085 413.75588524 95.81326294 410.20979309 C95.81947449 403.49860246 95.83588091 396.78747713 95.85596192 390.07631522 C95.87833103 382.43427407 95.88931689 374.79222976 95.89935279 367.15016401 C95.92024744 351.43339844 95.9569196 335.7167228 96 320 C82.8 320 69.6 320 56 320 C56.02094727 324.55216309 56.04189453 329.10432617 56.06347656 333.79443359 C56.12978266 348.84188294 56.17415391 363.88933807 56.20724869 378.93689537 C56.22784684 388.0594059 56.25591474 397.18177773 56.30175781 406.30419922 C56.34170988 414.25816908 56.36745277 422.21203845 56.37635398 430.16610587 C56.3815546 434.37517023 56.3937202 438.58394719 56.42292023 442.79291916 C56.45022191 446.76068695 56.45841549 450.72805097 56.45243073 454.69590378 C56.45352441 456.14625244 56.46139027 457.59661565 56.4768219 459.04688263 C56.58740901 469.98323633 55.40507551 479.22221713 47.703125 487.46875 C39.45973163 494.88024129 30.72678152 496.57842178 19.92578125 496.31640625 C11.9652377 495.6748102 6.75010606 492.30779021 1 487 C-2.3812033 488.48772945 -5.12534519 490.52870432 -8.0234375 492.78125 C-15.68498163 497.50536417 -26.42411891 497.26954084 -35.01953125 495.3125 C-43.78862892 492.07965293 -49.89395195 486.36588068 -54 478 C-56.54619448 472.18136265 -56.26775968 466.53373686 -56.22705078 460.30322266 C-56.22734283 459.13191803 -56.22763489 457.9606134 -56.22793579 456.7538147 C-56.22654483 452.89048805 -56.21099431 449.02735537 -56.1953125 445.1640625 C-56.19158154 442.48220493 -56.18863655 439.80035804 -56.18673706 437.11849976 C-56.18053052 430.78629133 -56.16413093 424.45415228 -56.14403808 418.12197435 C-56.12165333 410.91037398 -56.11067918 403.69877024 -56.10064721 396.48714375 C-56.07976393 381.65806042 -56.04460406 366.82903142 -56 352 C-57.64548828 352.02827881 -57.64548828 352.02827881 -59.32421875 352.05712891 C-60.77864132 352.07237688 -62.23306877 352.08716376 -63.6875 352.1015625 C-64.7693457 352.12198608 -64.7693457 352.12198608 -65.87304688 352.14282227 C-71.84870613 352.1871622 -76.01529129 351.21015241 -81 348 C-81.70640625 347.56429688 -82.4128125 347.12859375 -83.140625 346.6796875 C-90.0926642 341.96774982 -93.70686742 336.0057428 -96 328 C-96.1884669 325.51200251 -96.27593244 323.01534649 -96.29052734 320.52026367 C-96.29724457 319.79566956 -96.30396179 319.07107544 -96.31088257 318.32452393 C-96.32980768 315.9389347 -96.33378567 313.55362832 -96.3359375 311.16796875 C-96.34237528 309.49090972 -96.34910435 307.81385179 -96.35610962 306.13679504 C-96.3680731 302.61892096 -96.37179201 299.10114493 -96.37060547 295.58325195 C-96.37040372 291.12324147 -96.39755899 286.66387859 -96.43214989 282.2040205 C-96.45464848 278.73508454 -96.45843589 275.2662979 -96.45738602 271.79729652 C-96.4597133 270.15621041 -96.46837019 268.5151183 -96.48405075 266.87410545 C-96.60681471 252.68396027 -95.17682827 238.22221681 -88.1875 225.5625 C-87.84130615 224.90620605 -87.4951123 224.24991211 -87.13842773 223.57373047 C-76.92060579 204.59543993 -62.68337324 191.76512759 -43.37109375 182.62890625 C-39.97812969 181.0846893 -39.97812969 181.0846893 -37 179 C-37.70125 178.319375 -38.4025 177.63875 -39.125 176.9375 C-49.59658483 166.34759218 -56.23240892 154.26550046 -56.51928711 139.05957031 C-56.50973999 137.69977051 -56.50973999 137.69977051 -56.5 136.3125 C-56.49427979 135.35569336 -56.48855957 134.39888672 -56.48266602 133.41308594 C-56.15957522 120.45029175 -52.23764166 110.1358007 -44 100 C-43.37351563 99.16726562 -42.74703125 98.33453125 -42.1015625 97.4765625 C-34.58530264 88.61911129 -22.33663917 82.22683984 -11 80 C-7.37 80 -3.74 80 0 80 C0 53.6 0 27.2 0 0 Z " fill="#000000" transform="translate(104,8)"/>
<path d="M0 0 C121.44 0 242.88 0 368 0 C368 73.92 368 147.84 368 224 C352.16 224 336.32 224 320 224 C319.67 219.38 319.34 214.76 319 210 C316.67824892 203.40622694 312.96805283 198.76180502 307 195 C301.69293439 193.1707282 297.07558557 192.71003282 291.54335022 192.73257446 C290.30552918 192.72577779 290.30552918 192.72577779 289.04270166 192.71884382 C286.29151224 192.70623462 283.54052167 192.70781792 280.78930664 192.70947266 C278.81112922 192.70348534 276.83295413 192.69667932 274.8547821 192.68911743 C269.49118163 192.67147352 264.12764499 192.6667628 258.7640183 192.66548586 C255.4115395 192.66406309 252.05907687 192.65979115 248.7066021 192.65449142 C237.00694627 192.63599829 225.30733598 192.62782014 213.60766602 192.62939453 C202.70753007 192.63059657 191.80759193 192.60948014 180.90750605 192.5779072 C171.54255209 192.55174894 162.17766277 192.54102701 152.81267256 192.54230535 C147.22219759 192.542815 141.63189856 192.53712951 136.04146004 192.51594925 C130.78416256 192.49657391 125.52720904 192.49643772 120.26989937 192.51098251 C118.34301755 192.51307239 116.41611423 192.50835909 114.48926926 192.4962616 C111.85365465 192.48078864 109.21922318 192.49013034 106.58363342 192.50552368 C105.82573944 192.49523656 105.06784545 192.48494943 104.28698498 192.47435057 C97.79249092 192.55786415 92.65029715 194.67752706 87.7578125 198.96484375 C87.21898437 199.61582031 86.68015625 200.26679688 86.125 200.9375 C85.57070312 201.58589844 85.01640625 202.23429688 84.4453125 202.90234375 C79.68692184 209.80844046 80.64138046 215.02067359 80 224 C66.8 224 53.6 224 40 224 C39.88453619 217.66745131 39.78520234 211.33862627 39.7253418 205.00585938 C39.70036217 202.85664421 39.66636634 200.70751255 39.62280273 198.55859375 C39.31494859 182.97030854 39.64286809 169.94204858 51 158 C55.77736366 153.51020736 60.92070825 149.97562313 66.5 146.5625 C68.18588975 145.51461822 69.87073903 144.46506109 71.5546875 143.4140625 C72.43866211 142.86266602 73.32263672 142.31126953 74.23339844 141.74316406 C79.06718562 138.69751983 83.84494582 135.56655124 88.625 132.4375 C89.60484863 131.79683594 90.58469727 131.15617188 91.59423828 130.49609375 C93.51413225 129.24076612 95.43389534 127.98523829 97.35351562 126.72949219 C101.02195516 124.33214665 104.69625921 121.94400299 108.375 119.5625 C109.03765869 119.13340332 109.70031738 118.70430664 110.38305664 118.26220703 C114.49943695 115.60194477 118.62747477 112.96054157 122.76171875 110.328125 C129.1861404 106.23678544 135.59761211 102.12572992 142 98 C142.55433716 97.64345337 143.10867432 97.28690674 143.67980957 96.91955566 C147.52750653 94.44335361 151.36016079 91.94502649 155.1875 89.4375 C156.18467041 88.79530518 157.18184082 88.15311035 158.20922852 87.49145508 C163.75144412 83.83341133 167.95635918 80.28051919 172 75 C175.95371199 76.79700005 177.91222747 79.02158409 180.625 82.4375 C181.40101563 83.40558594 182.17703125 84.37367188 182.9765625 85.37109375 C187.04227127 90.6533756 187.04227127 90.6533756 186.6875 93.5625 C186 96 186 96 185 98 C184.2324386 105.36103969 184.79161934 111.77534783 189 118 C194.18998783 123.66672993 198.93760551 126.97726047 206.6875 127.375 C211.60010372 127.3090098 215.29842481 125.92622782 219.67578125 123.77734375 C222.64051067 122.78577878 223.99047204 123.15250923 227 124 C229.13960184 125.12787782 231.23552883 126.34021922 233.296875 127.60546875 C234.18647919 128.14800041 234.18647919 128.14800041 235.09405518 128.70149231 C236.98370714 129.85658465 238.86672685 131.02204365 240.75 132.1875 C241.99960696 132.95181484 243.24960376 133.71549271 244.5 134.47851562 C246.91536888 135.95528877 249.32053486 137.44676682 251.71801758 138.95239258 C253.74502989 140.21703234 255.78667939 141.45893561 257.8503418 142.6628418 C263.70487746 146.20091405 263.70487746 146.20091405 265.17578125 150.18359375 C265.22089844 151.25738281 265.26601563 152.33117187 265.3125 153.4375 C266.01705426 160.99857008 267.72136569 165.1182736 273.4375 170.3125 C279.33452275 174.9778661 284.57293217 175.85157962 292 175 C299.18844563 173.23719469 303.98774676 170.23686889 308 164 C311.3711392 158.15669205 311.86264153 152.59778579 311 146 C309.40728404 141.09933552 306.93132188 137.36970447 303 134 C305.19788264 126.38200557 307.71321696 118.90027511 310.34375 111.421875 C310.95929749 109.66656464 310.95929749 109.66656464 311.58728027 107.87579346 C312.45006599 105.41808061 313.31405804 102.96079094 314.17919922 100.50390625 C315.50035584 96.74898866 316.81480073 92.99176517 318.12890625 89.234375 C318.97094682 86.83839847 319.81338116 84.44256028 320.65625 82.046875 C321.24231018 80.36860626 321.24231018 80.36860626 321.84020996 78.65643311 C326.81657866 64.57439728 326.81657866 64.57439728 330.26953125 62.8984375 C331.10871094 62.72570312 331.94789063 62.55296875 332.8125 62.375 C339.56258837 60.68502154 344.06510799 57.83449505 348 52 C351.58053632 45.60618514 352.35940478 38.89898703 350.37890625 31.76171875 C347.48836617 25.14559368 342.20838817 20.3665357 335.625 17.5625 C328.54696563 16.46418432 322.29238171 15.94655829 315.88671875 19.59765625 C310.82254647 23.36170977 306.95153047 27.9713284 305 34 C303.8272113 42.03668886 305.54282317 48.27029076 310 55 C310.98617303 56.01363838 311.98424672 57.01600546 313 58 C310.83329316 65.54834704 308.31480752 72.93633301 305.65625 80.32421875 C305.24588501 81.46985794 304.83552002 82.61549713 304.41271973 83.79585266 C303.55000653 86.20232578 302.68601351 88.60834043 301.82080078 91.01391602 C300.50063549 94.68573249 299.18558425 98.35935182 297.87109375 102.03320312 C297.02895 104.38031749 296.18651215 106.72732636 295.34375 109.07421875 C294.95304321 110.16602951 294.56233643 111.25784027 294.15979004 112.38273621 C288.64643826 127.68525478 288.64643826 127.68525478 285.9140625 129.015625 C285.15867187 129.09296875 284.40328125 129.1703125 283.625 129.25 C280.48866723 129.70167252 279.02043882 129.987458 276.25 131.6875 C274 133 274 133 271.75292969 132.80737305 C268.3465048 131.80834439 265.72956368 130.25215233 262.703125 128.39453125 C262.11005554 128.03284348 261.51698608 127.6711557 260.90594482 127.29850769 C259.01629286 126.14341535 257.13327315 124.97795635 255.25 123.8125 C254.00039304 123.04818516 252.75039624 122.28450729 251.5 121.52148438 C249.08587025 120.04522759 246.68108658 118.5554209 244.28393555 117.05175781 C242.2469256 115.77906198 240.19820442 114.52466975 238.13208008 113.29980469 C232.24434722 109.69215089 232.24434722 109.69215089 231.04296875 106.2890625 C231.09066406 105.40992188 231.13835937 104.53078125 231.1875 103.625 C231.08086143 97.06672771 229.64188727 92.906076 225.203125 88.0234375 C221.09917659 84.15809074 217.68641191 81.83897881 212 81 C211.00613281 81.08121094 210.01226562 81.16242188 208.98828125 81.24609375 C200.24784208 81.90594107 200.24784208 81.90594107 196.4765625 79.16796875 C194.12903837 76.5527445 192.06064006 73.84618793 190 71 C188.4466988 69.09662257 186.88423991 67.20068006 185.3125 65.3125 C184.57 64.38953125 183.8275 63.4665625 183.0625 62.515625 C181.37236174 60.45416849 179.62817556 58.51056857 177.8125 56.5625 C175.21178202 53.62070425 173.79372706 50.50981919 172.1875 46.9375 C168.72187093 39.66968471 164.168118 36.99344774 157.125 33.625 C146.76061188 31.55212238 139.92303127 33.61884693 131 39 C130.28650391 39.42974121 129.57300781 39.85948242 128.83789062 40.30224609 C123.52881631 43.52403912 118.26625292 46.81810565 113.00683594 50.12011719 C107.69015716 53.44412065 102.34340322 56.71919764 97 60 C89.89757999 64.36535431 82.80074388 68.73916608 75.71972656 73.13916016 C72.33361348 75.241303 68.94264741 77.33549686 65.54980469 79.42675781 C63.79896807 80.50703272 62.04970025 81.58985309 60.30175781 82.67480469 C57.6234808 84.33424483 54.93774792 85.9809549 52.25 87.625 C51.45223145 88.12225586 50.65446289 88.61951172 49.83251953 89.13183594 C43.1751258 93.17537835 36.40404012 96.52411437 28.4375 96.1875 C27.59058594 96.16042969 26.74367187 96.13335937 25.87109375 96.10546875 C25.25363281 96.07066406 24.63617188 96.03585938 24 96 C25.4966176 93.45711478 27.0225878 90.9668258 28.68359375 88.52734375 C37.67211312 75.25476392 40.74348137 60.78019828 38.57421875 44.87890625 C35.35733673 30.01809544 27.26783003 18.51587295 15.03515625 9.8671875 C10.27496917 6.93878412 5.24154236 4.90268902 0 3 C0 2.01 0 1.02 0 0 Z " fill="#E5E8EC" transform="translate(120,88)"/>
<path d="M0 0 C0.80520411 -0.00638882 1.61040822 -0.01277764 2.44001245 -0.01936007 C5.13576762 -0.03461007 7.83005306 -0.01414953 10.52575684 0.00622559 C12.45924873 0.00272438 14.39273774 -0.00293418 16.32621765 -0.0105896 C21.5762809 -0.0248473 26.82582102 -0.00776622 32.07583427 0.01569557 C37.56813242 0.03578951 43.06040852 0.02992577 48.55273438 0.02758789 C57.77641436 0.02764148 66.9998896 0.04740786 76.22351074 0.07946777 C86.88962161 0.11636119 97.55546423 0.12514347 108.22163057 0.11817026 C118.47910468 0.11186655 128.73648673 0.12261713 138.99394226 0.14213562 C143.36066499 0.15031363 147.72734069 0.15301842 152.09407043 0.15144348 C157.23559958 0.15056499 162.37687352 0.1647713 167.51833534 0.19067001 C169.40614396 0.19783649 171.29397971 0.19991313 173.18179893 0.19655228 C175.75713763 0.19284177 178.33172977 0.20756984 180.90698242 0.22705078 C181.65552443 0.22172286 182.40406644 0.21639493 183.17529154 0.21090555 C187.59621227 0.26867304 190.43878641 0.89045667 193.95349121 3.62145996 C195.30818196 6.33084146 195.0856548 8.45031151 195.09393311 11.48493958 C195.09964325 12.73417206 195.10535339 13.98340454 195.11123657 15.27049255 C195.11248199 16.66262807 195.11360708 18.05476371 195.11462402 19.44689941 C195.11925127 20.90704474 195.1242758 22.36718885 195.12966919 23.82733154 C195.14280494 27.80056215 195.14924053 31.77377584 195.15367985 35.74702477 C195.15660892 38.22856579 195.16071343 40.71010217 195.16518402 43.19164085 C195.17886258 50.95347139 195.18852725 58.71529134 195.19238591 66.4771331 C195.1968665 75.4412198 195.21441289 84.405154 195.24338651 93.36919433 C195.26499585 100.29494869 195.27508981 107.22066012 195.27642703 114.14644784 C195.27747568 118.28427403 195.28339596 122.42195695 195.30124664 126.5597477 C195.31771429 130.4528058 195.31988929 134.34561274 195.31110764 138.23869324 C195.31033653 139.6669399 195.31468969 141.09519998 195.32456589 142.5234127 C195.33726607 144.47457731 195.32962389 146.42584261 195.32098389 148.37702942 C195.32245045 149.46860005 195.32391701 150.56017069 195.32542801 151.68481922 C194.8984033 155.0564086 194.01287388 156.93395418 191.95349121 159.62145996 C188.30007238 160.83926624 184.94449687 160.76626696 181.14076233 160.76190186 C180.3365615 160.76487298 179.53236068 160.7678441 178.70379013 160.77090526 C175.99998538 160.77960023 173.29622486 160.78110117 170.59240723 160.78259277 C168.65759181 160.7872203 166.7227773 160.79224487 164.78796387 160.79763794 C159.52564442 160.8107683 154.26333773 160.81720788 149.00100446 160.8216486 C145.71558729 160.82457766 142.43017363 160.8286821 139.14475822 160.83315277 C128.87183223 160.84682797 118.59891423 160.85649512 108.32597977 160.86035466 C96.45500326 160.86483879 84.5841417 160.88240307 72.71320015 160.91135526 C63.54457313 160.93294317 54.37597853 160.94305736 45.20732635 160.94439578 C39.72761014 160.94544568 34.24800198 160.95139287 28.76831245 160.96921539 C23.61619267 160.98564664 18.46426274 160.98787572 13.31212616 160.97907639 C11.41904379 160.97830341 9.52595141 160.98268281 7.63289452 160.99253464 C5.05276898 161.00517695 2.47332381 160.99941976 -0.10679626 160.98895264 C-1.2360249 161.00103724 -1.2360249 161.00103724 -2.38806623 161.01336598 C-5.51413664 160.98361149 -7.71501042 160.80336395 -10.48024082 159.28599167 C-13.46701568 156.11183402 -13.1792367 152.77740447 -13.20040894 148.63772583 C-13.2090094 147.38711868 -13.21760986 146.13651154 -13.22647095 144.8480072 C-13.23090601 143.45950359 -13.23520438 142.07099953 -13.23937988 140.68249512 C-13.24728227 139.22220159 -13.2555513 137.76191001 -13.26416016 136.30162048 C-13.2903587 131.50460673 -13.30568296 126.70758433 -13.31994629 121.91052246 C-13.32530636 120.25914886 -13.33068387 118.60777531 -13.33607864 116.95640182 C-13.35770181 110.08846353 -13.3764396 103.22052757 -13.38770103 96.35256386 C-13.40394911 86.50832067 -13.43715381 76.6644716 -13.49410188 66.82037699 C-13.53277938 59.89885182 -13.55233095 52.97743217 -13.5576216 46.05580175 C-13.56127734 41.92122433 -13.57332207 37.78706748 -13.60572433 33.65260696 C-13.63576782 29.76352087 -13.64213058 25.87511064 -13.63034058 21.9859333 C-13.63011954 20.55927958 -13.63844952 19.13259482 -13.65599442 17.70604897 C-13.67865691 15.75721814 -13.66741565 13.80808124 -13.6545105 11.85916138 C-13.65782064 10.76888956 -13.66113079 9.67861774 -13.66454124 8.55530739 C-12.08727407 1.06789922 -6.81176445 -0.11391295 0 0 Z " fill="#FEE9A6" transform="translate(229.0465087890625,295.3785400390625)"/>
<path d="M0 0 C121.44 0 242.88 0 368 0 C368 15.84 368 31.68 368 48 C246.56 48 125.12 48 0 48 C0 32.16 0 16.32 0 0 Z " fill="#FF826E" transform="translate(120,24)"/>
<path d="M0 0 C15.84 0 31.68 0 48 0 C48 42.24 48 84.48 48 128 C-10.08 128 -68.16 128 -128 128 C-128 96.32 -128 64.64 -128 32 C-112.16 32 -96.32 32 -80 32 C-80 58.4 -80 84.8 -80 112 C-74.72 112 -69.44 112 -64 112 C-64 90.88 -64 69.76 -64 48 C-48.16 48 -32.32 48 -16 48 C-16 69.12 -16 90.24 -16 112 C-10.72 112 -5.44 112 0 112 C0 75.04 0 38.08 0 0 Z " fill="#000000" transform="translate(360,312)"/>
<path d="M0 0 C3.25335031 2.65579617 4.6501187 4.09773273 5.40234375 8.1875 C5.61636674 13.2555644 4.88305923 16.71765379 2 21 C-1.35699398 23.69221982 -4.96915932 25.92522525 -8.625 28.1875 C-9.66027832 28.84459961 -10.69555664 29.50169922 -11.76220703 30.17871094 C-13.85814765 31.50863401 -15.95757385 32.83308069 -18.06054688 34.15185547 C-22.02507227 36.64450142 -25.95038339 39.19520844 -29.875 41.75 C-31.23660768 42.63078288 -32.59858386 43.51099638 -33.9609375 44.390625 C-38.14212186 47.0914386 -42.32116979 49.79554583 -46.5 52.5 C-47.91665794 53.41668015 -49.33332459 54.33334684 -50.75 55.25 C-51.45125 55.70375 -52.1525 56.1575 -52.875 56.625 C-59.25 60.75 -59.25 60.75 -61.37402344 62.12426758 C-62.79406754 63.04318679 -64.21398897 63.96229561 -65.63378906 64.8815918 C-69.12281209 67.14034663 -72.6137365 69.39602594 -76.109375 71.64453125 C-84.17074688 76.83453376 -92.19467594 82.07999698 -100.1875 87.375 C-101.07276367 87.95805908 -101.95802734 88.54111816 -102.87011719 89.1418457 C-116.7228526 98.352667 -125.96637344 109.70980529 -129.56468201 126.31452942 C-130.39115257 131.41301469 -130.36177434 136.53657213 -130.4140625 141.69140625 C-130.43170654 142.7438855 -130.44935059 143.79636475 -130.4675293 144.8807373 C-130.53011704 148.77450899 -130.57663334 152.6685257 -130.625 156.5625 C-130.74875 165.286875 -130.8725 174.01125 -131 183 C-157.4 183 -183.8 183 -211 183 C-211 161.88 -211 140.76 -211 119 C-216.28 119 -221.56 119 -227 119 C-227 148.04 -227 177.08 -227 207 C-241.78378378 207 -241.78378378 207 -246 203 C-250.37366305 198.15350851 -251.12409045 194.84753918 -251.19287109 188.41162109 C-251.20104858 187.74598648 -251.20922607 187.08035187 -251.21765137 186.39454651 C-251.24248703 184.18751905 -251.2590325 181.98055671 -251.2734375 179.7734375 C-251.27876118 179.01409534 -251.28408485 178.25475319 -251.28956985 177.47240067 C-251.31631611 173.43929302 -251.33567091 169.40621622 -251.35009766 165.37304688 C-251.3633341 162.06579288 -251.39098962 158.75917105 -251.43212891 155.45214844 C-251.48208815 151.43501649 -251.50629681 147.41844924 -251.51332474 143.40102005 C-251.51994488 141.88549253 -251.53491766 140.3699729 -251.55921555 138.8546257 C-251.86687708 118.47476757 -245.4744268 101.44110843 -232 86 C-231.48050781 85.38511719 -230.96101563 84.77023438 -230.42578125 84.13671875 C-220.16614728 72.89505432 -204.97655015 65.55264451 -190 64 C-190.52668524 78.45660169 -191.68619532 92.83886711 -192.98364258 107.24316406 C-193.24805357 110.18907164 -193.48251961 113.13489904 -193.69189453 116.08520508 C-193.87711616 118.43863523 -194.12040148 120.79001893 -194.47607422 123.1237793 C-194.98423583 127.73800199 -194.67178318 130.05731476 -191.93188477 133.90209961 C-189.15963549 137.05205935 -186.09836809 139.86465793 -183 142.6875 C-181.93760517 143.69463604 -180.87768072 144.70438479 -179.8203125 145.71679688 C-177.24136949 148.17534766 -174.63065771 150.59672627 -172 153 C-166.27370331 150.51548372 -162.18102011 145.83526939 -157.75 141.5625 C-156.81414062 140.70978516 -155.87828125 139.85707031 -154.9140625 138.97851562 C-154.02976562 138.12064453 -153.14546875 137.26277344 -152.234375 136.37890625 C-151.42194336 135.6113501 -150.60951172 134.84379395 -149.77246094 134.05297852 C-147.0844314 129.42297723 -147.64164209 125.23173942 -148 120 C-148.08504791 118.63195976 -148.08504791 118.63195976 -148.17181396 117.23628235 C-148.37334231 114.40120794 -148.61833666 111.57278116 -148.875 108.7421875 C-148.96378418 107.71368683 -149.05256836 106.68518616 -149.14404297 105.6255188 C-149.42491795 102.37494002 -149.7118044 99.12493733 -150 95.875 C-150.28788849 92.6178992 -150.57429499 89.36070334 -150.85595703 86.10305786 C-151.03031472 84.08700753 -151.20815649 82.07125426 -151.39013672 80.05587769 C-151.88465165 74.34513813 -152.08221514 68.73230361 -152 63 C-151.09870361 62.9906543 -150.19740723 62.98130859 -149.26879883 62.97167969 C-145.85938277 62.92713214 -142.45112322 62.86528946 -139.04223633 62.79248047 C-137.57913271 62.76460573 -136.11588788 62.74322837 -134.65258789 62.72900391 C-115.70322628 62.53398475 -101.63681108 56.14670985 -85.8125 46.0625 C-83.68823057 44.72149825 -81.56321156 43.3816833 -79.4375 42.04296875 C-78.36628906 41.3679834 -77.29507813 40.69299805 -76.19140625 39.99755859 C-71.25962274 36.91066656 -66.2885129 33.88990338 -61.3125 30.875 C-54.83528429 26.94799507 -48.37031767 23.00389302 -41.93725586 19.00488281 C-39.34894539 17.39763133 -36.75476335 15.80018569 -34.16015625 14.203125 C-30.59755254 12.0059484 -27.07204571 9.75922674 -23.55859375 7.484375 C-21.7893128 6.3641879 -20.01979001 5.24438266 -18.25 4.125 C-17.45247314 3.59438965 -16.65494629 3.0637793 -15.83325195 2.51708984 C-10.45638197 -0.83941827 -6.18374077 -2.04699927 0 0 Z " fill="#B2DB7E" transform="translate(275,137)"/>
<path d="M0 0 C10.43945517 6.24993698 16.62929797 15.44742295 20 27 C21.3322862 38.78918368 18.75886085 50.39281586 11.6796875 60.0078125 C3.99980476 69.11651063 -6.01341763 74.15562313 -17.91015625 75.2734375 C-30.70666739 75.68571667 -40.36786874 71.03388819 -49.64453125 62.484375 C-57.88850736 53.88559485 -60.44819718 42.02578818 -60.34375 30.484375 C-59.30233389 19.92820266 -53.31894725 10.77946999 -45.625 3.75 C-32.15101091 -7.19575714 -15.22213518 -7.85925457 0 0 Z " fill="#EECEB2" transform="translate(124,109)"/>
<path d="M0 0 C10.56 0 21.12 0 32 0 C32.06773727 18.15011452 32.12299357 36.30012107 32.15543652 54.45032692 C32.17090115 62.87790072 32.19198293 71.30539037 32.22631836 79.73291016 C32.2562331 87.07889245 32.27557794 94.42481379 32.28226548 101.77085531 C32.28617424 105.66004378 32.29535186 109.5490579 32.31719017 113.43819046 C32.33758817 117.10057571 32.34382716 120.76271516 32.33932304 124.42515182 C32.34053883 126.40643197 32.35666363 128.38768548 32.3732605 130.36889648 C32.36707451 132.14824081 32.36707451 132.14824081 32.36076355 133.96353149 C32.36352893 134.99040888 32.36629431 136.01728626 32.36914349 137.07528114 C31.76784553 141.83935676 29.81408106 145.84268167 26 148.8125 C21.18718408 152.32184494 16.79271265 152.71417005 11 152 C5.6964772 149.29820537 1.90167702 145.70503105 0 140 C-0.09100776 138.10986343 -0.12194863 136.21662054 -0.12025452 134.32429504 C-0.12162918 133.14218948 -0.12300385 131.96008392 -0.12442017 130.74215698 C-0.12082489 129.44383942 -0.11722961 128.14552185 -0.11352539 126.80786133 C-0.11324334 125.42812604 -0.11340159 124.0483906 -0.1139679 122.6686554 C-0.11425519 118.92100557 -0.10836937 115.17338765 -0.10139394 111.42574525 C-0.09514916 107.50996197 -0.09455571 103.59417799 -0.09336853 99.6783905 C-0.09025854 92.26237979 -0.08204961 84.8463838 -0.07201904 77.43037957 C-0.06084761 68.98790917 -0.05534485 60.54543808 -0.05032361 52.10296214 C-0.03986673 34.73529805 -0.02152536 17.36765414 0 0 Z " fill="#828E9A" transform="translate(112,336)"/>
<path d="M0 0 C10.56 0 21.12 0 32 0 C32.06773727 18.15011452 32.12299357 36.30012107 32.15543652 54.45032692 C32.17090115 62.87790072 32.19198293 71.30539037 32.22631836 79.73291016 C32.2562331 87.07889245 32.27557794 94.42481379 32.28226548 101.77085531 C32.28617424 105.66004378 32.29535186 109.5490579 32.31719017 113.43819046 C32.33758817 117.10057571 32.34382716 120.76271516 32.33932304 124.42515182 C32.34053883 126.40643197 32.35666363 128.38768548 32.3732605 130.36889648 C32.36707451 132.14824081 32.36707451 132.14824081 32.36076355 133.96353149 C32.36352893 134.99040888 32.36629431 136.01728626 32.36914349 137.07528114 C31.76784553 141.83935676 29.81408106 145.84268167 26 148.8125 C21.18718408 152.32184494 16.79271265 152.71417005 11 152 C5.6964772 149.29820537 1.90167702 145.70503105 0 140 C-0.09100776 138.10986343 -0.12194863 136.21662054 -0.12025452 134.32429504 C-0.12162918 133.14218948 -0.12300385 131.96008392 -0.12442017 130.74215698 C-0.12082489 129.44383942 -0.11722961 128.14552185 -0.11352539 126.80786133 C-0.11324334 125.42812604 -0.11340159 124.0483906 -0.1139679 122.6686554 C-0.11425519 118.92100557 -0.10836937 115.17338765 -0.10139394 111.42574525 C-0.09514916 107.50996197 -0.09455571 103.59417799 -0.09336853 99.6783905 C-0.09025854 92.26237979 -0.08204961 84.8463838 -0.07201904 77.43037957 C-0.06084761 68.98790917 -0.05534485 60.54543808 -0.05032361 52.10296214 C-0.03986673 34.73529805 -0.02152536 17.36765414 0 0 Z " fill="#828E9A" transform="translate(64,336)"/>
<path d="M0 0 C5.28 0 10.56 0 16 0 C16 31.68 16 63.36 16 96 C10.72 96 5.44 96 0 96 C0 64.32 0 32.64 0 0 Z " fill="#FF826E" transform="translate(376,328)"/>
<path d="M0 0 C5.28 0 10.56 0 16 0 C16 21.12 16 42.24 16 64 C10.72 64 5.44 64 0 64 C0 42.88 0 21.76 0 0 Z " fill="#FF826E" transform="translate(248,360)"/>
<path d="M0 0 C5.28 0 10.56 0 16 0 C16 15.84 16 31.68 16 48 C10.72 48 5.44 48 0 48 C0 32.16 0 16.32 0 0 Z " fill="#FF826E" transform="translate(312,376)"/>
<path d="M0 0 C1.98 0 3.96 0 6 0 C6.4100159 4.19504509 6.81889543 8.39019908 7.22680664 12.58544922 C7.36518046 14.00702774 7.5038432 15.42857818 7.64282227 16.85009766 C10.20098035 43.02273303 10.20098035 43.02273303 10.4375 52.875 C10.48326172 53.67679688 10.52902344 54.47859375 10.57617188 55.3046875 C10.64095533 58.7297607 10.67460347 61.06052007 8.63330078 63.90332031 C6.97265625 65.5703125 6.97265625 65.5703125 4 68 C0.5856732 66.53671709 -1.68946534 64.92763398 -4 62 C-4.40264313 59.33684861 -4.51739919 57.16096504 -4.4375 54.5 C-4.4264624 53.71334961 -4.4154248 52.92669922 -4.40405273 52.11621094 C-4.08619444 39.68897678 -2.85137169 27.26871209 -1.75390625 14.890625 C-1.69341095 14.19950623 -1.63291565 13.50838745 -1.57058716 12.79632568 C-1.18037095 8.50375072 -0.64167183 4.26028588 0 0 Z " fill="#DBDEE2" transform="translate(101,200)"/>
<path d="M0 0 C5.28 0 10.56 0 16 0 C16 5.28 16 10.56 16 16 C10.72 16 5.44 16 0 16 C0 10.72 0 5.44 0 0 Z " fill="#000000" transform="translate(456,280)"/>
<path d="M0 0 C5.28 0 10.56 0 16 0 C16 5.28 16 10.56 16 16 C10.72 16 5.44 16 0 16 C0 10.72 0 5.44 0 0 Z " fill="#000000" transform="translate(456,248)"/>
<path d="M0 0 C5.28 0 10.56 0 16 0 C16 5.28 16 10.56 16 16 C10.72 16 5.44 16 0 16 C0 10.72 0 5.44 0 0 Z " fill="#000000" transform="translate(456,216)"/>
<path d="M0 0 C5.28 0 10.56 0 16 0 C16 5.28 16 10.56 16 16 C10.72 16 5.44 16 0 16 C0 10.72 0 5.44 0 0 Z " fill="#000000" transform="translate(200,40)"/>
<path d="M0 0 C5.28 0 10.56 0 16 0 C16 5.28 16 10.56 16 16 C10.72 16 5.44 16 0 16 C0 10.72 0 5.44 0 0 Z " fill="#000000" transform="translate(168,40)"/>
<path d="M0 0 C5.28 0 10.56 0 16 0 C16 5.28 16 10.56 16 16 C10.72 16 5.44 16 0 16 C0 10.72 0 5.44 0 0 Z " fill="#000000" transform="translate(136,40)"/>
<path d="M0 0 C4.0743356 0.84881992 5.54405875 2.30225596 8 5.625 C8.625 8.625 8.625 8.625 8 11.625 C5.54405875 14.94774404 4.0743356 16.40118008 0 17.25 C-4.0743356 16.40118008 -5.54405875 14.94774404 -8 11.625 C-8.625 8.625 -8.625 8.625 -8 5.625 C-5.54405875 2.30225596 -4.0743356 0.84881992 0 0 Z " fill="#F0CC6A" transform="translate(408,231.375)"/>
<path d="M0 0 C4.0743356 0.84881992 5.54405875 2.30225596 8 5.625 C8.625 8.625 8.625 8.625 8 11.625 C5.54405875 14.94774404 4.0743356 16.40118008 0 17.25 C-4.0743356 16.40118008 -5.54405875 14.94774404 -8 11.625 C-8.625 8.625 -8.625 8.625 -8 5.625 C-5.54405875 2.30225596 -4.0743356 0.84881992 0 0 Z " fill="#F0CC6A" transform="translate(328,183.375)"/>
<path d="M0 0 C4.0743356 0.84881992 5.54405875 2.30225596 8 5.625 C8.625 8.625 8.625 8.625 8 11.625 C5.54405875 14.94774404 4.0743356 16.40118008 0 17.25 C-4.0743356 16.40118008 -5.54405875 14.94774404 -8 11.625 C-8.625 8.625 -8.625 8.625 -8 5.625 C-5.54405875 2.30225596 -4.0743356 0.84881992 0 0 Z " fill="#F0CC6A" transform="translate(448,119.375)"/>
</svg>
