<?xml version="1.0" encoding="UTF-8"?>
<svg version="1.1" xmlns="http://www.w3.org/2000/svg" width="96" height="96">
<path d="M0 0 C-2.50447623 2.57603269 -4.84672342 4.89440947 -7.8125 6.9375 C-10.28632944 8.8439479 -10.28632944 8.8439479 -10.4375 11.9375 C-10.13764511 14.97366406 -10.13764511 14.97366406 -8.9375 17.5 C-7.72940538 20.72158567 -8.12296449 22.71111685 -9 26 C-9.66 26.66 -10.32 27.32 -11 28 C-8.36 28 -5.72 28 -3 28 C-3.0625 29.8125 -3.0625 29.8125 -4 32 C-9.62452581 35.531679 -15.46742713 35.49801481 -21.98828125 35.7890625 C-24.92170692 35.801008 -24.92170692 35.801008 -27 37 C-26.16021606 36.98428955 -26.16021606 36.98428955 -25.3034668 36.96826172 C-22.76485693 36.92666674 -20.2263188 36.90066315 -17.6875 36.875 C-16.80642578 36.85824219 -15.92535156 36.84148438 -15.01757812 36.82421875 C-14.17001953 36.81777344 -13.32246094 36.81132813 -12.44921875 36.8046875 C-11.66893311 36.79421387 -10.88864746 36.78374023 -10.0847168 36.77294922 C-8 37 -8 37 -5 39 C-5 39.66 -5 40.32 -5 41 C-7.5 42.625 -7.5 42.625 -10 44 C-8.68 45.32 -7.36 46.64 -6 48 C-12.19363259 52.18981028 -18.70671465 52.54390603 -26 52 C-27.42549334 51.6832237 -28.84354057 51.33024716 -30.25 50.9375 C-33.80240251 50.04939937 -35.57101579 49.92844244 -39 51 C-39 51.66 -39 52.32 -39 53 C-32.69972522 54.16838692 -26.57855003 54.22132451 -20.1875 54.25 C-19.04990234 54.270625 -17.91230469 54.29125 -16.74023438 54.3125 C-6.99195303 54.38630149 -6.99195303 54.38630149 2 51 C3.25728713 48.97637136 3.25728713 48.97637136 4 47 C4.99 47.66 5.98 48.32 7 49 C7.375 51.4375 7.375 51.4375 7 54 C3.62993291 58.54959058 -1.64493356 59.55458255 -6.91796875 60.55859375 C-12.91323545 61.41723144 -18.95450745 61.69369504 -25 62 C-13.15735356 62.56023032 0.27549356 62.78406594 10 55 C10.66 55 11.32 55 12 55 C11.49208263 58.75858852 10.89485252 60.54958024 8 63 C0.90536376 66.73386566 -6.81776824 66.41903973 -14.625 66.3125 C-15.81351563 66.31572266 -17.00203125 66.31894531 -18.2265625 66.32226562 C-29.74383098 66.25156811 -29.74383098 66.25156811 -35 64 C-35.33 63.01 -35.66 62.02 -36 61 C-38.22550395 59.86186843 -38.22550395 59.86186843 -40.875 59 C-44.26663059 57.8134237 -46.77886064 56.90969256 -49 54 C-48.875 51.4375 -48.875 51.4375 -48 49 C-44.68629 46.79086 -43.6553979 46.77518447 -39.8125 46.875 C-38.91144531 46.89304688 -38.01039062 46.91109375 -37.08203125 46.9296875 C-36.39496094 46.95289063 -35.70789062 46.97609375 -35 47 C-34.32106296 45.1186997 -34.32106296 45.1186997 -34 43 C-35.85432087 40.72855926 -35.85432087 40.72855926 -38 39 C-37.67 38.01 -37.34 37.02 -37 36 C-37.969375 35.566875 -38.93875 35.13375 -39.9375 34.6875 C-43 33 -43 33 -44 30 C-41.52062716 26.28094074 -40.28260004 26.03099631 -36 25 C-33.30696975 24.84984903 -30.70134553 24.90685015 -28 25 C-28 25.99 -28 26.98 -28 28 C-26.18757948 28.02687279 -24.37504767 28.04633715 -22.5625 28.0625 C-21.55316406 28.07410156 -20.54382813 28.08570312 -19.50390625 28.09765625 C-17.05978933 28.28612676 -17.05978933 28.28612676 -16 27 C-15.68369896 23.52068855 -15.64481964 21.57716809 -17.5 18.5625 C-19.53847908 15.08009824 -19.55846232 12.97904402 -19 9 C-15.20091661 2.74989506 -7.5816693 -2.93483973 0 0 Z M-22.75 43.5 C-23.73484375 43.5928125 -24.7196875 43.685625 -25.734375 43.78125 C-26.85585938 43.88953125 -26.85585938 43.88953125 -28 44 C-28 44.33 -28 44.66 -28 45 C-26.06280622 45.05406122 -24.12518079 45.09282025 -22.1875 45.125 C-21.10855469 45.14820313 -20.02960937 45.17140625 -18.91796875 45.1953125 C-15.80597132 45.23023717 -15.80597132 45.23023717 -13 43 C-16.31242304 43 -19.45930211 43.1866002 -22.75 43.5 Z " fill="#185AA8" transform="translate(66,22)"/>
<path d="M0 0 C-2.50447623 2.57603269 -4.84672342 4.89440947 -7.8125 6.9375 C-10.28632944 8.8439479 -10.28632944 8.8439479 -10.4375 11.9375 C-10.13764511 14.97366406 -10.13764511 14.97366406 -8.9375 17.5 C-7.72940538 20.72158567 -8.12296449 22.71111685 -9 26 C-9.66 26.66 -10.32 27.32 -11 28 C-8.36 28 -5.72 28 -3 28 C-3.0625 29.8125 -3.0625 29.8125 -4 32 C-12.96028508 37.83460424 -25.8995626 35.1543357 -36 34 C-36 33.34 -36 32.68 -36 32 C-38.31 32 -40.62 32 -43 32 C-43.33 31.34 -43.66 30.68 -44 30 C-41.52062716 26.28094074 -40.28260004 26.03099631 -36 25 C-33.30696975 24.84984903 -30.70134553 24.90685015 -28 25 C-28 25.99 -28 26.98 -28 28 C-26.18757948 28.02687279 -24.37504767 28.04633715 -22.5625 28.0625 C-21.55316406 28.07410156 -20.54382813 28.08570312 -19.50390625 28.09765625 C-17.05978933 28.28612676 -17.05978933 28.28612676 -16 27 C-15.68369896 23.52068855 -15.64481964 21.57716809 -17.5 18.5625 C-19.53847908 15.08009824 -19.55846232 12.97904402 -19 9 C-15.20091661 2.74989506 -7.5816693 -2.93483973 0 0 Z " fill="#1A60B3" transform="translate(66,22)"/>
<path d="M0 0 C0.99 0 1.98 0 3 0 C3.97943159 4.69488405 4.41830686 7.98151373 2.5625 12.5 C0.61213112 15.47724154 -1.80251608 17.92644675 -4.25 20.5 C-6.94398012 23.46538856 -7.92116662 24.61897201 -8.75 28.625 C-7.8308547 32.76115385 -6.24738464 35.41823073 -4 39 C-4 39.66 -4 40.32 -4 41 C-7.53383267 40.42400084 -9.16912771 39.1890605 -11.625 36.625 C-12.51058594 35.71621094 -12.51058594 35.71621094 -13.4140625 34.7890625 C-16.45863951 31.35453967 -17.63160431 28.82789674 -17.50390625 24.1796875 C-16.11755068 18.18289365 -10.22731486 14.15566647 -5.6875 10.4375 C-1.87724289 7.23894761 -0.79541592 4.87192252 0 0 Z " fill="#DE3E31" transform="translate(52,9)"/>
<path d="M0 0 C0.66 0.33 1.32 0.66 2 1 C1.649375 1.763125 1.29875 2.52625 0.9375 3.3125 C-0.32360884 6.04759379 -0.32360884 6.04759379 1 9 C2.32 9 3.64 9 5 9 C5 9.66 5 10.32 5 11 C5.69867188 10.97679688 6.39734375 10.95359375 7.1171875 10.9296875 C8.02726562 10.91164063 8.93734375 10.89359375 9.875 10.875 C11.23238281 10.84019531 11.23238281 10.84019531 12.6171875 10.8046875 C15 11 15 11 17 13 C16.01 13.33 15.02 13.66 14 14 C26.68050112 16.40323827 38.93500208 15.53195273 51 11 C52.35731338 10.0327988 53.69884319 9.04152231 55 8 C55.66 8 56.32 8 57 8 C56.49208263 11.75858852 55.89485252 13.54958024 53 16 C45.90536376 19.73386566 38.18223176 19.41903973 30.375 19.3125 C28.59222656 19.31733398 28.59222656 19.31733398 26.7734375 19.32226562 C15.25616902 19.25156811 15.25616902 19.25156811 10 17 C9.67 16.01 9.34 15.02 9 14 C6.77449605 12.86186843 6.77449605 12.86186843 4.125 12 C0.73336941 10.8134237 -1.77886064 9.90969256 -4 7 C-3.875 4.4375 -3.875 4.4375 -3 2 C-2.01 1.34 -1.02 0.68 0 0 Z " fill="#1C5499" transform="translate(21,69)"/>
<path d="M0 0 C-2.50447623 2.57603269 -4.84672342 4.89440947 -7.8125 6.9375 C-10.28632944 8.8439479 -10.28632944 8.8439479 -10.4375 11.9375 C-10.13764511 14.97366406 -10.13764511 14.97366406 -8.9375 17.5 C-7.72940538 20.72158567 -8.12296449 22.71111685 -9 26 C-9.66 26.66 -10.32 27.32 -11 28 C-13.125 27.625 -13.125 27.625 -15 27 C-15.433125 25.39125 -15.433125 25.39125 -15.875 23.75 C-16.78999111 20.20239987 -16.78999111 20.20239987 -18.125 18 C-19.52018026 14.81101655 -19.4147609 12.43659034 -19 9 C-15.20091661 2.74989506 -7.5816693 -2.93483973 0 0 Z " fill="#E04236" transform="translate(66,22)"/>
<path d="M0 0 C2.875 -0.5 2.875 -0.5 6 0 C8.55392428 2.09552762 9.83268731 3.5934391 10.23046875 6.9375 C10.01553942 11.14056239 9.22602288 12.75295174 6.3125 15.9375 C3.01148993 17.99284589 0.84106877 18.72563795 -3 19 C-1.96412819 16.76889149 -0.99447589 14.99362603 0.625 13.125 C2.43937089 10.32097226 2.2230809 8.27185323 2 5 C0.68 4.34 -0.64 3.68 -2 3 C-1.34 2.01 -0.68 1.02 0 0 Z " fill="#225BA3" transform="translate(66,47)"/>
<path d="M0 0 C1.29550781 -0.00257812 2.59101562 -0.00515625 3.92578125 -0.0078125 C7.28312923 0.11072315 10.3958127 0.48197271 13.6875 1.125 C13.6875 1.785 13.6875 2.445 13.6875 3.125 C7.16473597 7.56603083 2.48625338 7.64660363 -5.1875 6.8125 C-7.63521612 6.02059184 -8.76216255 5.1649177 -10.3125 3.125 C-10.3125 2.465 -10.3125 1.805 -10.3125 1.125 C-6.72108866 -0.07213711 -3.78569892 -0.00748902 0 0 Z " fill="#185CAF" transform="translate(42.3125,66.875)"/>
<path d="M0 0 C0.66 0.33 1.32 0.66 2 1 C1.649375 1.763125 1.29875 2.52625 0.9375 3.3125 C-0.32360884 6.04759379 -0.32360884 6.04759379 1 9 C2.32 9 3.64 9 5 9 C5 9.66 5 10.32 5 11 C5.69867188 10.97679688 6.39734375 10.95359375 7.1171875 10.9296875 C8.02726562 10.91164063 8.93734375 10.89359375 9.875 10.875 C11.23238281 10.84019531 11.23238281 10.84019531 12.6171875 10.8046875 C15 11 15 11 17 13 C16.01 13.33 15.02 13.66 14 14 C16.97 14.495 16.97 14.495 20 15 C19.34 16.32 18.68 17.64 18 19 C16.68428397 18.7452486 15.37239624 18.47065859 14.0625 18.1875 C13.33160156 18.03667969 12.60070312 17.88585937 11.84765625 17.73046875 C11.23792969 17.48941406 10.62820312 17.24835938 10 17 C9.67 16.01 9.34 15.02 9 14 C6.77449605 12.86186843 6.77449605 12.86186843 4.125 12 C0.73336941 10.8134237 -1.77886064 9.90969256 -4 7 C-3.875 4.4375 -3.875 4.4375 -3 2 C-2.01 1.34 -1.02 0.68 0 0 Z " fill="#175AA0" transform="translate(21,69)"/>
<path d="M0 0 C0.33 0 0.66 0 1 0 C1 1.98 1 3.96 1 6 C1.66 6.33 2.32 6.66 3 7 C2.67 8.32 2.34 9.64 2 11 C2.66 11 3.32 11 4 11 C4.83848804 12.45537568 5.67063934 13.91440373 6.5 15.375 C6.9640625 16.18710937 7.428125 16.99921875 7.90625 17.8359375 C9 20 9 20 9 22 C3.96516364 21.17175852 1.8683593 17.96508492 -1 14 C-2.8214606 10.52266613 -3.22328622 7.90750883 -3 4 C-2.34 4 -1.68 4 -1 4 C-0.67 2.68 -0.34 1.36 0 0 Z " fill="#EC443C" transform="translate(39,28)"/>
<path d="M0 0 C0.99 0.66 1.98 1.32 3 2 C3.375 4.4375 3.375 4.4375 3 7 C1.1279199 9.52730814 -1.07967077 10.88340353 -4 12 C-6.75 12.125 -6.75 12.125 -9 12 C-8.67 11.01 -8.34 10.02 -8 9 C-8.99 8.34 -9.98 7.68 -11 7 C-10.37351563 6.82984375 -9.74703125 6.6596875 -9.1015625 6.484375 C-8.28429688 6.24203125 -7.46703125 5.9996875 -6.625 5.75 C-5.81289062 5.51796875 -5.00078125 5.2859375 -4.1640625 5.046875 C-1.54214546 3.7785108 -1.00617682 2.67576692 0 0 Z " fill="#1C5AA5" transform="translate(70,69)"/>
<path d="M0 0 C1.33471135 0.32777203 2.66776991 0.66228433 4 1 C5.58211573 1.06548492 7.16670081 1.08578381 8.75 1.0625 C9.94882812 1.04896484 9.94882812 1.04896484 11.171875 1.03515625 C12.07679687 1.01775391 12.07679687 1.01775391 13 1 C12.7109375 2.8828125 12.7109375 2.8828125 12 5 C8.625 6.875 8.625 6.875 5 8 C4.01 7.34 3.02 6.68 2 6 C3.98 5.67 5.96 5.34 8 5 C8 4.34 8 3.68 8 3 C5.69 3 3.38 3 1 3 C1 3.33 1 3.66 1 4 C-4.61 4 -10.22 4 -16 4 C-16 3.67 -16 3.34 -16 3 C-14.39318359 2.80083984 -14.39318359 2.80083984 -12.75390625 2.59765625 C-11.35674231 2.4194944 -9.95960841 2.24109681 -8.5625 2.0625 C-7.85544922 1.97548828 -7.14839844 1.88847656 -6.41992188 1.79882812 C-2.91182032 1.61783809 -2.91182032 1.61783809 0 0 Z " fill="#1E427C" transform="translate(50,49)"/>
<path d="M0 0 C0.99 0 1.98 0 3 0 C4.09644404 5.94457613 4.41029848 9.67993436 1 15 C0.67 15 0.34 15 0 15 C0 13.02 0 11.04 0 9 C-0.66 9 -1.32 9 -2 9 C-2 9.66 -2 10.32 -2 11 C-2.66 11 -3.32 11 -4 11 C-4 11.66 -4 12.32 -4 13 C-4.66 13 -5.32 13 -6 13 C-6 13.66 -6 14.32 -6 15 C-6.99 15.33 -7.98 15.66 -9 16 C-7.66338822 13.04912279 -6.15046114 10.91682966 -3.9375 8.5625 C-1.47729639 5.78504386 -0.23131898 3.81676309 0 0 Z " fill="#E2463C" transform="translate(52,9)"/>
<path d="M0 0 C0.66 0 1.32 0 2 0 C2.4375 3.0625 2.4375 3.0625 2 7 C-0.05546504 9.66849847 -2.42480469 11.83867536 -5 14 C-5.33 12.68 -5.66 11.36 -6 10 C-6.66 10 -7.32 10 -8 10 C-8 8.35 -8 6.7 -8 5 C-6.68 5.33 -5.36 5.66 -4 6 C-4 5.34 -4 4.68 -4 4 C-3.34 4 -2.68 4 -2 4 C-2 3.34 -2 2.68 -2 2 C-1.34 2 -0.68 2 0 2 C0 1.34 0 0.68 0 0 Z " fill="#ED3F36" transform="translate(50,18)"/>
<path d="M0 0 C5.61 0 11.22 0 17 0 C17 0.66 17 1.32 17 2 C13.37 2 9.74 2 6 2 C6 2.66 6 3.32 6 4 C4.02 4 2.04 4 0 4 C0 4.66 0 5.32 0 6 C0.99 6.33 1.98 6.66 3 7 C2.67 7.66 2.34 8.32 2 9 C1.01 8.67 0.02 8.34 -1 8 C-1 7.34 -1 6.68 -1 6 C-1.99 5.67 -2.98 5.34 -4 5 C-3.01 5 -2.02 5 -1 5 C-0.67 3.35 -0.34 1.7 0 0 Z " fill="#1E5492" transform="translate(32,64)"/>
<path d="M0 0 C2.77109307 -0.05392397 5.54113818 -0.09363455 8.3125 -0.125 C9.09818359 -0.14175781 9.88386719 -0.15851563 10.69335938 -0.17578125 C11.45068359 -0.18222656 12.20800781 -0.18867187 12.98828125 -0.1953125 C13.68477783 -0.20578613 14.38127441 -0.21625977 15.09887695 -0.22705078 C17 0 17 0 20 2 C17.22276075 2.78688445 14.77389923 3.11949924 11.890625 3.09765625 C11.13652344 3.09443359 10.38242187 3.09121094 9.60546875 3.08789062 C8.82816406 3.07951172 8.05085938 3.07113281 7.25 3.0625 C6.45722656 3.05798828 5.66445313 3.05347656 4.84765625 3.04882812 C2.89840492 3.03708565 0.94919262 3.01915146 -1 3 C-0.67 2.01 -0.34 1.02 0 0 Z " fill="#1A57A3" transform="translate(40,85)"/>
<path d="M0 0 C2.31 0 4.62 0 7 0 C7 0.66 7 1.32 7 2 C10.63 2 14.26 2 18 2 C18 2.66 18 3.32 18 4 C16.02 4 14.04 4 12 4 C11.67 4.66 11.34 5.32 11 6 C11 5.34 11 4.68 11 4 C10.34 4 9.68 4 9 4 C9 4.66 9 5.32 9 6 C8.34 6 7.68 6 7 6 C7 6.66 7 7.32 7 8 C7.66 8.33 8.32 8.66 9 9 C8.01 9 7.02 9 6 9 C5.67 8.01 5.34 7.02 5 6 C5.33 5.34 5.66 4.68 6 4 C4.02 3.01 2.04 2.02 0 1 C0 0.67 0 0.34 0 0 Z " fill="#1C4C8A" transform="translate(23,54)"/>
<path d="M0 0 C2.97 0.495 2.97 0.495 6 1 C5.01 1.495 5.01 1.495 4 2 C4 2.66 4 3.32 4 4 C7.3 4 10.6 4 14 4 C14 4.66 14 5.32 14 6 C8.72 6 3.44 6 -2 6 C-2 4.68 -2 3.36 -2 2 C-1.34 2 -0.68 2 0 2 C0 1.34 0 0.68 0 0 Z " fill="#1862BC" transform="translate(32,58)"/>
<path d="M0 0 C0.33 0 0.66 0 1 0 C1 1.98 1 3.96 1 6 C2.65 6 4.3 6 6 6 C6 6.33 6 6.66 6 7 C8.31 7.33 10.62 7.66 13 8 C13 8.66 13 9.32 13 10 C9.7 10 6.4 10 3 10 C3 9.34 3 8.68 3 8 C1.68 8 0.36 8 -1 8 C-1 7.34 -1 6.68 -1 6 C-1.66 5.67 -2.32 5.34 -3 5 C-2.03114628 3.31503702 -1.03013277 1.64821244 0 0 Z " fill="#1364BE" transform="translate(23,70)"/>
<path d="M0 0 C0 0.99 0 1.98 0 3 C-4.33273814 3.92844389 -7.66726186 3.92844389 -12 3 C-12 3.66 -12 4.32 -12 5 C-13.32 5.33 -14.64 5.66 -16 6 C-15.375 4.125 -15.375 4.125 -14 2 C-9.28493603 -0.24526856 -5.10467806 -0.17602338 0 0 Z " fill="#1D4C86" transform="translate(38,47)"/>
<path d="M0 0 C0.66 1.32 1.32 2.64 2 4 C1.01 4.495 1.01 4.495 0 5 C0 5.66 0 6.32 0 7 C0.66 7 1.32 7 2 7 C2 8.32 2 9.64 2 11 C2.66 11 3.32 11 4 11 C4.103125 12.11375 4.20625 13.2275 4.3125 14.375 C4.539375 15.57125 4.76625 16.7675 5 18 C5.99 18.66 6.98 19.32 8 20 C6.68 20.33 5.36 20.66 4 21 C3.54625 19.7625 3.0925 18.525 2.625 17.25 C1.79799603 15.01199399 1.00440488 13.00765058 -0.1875 10.9375 C-1.44057588 7.94939599 -1.17739714 5.19314859 -1 2 C-0.67 1.34 -0.34 0.68 0 0 Z " fill="#CC3E3A" transform="translate(48,29)"/>
<path d="M0 0 C1.65 0 3.3 0 5 0 C4.01 0.66 3.02 1.32 2 2 C4.97 2.495 4.97 2.495 8 3 C7.34 4.32 6.68 5.64 6 7 C4.68428397 6.7452486 3.37239624 6.47065859 2.0625 6.1875 C1.33160156 6.03667969 0.60070313 5.88585937 -0.15234375 5.73046875 C-0.76207031 5.48941406 -1.37179688 5.24835938 -2 5 C-2.33 4.01 -2.66 3.02 -3 2 C-2.01 2 -1.02 2 0 2 C0 1.34 0 0.68 0 0 Z " fill="#0F3E74" transform="translate(33,81)"/>
<path d="M0 0 C2.64 0 5.28 0 8 0 C8 2.97 8 5.94 8 9 C7.34 9 6.68 9 6 9 C6 9.66 6 10.32 6 11 C5.34 11 4.68 11 4 11 C4 7.7 4 4.4 4 1 C2.68 0.67 1.36 0.34 0 0 Z " fill="#1363BC" transform="translate(66,49)"/>
<path d="M0 0 C2.4375 1.25 2.4375 1.25 4.4375 4.25 C0.00673077 7.32692308 0.00673077 7.32692308 -2.875 6.9375 C-3.431875 6.710625 -3.98875 6.48375 -4.5625 6.25 C-2.9125 5.59 -1.2625 4.93 0.4375 4.25 C0.4375 3.59 0.4375 2.93 0.4375 2.25 C-1.5425 2.25 -3.5225 2.25 -5.5625 2.25 C-5.5625 1.59 -5.5625 0.93 -5.5625 0.25 C-2.5625 -0.75 -2.5625 -0.75 0 0 Z " fill="#1C5092" transform="translate(55.5625,65.75)"/>
<path d="M0 0 C3.3 0.33 6.6 0.66 10 1 C10 1.66 10 2.32 10 3 C7.18230651 5.17364926 5.7809319 6.08677021 2.1875 5.6875 C1.465625 5.460625 0.74375 5.23375 0 5 C0 4.34 0 3.68 0 3 C0.66 3 1.32 3 2 3 C2 2.34 2 1.68 2 1 C1.34 0.67 0.68 0.34 0 0 Z " fill="#1664BF" transform="translate(46,67)"/>
<path d="M0 0 C0.79921875 0.00902344 1.5984375 0.01804687 2.421875 0.02734375 C3.02515625 0.03894531 3.6284375 0.05054687 4.25 0.0625 C4.58 0.7225 4.91 1.3825 5.25 2.0625 C0.47426677 4.68145048 -3.59434881 3.89369431 -8.75 3.0625 C-8.75 2.4025 -8.75 1.7425 -8.75 1.0625 C-5.75519083 0.1901588 -3.11424089 -0.04579766 0 0 Z " fill="#1B63BC" transform="translate(58.75,76.9375)"/>
<path d="M0 0 C1.81325551 0.11351517 3.62563357 0.24112961 5.4375 0.375 C6.95150391 0.47941406 6.95150391 0.47941406 8.49609375 0.5859375 C9.73552734 0.79089844 9.73552734 0.79089844 11 1 C11.33 1.66 11.66 2.32 12 3 C8.0186217 4.3271261 4.14954773 4.06915913 0 4 C0 2.68 0 1.36 0 0 Z " fill="#15539C" transform="translate(48,79)"/>
<path d="M0 0 C1.98 0 3.96 0 6 0 C6 1.98 6 3.96 6 6 C5.34 6 4.68 6 4 6 C4 5.34 4 4.68 4 4 C1.69 4 -0.62 4 -3 4 C-2.67 3.34 -2.34 2.68 -2 2 C-1.34 2 -0.68 2 0 2 C0 1.34 0 0.68 0 0 Z " fill="#1465BD" transform="translate(26,50)"/>
<path d="M0 0 C3 1 3 1 4.6875 3.9375 C6 7 6 7 6 9 C3.68001641 8.60000283 2.13676576 8.09432121 0.1875 6.75 C-1 5 -1 5 -0.6875 2.3125 C-0.460625 1.549375 -0.23375 0.78625 0 0 Z " fill="#A64249" transform="translate(42,41)"/>
<path d="M0 0 C0.99 0 1.98 0 3 0 C4.09644404 5.94457613 4.41029848 9.67993436 1 15 C0.67 13.68 0.34 12.36 0 11 C0.66 11 1.32 11 2 11 C1.67 9.9275 1.34 8.855 1 7.75 C0 4 0 4 0 0 Z " fill="#AE4238" transform="translate(52,9)"/>
<path d="M0 0 C1.0725 -0.01417969 2.145 -0.02835938 3.25 -0.04296875 C6 0.1875 6 0.1875 8 2.1875 C4.99686252 3.68906874 2.20932478 3.28031204 -1.125 3.25 C-2.40632813 3.24097656 -3.68765625 3.23195312 -5.0078125 3.22265625 C-6.48894531 3.20525391 -6.48894531 3.20525391 -8 3.1875 C-8 2.5275 -8 1.8675 -8 1.1875 C-5.27457733 -0.17521133 -3.03912726 0.01826399 0 0 Z " fill="#1E5898" transform="translate(44,58.8125)"/>
<path d="M0 0 C3.125 -0.1875 3.125 -0.1875 6 0 C6 0.99 6 1.98 6 3 C5.34 3 4.68 3 4 3 C4.33 4.98 4.66 6.96 5 9 C4.5875 8.38125 4.175 7.7625 3.75 7.125 C1.94426121 4.93231719 0.5909466 4.07211583 -2 3 C-1.34 2.01 -0.68 1.02 0 0 Z " fill="#1B4E92" transform="translate(66,47)"/>
<path d="M0 0 C1.32 0 2.64 0 4 0 C4 0.66 4 1.32 4 2 C4.66 2 5.32 2 6 2 C6 3.98 6 5.96 6 8 C5.34 8 4.68 8 4 8 C4 7.34 4 6.68 4 6 C3.34 6 2.68 6 2 6 C2 4.68 2 3.36 2 2 C1.34 2 0.68 2 0 2 C0 1.34 0 0.68 0 0 Z " fill="#F64036" transform="translate(48,34)"/>
<path d="M0 0 C0.598125 0.226875 1.19625 0.45375 1.8125 0.6875 C1.1525 0.6875 0.4925 0.6875 -0.1875 0.6875 C-0.1875 1.3475 -0.1875 2.0075 -0.1875 2.6875 C-0.8475 2.6875 -1.5075 2.6875 -2.1875 2.6875 C-2.1875 3.3475 -2.1875 4.0075 -2.1875 4.6875 C-2.8475 4.6875 -3.5075 4.6875 -4.1875 4.6875 C-4.1875 5.3475 -4.1875 6.0075 -4.1875 6.6875 C-3.1975 6.6875 -2.2075 6.6875 -1.1875 6.6875 C-1.5175 8.0075 -1.8475 9.3275 -2.1875 10.6875 C-2.1875 10.0275 -2.1875 9.3675 -2.1875 8.6875 C-3.1775 8.3575 -4.1675 8.0275 -5.1875 7.6875 C-5.41803497 4.84423536 -5.54653101 3.22604651 -3.9375 0.8125 C-2.1875 -0.3125 -2.1875 -0.3125 0 0 Z " fill="#DF4B42" transform="translate(54.1875,25.3125)"/>
<path d="M0 0 C0.99 0.33 1.98 0.66 3 1 C2.01 1.495 2.01 1.495 1 2 C0.67 2.99 0.34 3.98 0 5 C-0.66 5 -1.32 5 -2 5 C-1.01 8.3 -0.02 11.6 1 15 C0.34 15 -0.32 15 -1 15 C-3.45416273 11.3187559 -3.59384154 8.27738037 -3 4 C-1.5 1.5 -1.5 1.5 0 0 Z " fill="#CA3E3A" transform="translate(38,27)"/>
<path d="M0 0 C2.0078125 0.23046875 2.0078125 0.23046875 5.0078125 2.23046875 C3.38457164 2.45209204 1.7590915 2.65736678 0.1328125 2.85546875 C-1.22457031 3.02949219 -1.22457031 3.02949219 -2.609375 3.20703125 C-3.39570312 3.21476562 -4.18203125 3.2225 -4.9921875 3.23046875 C-5.6521875 2.57046875 -6.3121875 1.91046875 -6.9921875 1.23046875 C-5.11574989 -0.64596886 -2.49413049 0.05061888 0 0 Z " fill="#1463BB" transform="translate(54.9921875,84.76953125)"/>
<path d="M0 0 C0.33 0.99 0.66 1.98 1 3 C1.99 3 2.98 3 4 3 C4 3.66 4 4.32 4 5 C1.03 5 -1.94 5 -5 5 C-4.67 3.68 -4.34 2.36 -4 1 C-2.68 0.67 -1.36 0.34 0 0 Z " fill="#194E8C" transform="translate(61,83)"/>
<path d="M0 0 C1.32 0 2.64 0 4 0 C4 0.66 4 1.32 4 2 C7.3 2 10.6 2 14 2 C10.68735796 4.20842803 10.16548604 4.19725756 6.4375 3.6875 C5.65246094 3.58824219 4.86742187 3.48898438 4.05859375 3.38671875 C2 3 2 3 0 2 C0 1.34 0 0.68 0 0 Z " fill="#20589A" transform="translate(22,78)"/>
<path d="M0 0 C-1.65 1.65 -3.3 3.3 -5 5 C-7 2 -7 2 -7 0 C-4.3333581 -1.33332095 -2.83319697 -0.67102033 0 0 Z " fill="#9F3633" transform="translate(66,22)"/>
<path d="M0 0 C2.97 0.33 5.94 0.66 9 1 C8.67 1.66 8.34 2.32 8 3 C6.35 3 4.7 3 3 3 C3.33 4.32 3.66 5.64 4 7 C3.34 7 2.68 7 2 7 C2 5.02 2 3.04 2 1 C1.34 0.67 0.68 0.34 0 0 Z " fill="#1E62AF" transform="translate(22,69)"/>
<path d="M0 0 C0.66 0.66 1.32 1.32 2 2 C-1.51187196 4.40814077 -3.72656908 5.36629408 -8 5 C-5.64722731 2.27573689 -3.37503669 1.1858237 0 0 Z " fill="#175297" transform="translate(69,76)"/>
<path d="M0 0 C1.98 0 3.96 0 6 0 C4.35830472 2.02054804 2.69088222 4.02043058 1 6 C0.67 6 0.34 6 0 6 C0 4.02 0 2.04 0 0 Z " fill="#E64742" transform="translate(44,26)"/>
<path d="M0 0 C2.64 0 5.28 0 8 0 C8 0.99 8 1.98 8 3 C6.68 3.33 5.36 3.66 4 4 C4 3.34 4 2.68 4 2 C2.68 1.67 1.36 1.34 0 1 C0 0.67 0 0.34 0 0 Z " fill="#1B3866" transform="translate(30,47)"/>
<path d="M0 0 C2.64 0 5.28 0 8 0 C8 0.99 8 1.98 8 3 C7.34 3 6.68 3 6 3 C5.67 4.32 5.34 5.64 5 7 C4.67 5.02 4.34 3.04 4 1 C2.68 0.67 1.36 0.34 0 0 Z " fill="#1E63AF" transform="translate(66,49)"/>
<path d="M0 0 C1.98 0 3.96 0 6 0 C5.34 1.32 4.68 2.64 4 4 C2.35 3.67 0.7 3.34 -1 3 C-0.67 2.01 -0.34 1.02 0 0 Z " fill="#214979" transform="translate(35,84)"/>
<path d="M0 0 C1.98 0 3.96 0 6 0 C6 0.99 6 1.98 6 3 C4.02 3 2.04 3 0 3 C0 2.01 0 1.02 0 0 Z " fill="#1562BF" transform="translate(42,80)"/>
<path d="M0 0 C1.65 0 3.3 0 5 0 C5.33 0.99 5.66 1.98 6 3 C4.02 3 2.04 3 0 3 C0 2.01 0 1.02 0 0 Z " fill="#1862B3" transform="translate(62,83)"/>
<path d="M0 0 C2.64 0 5.28 0 8 0 C7.67 0.99 7.34 1.98 7 3 C2.25 2.25 2.25 2.25 0 0 Z " fill="#0D60B1" transform="translate(38,67)"/>
</svg>
