<?xml version="1.0" encoding="UTF-8"?>
<svg version="1.1" xmlns="http://www.w3.org/2000/svg" width="512" height="512">
<path d="M0 0 C0.98290512 -0.01283524 1.96581024 -0.02567047 2.97850037 -0.03889465 C4.59221275 -0.04997505 4.59221275 -0.04997505 6.23852539 -0.0612793 C7.34861465 -0.06935104 8.45870392 -0.07742279 9.60243225 -0.08573914 C11.96898831 -0.09961592 14.33556469 -0.11032186 16.70214844 -0.11816406 C20.26221321 -0.13514522 23.82129171 -0.17896857 27.38110352 -0.22338867 C44.89615702 -0.34415405 62.1034752 -0.21111208 76.39868164 11.17700195 C77.13473633 11.74676758 77.87079102 12.3165332 78.62915039 12.90356445 C85.86138865 18.84675462 90.33189432 25.72333617 94.52368164 33.98950195 C94.84852539 34.62879639 95.17336914 35.26809082 95.50805664 35.92675781 C99.98615764 45.0479305 102.97743503 54.58059909 105.39868164 64.42700195 C105.65359375 65.45986328 105.90850586 66.49272461 106.17114258 67.55688477 C119.18332428 121.55825928 117.48909753 177.33386916 88.35961914 226.2434082 C82.97246063 234.30268319 76.28036083 241.46562728 67.52368164 245.80200195 C66.72188477 246.20676758 65.92008789 246.6115332 65.09399414 247.02856445 C59.11635289 249.57555942 53.61031777 250.46845299 47.15394592 250.41751099 C46.35167224 250.41921984 45.54939855 250.42092869 44.72281355 250.42268932 C42.04965429 250.42596881 39.3767492 250.41500606 36.70361328 250.40405273 C34.78142299 250.40348829 32.85923227 250.40380583 30.93704224 250.40493774 C25.72890725 250.40551095 20.52086461 250.3937618 15.31275105 250.37978983 C9.86617455 250.36727714 4.41959586 250.36611154 -1.0269928 250.36373901 C-11.33636815 250.35752584 -21.64570102 250.34111719 -31.95505768 250.32104003 C-43.69380572 250.29867601 -55.4325558 250.28768633 -67.17131984 250.27764916 C-91.31467622 250.25675084 -115.45799491 250.22157798 -139.60131836 250.17700195 C-139.60131836 254.79700195 -139.60131836 259.41700195 -139.60131836 264.17700195 C-138.08764175 264.17478134 -136.57396515 264.17256073 -135.01441956 264.17027283 C-120.78421742 264.15004506 -106.55402034 264.13497161 -92.32380772 264.12518978 C-85.00704434 264.12002689 -77.69029166 264.11298433 -70.37353516 264.1015625 C-63.99848818 264.09161545 -57.62344895 264.08514848 -51.24839443 264.08291346 C-47.87083822 264.08160639 -44.4933042 264.07852077 -41.11575508 264.0712719 C-37.35124493 264.06406583 -33.58678151 264.06301083 -29.82226562 264.06347656 C-28.69442154 264.05988129 -27.56657745 264.05628601 -26.40455627 264.05258179 C-24.87532532 264.05464378 -24.87532532 264.05464378 -23.31520081 264.05674744 C-22.42382699 264.05582564 -21.53245317 264.05490385 -20.61406803 264.05395412 C-18.60131836 264.17700195 -18.60131836 264.17700195 -17.60131836 265.17700195 C-17.48680274 266.85675427 -17.44169975 268.54129196 -17.42431641 270.22485352 C-17.40506355 271.8435434 -17.40506355 271.8435434 -17.38542175 273.49493408 C-17.37803482 274.67392273 -17.37064789 275.85291138 -17.36303711 277.06762695 C-17.35496536 278.27835876 -17.34689362 279.48909058 -17.33857727 280.73651123 C-17.32470647 283.31236326 -17.31399782 285.8882339 -17.30615234 288.46411133 C-17.28907304 292.36877629 -17.24522884 296.27256503 -17.20092773 300.17700195 C-17.1907894 302.68220407 -17.18227688 305.18741339 -17.17553711 307.69262695 C-17.14927498 309.42467377 -17.14927498 309.42467377 -17.1224823 311.19171143 C-17.16302701 326.67127735 -22.79465184 339.85363521 -33.31616211 351.0715332 C-50.6783453 367.31357555 -72.79899325 374.5322236 -95.56913757 379.71003723 C-97.3640033 380.1224705 -99.15399701 380.5559835 -100.94311523 380.99267578 C-112.7365891 383.57352593 -124.41256888 383.70137114 -136.45141602 383.67797852 C-139.93583745 383.67701317 -143.41799796 383.71861873 -146.90209961 383.76293945 C-182.71508093 383.9546598 -222.53898821 375.11594019 -249.19506836 349.7043457 C-262.62671859 335.57872687 -264.75432214 320.6487392 -264.74658203 301.94116211 C-264.74994064 300.75928818 -264.75329926 299.57741425 -264.75675964 298.35972595 C-264.76620713 294.47849457 -264.7682095 290.5973066 -264.76928711 286.71606445 C-264.77071262 285.36974443 -264.77230899 284.02342457 -264.77407265 282.67710495 C-264.78329715 275.62823817 -264.78741104 268.57939019 -264.78662109 261.53051758 C-264.78602059 254.99240467 -264.79657448 248.45437433 -264.81236476 241.9162823 C-264.8254982 236.27432232 -264.83080259 230.63238915 -264.83016568 224.99041402 C-264.82991246 221.63329989 -264.83360644 218.27631755 -264.84334373 214.91920853 C-264.85320224 211.16994725 -264.85024261 207.42089592 -264.84423828 203.67163086 C-264.84985779 202.58034378 -264.85547729 201.4890567 -264.86126709 200.36470032 C-264.77462695 178.94503095 -257.69953982 162.27522341 -242.60131836 147.17700195 C-229.2217451 135.25370878 -213.74305474 131.52856999 -196.1171875 131.71044922 C-194.74193641 131.70989843 -193.36668505 131.7075111 -191.99143982 131.70346069 C-189.06301607 131.69834014 -186.13497129 131.70519116 -183.20659065 131.72171211 C-178.55920416 131.74715045 -173.91217806 131.74046108 -169.26475525 131.72923279 C-157.72693693 131.70619136 -146.1892287 131.7243791 -134.65142822 131.75073242 C-125.66730686 131.77077172 -116.68348109 131.77909875 -107.69935888 131.75379604 C-103.84347938 131.74400179 -99.98816767 131.74411911 -96.13234138 131.76858711 C-69.82206509 131.93069172 -47.70099077 128.88130621 -27.89819336 109.53637695 C-16.11587923 96.90742948 -6.45019098 80.8491144 -6.29833984 63.06420898 C-6.28990051 62.39179672 -6.28146118 61.71938446 -6.27276611 61.02659607 C-6.24721046 58.82932749 -6.23490497 56.63219247 -6.22241211 54.43481445 C-6.20622199 52.90020708 -6.18904041 51.36560989 -6.1709137 49.83102417 C-6.12542103 45.81035039 -6.09050398 41.78966284 -6.05871582 37.76885986 C-6.00663872 31.31241761 -5.94183684 24.85612342 -5.87050056 18.39986801 C-5.84762744 16.14355572 -5.83139032 13.88726265 -5.81578064 11.63088989 C-5.80238232 10.25840026 -5.78876825 8.88591272 -5.77490234 7.51342773 C-5.76539047 6.31098419 -5.7558786 5.10854065 -5.74607849 3.86965942 C-5.50808015 -0.5573054 -4.00390158 0.0454479 0 0 Z M-88.85131836 305.11450195 C-89.33084961 305.57727539 -89.81038086 306.04004883 -90.30444336 306.5168457 C-94.59203057 312.00547391 -94.27367254 318.55689927 -93.60131836 325.17700195 C-91.8387726 331.78097089 -87.17364191 336.42221362 -81.60131836 340.17700195 C-75.23363299 342.38022109 -67.56135065 341.94310184 -61.41772461 339.2746582 C-55.91126515 335.94709883 -52.75539828 330.72803918 -51.00756836 324.6418457 C-50.02987962 318.7099073 -50.57970395 313.25952363 -53.22631836 307.86450195 C-59.39618489 300.83250458 -59.39618489 300.83250458 -67.86694336 297.9387207 C-69.83920898 297.90198242 -69.83920898 297.90198242 -71.85131836 297.86450195 C-73.80811523 297.80842773 -73.80811523 297.80842773 -75.80444336 297.7512207 C-81.37407313 298.37579853 -84.95346455 301.24877331 -88.85131836 305.11450195 Z " fill="#FEDE57" transform="translate(396.601318359375,128.822998046875)"/>
<path d="M0 0 C0.79593504 -0.00407553 1.59187008 -0.00815105 2.41192436 -0.01235008 C6.63699951 -0.03309922 10.86204341 -0.0474405 15.0871582 -0.05688477 C18.52061074 -0.06567629 21.95364952 -0.08640267 25.38696289 -0.1184082 C58.88668408 -0.42385027 95.24548423 -0.55590545 122.21484375 22.23828125 C123.32472656 23.01945312 123.32472656 23.01945312 124.45703125 23.81640625 C125.03710938 24.285625 125.6171875 24.75484375 126.21484375 25.23828125 C126.21484375 25.89828125 126.21484375 26.55828125 126.21484375 27.23828125 C126.87484375 27.23828125 127.53484375 27.23828125 128.21484375 27.23828125 C129.94285898 29.32755402 131.52876616 31.40364276 133.08984375 33.61328125 C133.54166016 34.25088379 133.99347656 34.88848633 134.45898438 35.54541016 C137.88882948 40.51169606 140.5248748 45.41523605 142.21484375 51.23828125 C142.55334854 52.34026855 142.89185333 53.44225586 143.24061584 54.57763672 C144.68254303 60.42351376 144.5179462 66.29623414 144.52124023 72.28515625 C144.52956375 73.5773558 144.53788727 74.86955536 144.54646301 76.20091248 C144.56829582 79.72826895 144.57719251 83.25553878 144.58228946 86.78295517 C144.5859485 88.99493159 144.59219669 91.20688586 144.59929085 93.41885376 C144.62375323 101.15961692 144.63682881 108.90031346 144.64038086 116.64111328 C144.64400641 123.81659531 144.6738392 130.99164708 144.71578544 138.16699791 C144.7506848 144.35760617 144.76593272 150.5480733 144.76662689 156.73877907 C144.76741352 160.4225908 144.77586318 164.10596422 144.80462456 167.78967285 C145.01951355 197.10284215 145.01951355 197.10284215 139.21484375 210.23828125 C138.80523911 211.20942871 138.39563446 212.18057617 137.97361755 213.18115234 C131.82817915 227.13323288 119.49041981 238.8027513 105.33682632 244.37042141 C97.2094838 247.03124131 89.95206695 247.80531102 81.43261719 247.73657227 C79.46637138 247.74485046 79.46637138 247.74485046 77.46040344 247.7532959 C74.63618704 247.7651379 71.81234316 247.76484231 68.98812103 247.75470161 C64.50441981 247.73895812 60.02109046 247.75294528 55.53741455 247.77073669 C46.81996007 247.80140119 38.10262266 247.80306522 29.38512421 247.80108643 C18.30441359 247.79968925 7.22379412 247.81037534 -3.85685134 247.84966415 C-7.57572394 247.86203082 -11.29436687 247.86791316 -15.01325226 247.8581562 C-43.1265977 247.78564532 -68.89359808 249.4780794 -90.78515625 269.23828125 C-92.74468362 271.36050001 -94.6060393 273.51438507 -96.41015625 275.76953125 C-96.86390625 276.25421875 -97.31765625 276.73890625 -97.78515625 277.23828125 C-98.44515625 277.23828125 -99.10515625 277.23828125 -99.78515625 277.23828125 C-100.01203125 277.89828125 -100.23890625 278.55828125 -100.47265625 279.23828125 C-101.54737659 281.69478489 -102.61821072 283.54237468 -104.09765625 285.73828125 C-112.3770722 298.69630207 -114.07417778 312.52891596 -114.1640625 327.51953125 C-114.18026388 328.98401978 -114.19744658 330.44849775 -114.21556091 331.91296387 C-114.26093255 335.73961523 -114.29591564 339.56628112 -114.32775879 343.39306641 C-114.37995725 349.54543969 -114.44465224 355.69765974 -114.51597404 361.84983826 C-114.53882885 363.99757469 -114.55507414 366.14529114 -114.57069397 368.29309082 C-114.58418381 369.58533569 -114.59767365 370.87758057 -114.61157227 372.20898438 C-114.62584007 373.92365906 -114.62584007 373.92365906 -114.64039612 375.67297363 C-114.78515625 378.23828125 -114.78515625 378.23828125 -115.78515625 379.23828125 C-117.45943945 379.35801621 -119.13873321 379.40844055 -120.81713867 379.43115234 C-122.43098701 379.45524673 -122.43098701 379.45524673 -124.07743835 379.47982788 C-129.0573979 379.52439901 -134.0372208 379.56543622 -139.01733398 379.58837891 C-141.63103199 379.60483451 -144.24468697 379.63198406 -146.8581543 379.67041016 C-165.70289214 379.94604066 -179.84136029 379.16605151 -195.78515625 368.23828125 C-196.91050781 367.46871094 -196.91050781 367.46871094 -198.05859375 366.68359375 C-198.62835938 366.20664062 -199.198125 365.7296875 -199.78515625 365.23828125 C-199.78515625 364.57828125 -199.78515625 363.91828125 -199.78515625 363.23828125 C-200.44515625 363.23828125 -201.10515625 363.23828125 -201.78515625 363.23828125 C-201.78515625 362.57828125 -201.78515625 361.91828125 -201.78515625 361.23828125 C-202.44515625 361.23828125 -203.10515625 361.23828125 -203.78515625 361.23828125 C-209.78759443 354.29865941 -214.42491534 346.59879389 -218.16015625 338.23828125 C-218.62349365 337.20985107 -218.62349365 337.20985107 -219.09619141 336.16064453 C-223.997087 324.6702648 -226.57439249 312.39735334 -228.91015625 300.17578125 C-229.03900208 299.50463287 -229.1678479 298.8334845 -229.30059814 298.14199829 C-237.55687477 254.83659078 -236.97544329 200.12697373 -211.85546875 162.06640625 C-199.74509033 145.52317233 -183.70648266 134.20165455 -163.21727753 130.613451 C-153.19056048 129.32265549 -143.37295115 128.96291668 -133.27148438 129.01123047 C-131.58441678 129.01179634 -129.89734869 129.01147461 -128.21028137 129.01034546 C-123.68446918 129.00977779 -119.15876565 129.02143579 -114.63297844 129.03549337 C-109.88313236 129.04809979 -105.13328308 129.04917897 -100.38342285 129.05154419 C-91.41306748 129.0577301 -82.44276156 129.07410131 -73.47242785 129.09424317 C-63.24976734 129.11669274 -53.02710431 129.12761825 -42.80442524 129.13763404 C-21.79797477 129.1584705 -0.79156864 129.19358955 20.21484375 129.23828125 C20.21484375 125.27828125 20.21484375 121.31828125 20.21484375 117.23828125 C18.70116714 117.24050186 17.18749054 117.24272247 15.62794495 117.24501038 C1.39774281 117.26523815 -12.83245427 117.28031159 -27.06266689 117.29009342 C-34.37943027 117.29525631 -41.69618295 117.30229887 -49.01293945 117.3137207 C-55.38798643 117.32366776 -61.76302566 117.33013473 -68.13808018 117.33236974 C-71.51563639 117.33367682 -74.89317041 117.33676244 -78.27071953 117.34401131 C-82.03522968 117.35121738 -85.7996931 117.35227238 -89.56420898 117.35180664 C-90.69205307 117.35540192 -91.81989716 117.35899719 -92.98191833 117.36270142 C-94.51114929 117.36063942 -94.51114929 117.36063942 -96.0712738 117.35853577 C-96.96264762 117.35945756 -97.85402143 117.36037935 -98.77240658 117.36132908 C-100.78515625 117.23828125 -100.78515625 117.23828125 -101.78515625 116.23828125 C-103.50363016 106.59842251 -102.93705396 96.45008708 -102.91552734 86.69604492 C-102.91017517 83.81098154 -102.91549376 80.92607424 -102.921875 78.04101562 C-102.93227832 57.51858236 -102.66372195 38.14824724 -87.98046875 22.2890625 C-66.69442578 1.93041974 -27.74892984 0.12192519 0 0 Z M-63.78515625 45.23828125 C-63.78515625 45.89828125 -63.78515625 46.55828125 -63.78515625 47.23828125 C-64.44515625 47.23828125 -65.10515625 47.23828125 -65.78515625 47.23828125 C-69.49600622 53.53059207 -70.41029891 59.62954231 -69.28515625 66.80078125 C-67.6293012 73.18924903 -63.29059678 77.51231111 -57.97265625 81.17578125 C-51.3894102 83.3701966 -45.13133823 84.21822788 -38.6640625 81.3046875 C-31.87661363 77.45235166 -27.96396301 72.79319698 -25.78515625 65.23828125 C-24.61232247 58.92674278 -26.59023177 53.67069355 -29.78515625 48.23828125 C-32.05626353 45.38343614 -32.05626353 45.38343614 -34.78515625 43.23828125 C-35.58953125 42.47515625 -36.39390625 41.71203125 -37.22265625 40.92578125 C-46.3035652 36.62429806 -56.68991322 37.99287434 -63.78515625 45.23828125 Z " fill="#3D7AAB" transform="translate(234.78515625,-0.23828125)"/>
<path d="M0 0 C1.0280928 -0.00637985 2.05618561 -0.0127597 3.11543274 -0.01933289 C4.23515976 -0.02044571 5.35488678 -0.02155853 6.50854492 -0.02270508 C7.65183762 -0.02603348 8.79513031 -0.02936188 9.97306824 -0.03279114 C12.39838253 -0.03786616 14.82370384 -0.04019929 17.24902344 -0.04003906 C20.96260105 -0.04222081 24.6758795 -0.06035763 28.3894043 -0.0793457 C30.74161682 -0.08228042 33.09383076 -0.08426469 35.44604492 -0.08520508 C36.55969925 -0.09239059 37.67335358 -0.09957611 38.820755 -0.10697937 C39.85830429 -0.10390274 40.89585358 -0.10082611 41.96484375 -0.09765625 C42.87671951 -0.09908127 43.78859528 -0.10050629 44.72810364 -0.10197449 C47.17651367 0.14526367 47.17651367 0.14526367 51.17651367 2.14526367 C33.35651367 2.47526367 15.53651367 2.80526367 -2.82348633 3.14526367 C-2.84926758 7.59124023 -2.87504883 12.0372168 -2.90161133 16.61791992 C-2.93337718 20.20524767 -2.96903242 23.79249083 -3.00727844 27.37975311 C-3.04635273 31.14315943 -3.07887619 34.90633886 -3.09448242 38.66992188 C-3.10983742 42.30773261 -3.14460493 45.94492465 -3.19179535 49.58245659 C-3.20641818 50.95717367 -3.2145161 52.33197917 -3.21537018 53.70677376 C-3.23128718 66.50363847 -5.41702275 78.81388221 -11.38598633 90.27026367 C-11.88980835 91.25446289 -11.88980835 91.25446289 -12.40380859 92.25854492 C-22.32859506 110.75321345 -39.4413867 124.20672165 -59.04614258 131.13745117 C-68.88775357 133.76323776 -78.48206422 134.44336066 -88.63500977 134.44824219 C-89.97354127 134.45592554 -91.31206802 134.464476 -92.65058899 134.47381592 C-95.50691988 134.49193368 -98.36318747 134.50407378 -101.21956635 134.51135445 C-105.74265955 134.52294912 -110.26561295 134.54844884 -114.78863525 134.57566833 C-121.94333221 134.61713264 -129.09803618 134.64963424 -136.25279546 134.67814249 C-149.06901945 134.7292933 -161.88518369 134.79153696 -174.70130754 134.86348289 C-179.191626 134.88827882 -183.68192629 134.90776553 -188.17228746 134.92286503 C-190.29327112 134.93064072 -192.41423202 134.94057016 -194.53520203 134.95141602 C-197.1125277 134.96449104 -199.68987412 134.97413817 -202.26722717 134.979599 C-208.2117803 135.01537071 -213.9458354 135.23805561 -219.82348633 136.14526367 C-219.82348633 135.48526367 -219.82348633 134.82526367 -219.82348633 134.14526367 C-212.14234309 132.0651118 -204.95255354 131.87020089 -197.02050781 131.90576172 C-195.64614254 131.90464673 -194.27177777 131.90258563 -192.89741516 131.8996582 C-189.95262929 131.89495975 -187.00792335 131.89603135 -184.06313896 131.90143394 C-179.39107994 131.90909584 -174.71917197 131.89832831 -170.0471344 131.88423157 C-156.76644293 131.84664464 -143.48582052 131.82825963 -130.20507812 131.83984375 C-122.85846643 131.84609361 -115.51210036 131.83431069 -108.16554886 131.80339843 C-104.28950724 131.78791874 -100.41394927 131.78156223 -96.53790092 131.79797935 C-70.17360219 131.90243686 -47.9659924 128.89141122 -28.12036133 109.50463867 C-16.3380472 96.8756912 -6.67235894 80.81737612 -6.52050781 63.0324707 C-6.50784882 62.02385231 -6.50784882 62.02385231 -6.49493408 60.99485779 C-6.46937843 58.79758921 -6.45707293 56.60045419 -6.44458008 54.40307617 C-6.42838995 52.8684688 -6.41120838 51.3338716 -6.39308167 49.79928589 C-6.347589 45.77861211 -6.31267195 41.75792456 -6.28088379 37.73712158 C-6.22880669 31.28067933 -6.16400481 24.82438514 -6.09266853 18.36812973 C-6.06979541 16.11181744 -6.05355829 13.85552436 -6.03794861 11.59915161 C-6.02455029 10.22666198 -6.01093622 8.85417444 -5.99707031 7.48168945 C-5.98755844 6.27924591 -5.97804657 5.07680237 -5.96824646 3.83792114 C-5.72527328 -0.68157973 -4.07409814 0.01707513 0 0 Z " fill="#FEF479" transform="translate(396.823486328125,128.854736328125)"/>
<path d="M0 0 C0 0.66 0 1.32 0 2 C-1.46875 3.4453125 -1.46875 3.4453125 -3.5 5.125 C-4.2321875 5.75792969 -4.964375 6.39085937 -5.71875 7.04296875 C-7.145307 8.26677878 -8.58140147 9.47965621 -10.03125 10.67578125 C-14.62286799 14.78455052 -17.52876656 19.2601236 -20.3125 24.6875 C-20.63798828 25.31003662 -20.96347656 25.93257324 -21.29882812 26.57397461 C-26.33742027 36.96672562 -27.44668953 47.95818665 -27.35644531 59.35839844 C-27.35848969 60.62355789 -27.36053406 61.88871735 -27.36264038 63.19221497 C-27.36771346 66.61974487 -27.35436451 70.0469674 -27.33711338 73.4744482 C-27.32192083 77.08299369 -27.3232478 80.69153776 -27.32244873 84.30010986 C-27.31877337 90.3519811 -27.3038913 96.40373775 -27.28125 102.45556641 C-27.25232768 110.2015717 -27.24201798 117.94748522 -27.2375679 125.69353867 C-27.23357591 132.3877285 -27.22108226 139.08189876 -27.20722103 145.77607441 C-27.20314305 147.91241982 -27.20020698 150.04876455 -27.19742584 152.185112 C-27.19158044 156.17650316 -27.17688351 160.16781534 -27.16113281 164.15917969 C-27.16001495 165.33134537 -27.15889709 166.50351105 -27.15774536 167.7111969 C-27.12555411 173.88905016 -26.8116905 179.87424955 -26 186 C-26.66 185.67 -27.32 185.34 -28 185 C-30.08996593 176.625363 -30.29083174 168.00755542 -30.25878906 159.42358398 C-30.2622937 158.24127197 -30.26579834 157.05895996 -30.26940918 155.84082031 C-30.27813184 151.97584975 -30.27241132 148.11106581 -30.265625 144.24609375 C-30.2660719 141.53572952 -30.2689146 138.82536849 -30.27142334 136.11500549 C-30.27504452 130.4523826 -30.27031225 124.78981217 -30.26074219 119.12719727 C-30.24985593 112.61116696 -30.25339193 106.09526183 -30.264395 99.57923454 C-30.2735146 93.94994594 -30.27473061 88.32069468 -30.26951766 82.69140106 C-30.26642416 79.34440385 -30.26671896 75.99751177 -30.27259064 72.65051079 C-30.27770606 68.91592992 -30.26987558 65.18158492 -30.25878906 61.44702148 C-30.26486176 59.81716057 -30.26486176 59.81716057 -30.27105713 58.15437317 C-30.15307453 36.55112655 -22.95825572 20.35964005 -8 5 C-2.71973094 0 -2.71973094 0 0 0 Z " fill="#FEF575" transform="translate(162,271)"/>
<path d="M0 0 C7.38728102 -0.02526692 14.77455098 -0.0428316 22.16186523 -0.05493164 C24.67716895 -0.05997363 27.19246972 -0.06680703 29.70776367 -0.07543945 C33.31429775 -0.08751094 36.92079323 -0.09322949 40.52734375 -0.09765625 C42.22575661 -0.10539818 42.22575661 -0.10539818 43.95848083 -0.11329651 C45.51998619 -0.11340981 45.51998619 -0.11340981 47.11303711 -0.11352539 C48.03459091 -0.115746 48.95614471 -0.11796661 49.90562439 -0.12025452 C52 0 52 0 53 1 C53.10409735 2.72776895 53.13853499 4.45978488 53.14526367 6.19067383 C53.15164352 7.29884964 53.15802338 8.40702545 53.16459656 9.54878235 C53.16570938 10.75600449 53.1668222 11.96322662 53.16796875 13.20703125 C53.17296135 15.05514656 53.17296135 15.05514656 53.17805481 16.94059753 C53.18313006 19.55422593 53.18546295 22.16786083 53.18530273 24.78149414 C53.18522143 27.46352883 53.19216398 30.14539289 53.20581055 32.82739258 C53.22409783 36.68315893 53.22903807 40.5387259 53.23046875 44.39453125 C53.23765427 45.59568069 53.24483978 46.79683014 53.25224304 48.03437805 C53.24916641 49.15201035 53.24608978 50.26964264 53.24291992 51.42114258 C53.24434494 52.40407791 53.24576996 53.38701324 53.24723816 54.3997345 C52.99310576 57.07250843 52.36460217 58.7118636 51 61 C50.02145916 57.75011491 49.90838442 54.88271017 49.97827148 51.49707031 C49.99836777 50.39623108 50.01846405 49.29539185 50.03916931 48.16119385 C50.07972191 46.38757477 50.07972191 46.38757477 50.12109375 44.578125 C50.15651024 42.75544098 50.15651024 42.75544098 50.19264221 40.89593506 C50.2692318 37.01383649 50.35327693 33.13193974 50.4375 29.25 C50.49072536 26.61849947 50.54346573 23.98698908 50.59570312 21.35546875 C50.72484068 14.90352088 50.86010026 8.45172299 51 2 C49.32212402 2.00785522 49.32212402 2.00785522 47.61035156 2.01586914 C43.40577006 2.03415712 39.20119198 2.04551777 34.99658203 2.05493164 C33.18700568 2.05991803 31.37743326 2.06670954 29.56787109 2.07543945 C19.66333787 2.12197817 9.85836736 2.1159229 0 1 C0 0.67 0 0.34 0 0 Z " fill="#FEDB3E" transform="translate(326,393)"/>
<path d="M0 0 C4.12668742 6.19003113 3.16533627 14.70131187 3.125 21.9375 C3.12161621 22.81124268 3.11823242 23.68498535 3.11474609 24.58520508 C3.06772717 30.44780908 2.9503349 36.20295712 2 42 C1.01 42.495 1.01 42.495 0 43 C0 28.81 0 14.62 0 0 Z " fill="#FEF04D" transform="translate(508,237)"/>
</svg>
